<svg width="48" height="48" viewBox="0 0 48 48" fill="none" xmlns="http://www.w3.org/2000/svg">
<g clip-path="url(#clip0_37_4672)">
<path d="M22.2585 8C23.4558 8 24.6531 8 25.8503 8C25.9733 8.02939 26.0952 8.06639 26.2193 8.08599C28.5812 8.45279 30.7864 9.24299 32.775 10.5796C35.6767 12.5301 37.7382 15.1499 38.9976 18.4174C39.4177 19.5069 39.2185 20.4114 38.499 21.2931C37.1026 23.0063 35.4558 24.4441 33.7045 25.7742C33.5521 25.8895 33.4084 26.1399 33.2147 26.0452C33.0253 25.9516 33.12 25.6827 33.12 25.4912C33.1156 22.5524 33.1222 19.6147 33.1135 16.6759C33.1102 15.6778 32.6182 15.1717 31.619 15.1227C31.0944 15.0966 30.5676 15.1118 30.0408 15.1151C28.7576 15.1227 28.2754 15.6093 28.2754 16.9012C28.2743 20.4201 28.2427 23.939 28.295 27.458C28.3102 28.5127 28.0152 29.1831 26.9682 29.5118C26.3293 29.7121 26.3532 29.7731 26.3532 29.1037C26.3554 26.1475 26.3586 23.1902 26.3554 20.234C26.3543 19.0542 25.8917 18.5894 24.7086 18.5654C24.2014 18.5556 23.6898 18.597 23.1859 18.5556C22.1845 18.4751 21.4748 19.0356 21.4912 20.2199C21.539 23.52 21.5097 26.8223 21.5031 30.1235C21.501 31.1576 20.8925 31.7453 19.8639 31.7529C19.655 31.7551 19.5614 31.6593 19.5516 31.4656C19.5429 31.2849 19.5407 31.1031 19.5396 30.9214C19.5363 28.418 19.5439 25.9146 19.5265 23.4122C19.52 22.4555 19.0215 21.9766 18.0756 21.9537C17.4052 21.9374 16.7336 21.9276 16.062 21.9439C15.3698 21.9603 14.9148 22.3576 14.7603 23.0324C14.6667 23.4438 14.6786 23.8618 14.6776 24.2786C14.6765 26.7091 14.6797 29.1396 14.6732 31.5701C14.671 32.3211 14.3989 32.7314 13.8133 32.8316C13.243 32.9284 12.6639 33.0101 12.0871 33.0329C11.2109 33.0667 10.4871 32.7488 10.0473 31.9423C9.82204 31.5287 9.60109 31.1129 9.3932 30.6895C8.64327 29.1603 8.31238 27.508 8 25.8503C8 24.5442 8 23.2381 8 21.932C8.05769 21.6675 8.12082 21.403 8.17306 21.1374C9.17333 16.0109 12.0414 12.2547 16.5823 9.7502C18.3456 8.77823 20.2765 8.29388 22.2585 8Z" fill="#B3B3B3"/>
<path d="M22.5849 40.0001C21.6402 39.7476 20.6638 39.6583 19.7169 39.4091C18.069 38.9737 16.5594 38.2542 15.1422 37.3258C15.0007 37.2333 14.7471 37.1821 14.7863 36.9699C14.8266 36.7533 15.0834 36.799 15.2478 36.7707C17.4813 36.3887 19.6788 35.8662 21.8502 35.2088C23.8671 34.5982 25.8111 33.8178 27.7147 32.9231C31.1727 31.297 34.2791 29.1702 36.9599 26.4382C37.8992 25.4815 38.7765 24.4681 39.5439 23.3645C39.6603 23.1968 39.7735 23.0357 40.001 23.0205C40.001 23.8183 40.001 24.6172 40.001 25.4151C39.7354 26.8562 39.5068 28.3059 38.9615 29.6796C37.1722 34.1911 33.9885 37.2888 29.4791 39.0466C28.1697 39.5571 26.7809 39.7302 25.416 40.0001C24.4712 40.0001 23.5286 40.0001 22.5849 40.0001Z" fill="#B3B3B3"/>
</g>
<defs>
<clipPath id="clip0_37_4672">
<rect width="32" height="32" fill="white" transform="translate(8 8)"/>
</clipPath>
</defs>
</svg>
