<svg width="48" height="48" viewBox="0 0 48 48" fill="none" xmlns="http://www.w3.org/2000/svg">
<path d="M16.9419 10C19.3456 11.362 21.7344 12.7513 24.1621 14.076C25.3033 14.7003 25.8873 15.5442 25.8005 16.8115C25.7533 17.2889 25.7558 17.7697 25.808 18.2467C25.9308 19.0992 25.5324 19.5699 24.7596 19.9172C24.0392 20.243 23.3668 20.6635 22.6809 21.0539C22.2945 21.2735 22.1432 21.1773 22.1492 20.7568C22.1582 20.0392 22.1492 19.3216 22.1492 18.604C22.1597 17.6109 21.7463 16.8603 20.8373 16.3522C19.6511 15.6891 18.474 15.0132 17.3058 14.3243C16.4162 13.8033 15.5356 13.7502 14.622 14.2697C13.3949 14.9586 12.1618 15.637 10.9228 16.3048C10.0122 16.7942 9.67375 17.5793 9.65577 18.515C9.63181 19.8297 9.6363 21.1443 9.65577 22.459C9.67075 23.4981 10.1425 24.2659 11.1235 24.7826C12.2812 25.3911 13.3939 26.0742 14.5321 26.7244C15.4757 27.2583 16.4177 27.2597 17.3582 26.6971C21.7014 24.1037 26.2378 21.8332 30.6124 19.2972C31.6264 18.7117 32.6163 18.7231 33.6467 19.3101C35.7689 20.5186 37.8925 21.7299 40.0641 22.8537C41.424 23.5569 42.056 24.4927 41.9961 26.0111C41.9018 28.471 41.9557 30.9353 41.9781 33.3981C41.9886 34.5204 41.4989 35.2925 40.4805 35.8379C37.9629 37.2028 35.4663 38.605 32.9608 40H31.1696C28.6505 38.5906 26.1405 37.1655 23.6079 35.7776C22.7198 35.2897 22.26 34.5807 22.2121 33.6349C22.1702 32.847 22.1986 32.0562 22.1971 31.2682C22.1891 31.1125 22.2286 30.9579 22.3107 30.8233C22.3929 30.6887 22.5143 30.58 22.6599 30.5104C23.5515 30.032 24.4371 29.5422 25.3167 29.0408C25.7346 28.804 25.9158 28.9145 25.9158 29.3609C25.9158 30.1258 25.9293 30.8908 25.9158 31.6572C25.8983 32.0424 25.9943 32.4246 26.193 32.7599C26.3917 33.0952 26.6849 33.3701 27.039 33.5531C28.2851 34.2592 29.5361 34.9553 30.7922 35.6413C31.1875 35.8762 31.6441 35.9995 32.1093 35.997C32.5745 35.9944 33.0295 35.8662 33.422 35.6269C34.6037 34.9596 35.7824 34.2865 36.9655 33.6177C37.8192 33.1397 38.2265 32.4494 38.2071 31.4893C38.1786 30.1272 38.1756 28.7624 38.2071 27.4018C38.231 26.4086 37.7967 25.7097 36.9176 25.2246C35.8363 24.6304 34.7445 24.0506 33.6856 23.4206C32.519 22.7245 31.4392 22.779 30.256 23.4521C26.0281 25.8489 21.7553 28.1739 17.5185 30.5592C16.3802 31.1993 15.3529 31.1864 14.2236 30.532C12.1134 29.3049 9.97327 28.1237 7.81815 26.9684C6.97497 26.5163 6.3205 25.9637 6 25.071V15.8843C6.28905 15.1036 6.87014 14.6013 7.61297 14.1937C10.132 12.8159 12.6301 11.4008 15.1357 10H16.9419Z" fill="#B3B3B3"/>
</svg>
