<!-- <svg width="13" height="16" viewBox="0 0 13 16" fill="none" xmlns="http://www.w3.org/2000/svg">
<path d="M1 5H12L8.2069 1.5" stroke="#999C9D" stroke-width="1.3" stroke-linecap="round" stroke-linejoin="round"/>
<path d="M12 11.65C12.359 11.65 12.65 11.359 12.65 11C12.65 10.641 12.359 10.35 12 10.35L12 11.65ZM1 11L1 10.35C0.732341 10.35 0.492047 10.5141 0.394604 10.7634C0.297162 11.0127 0.362497 11.2962 0.559208 11.4777L1 11ZM4.35231 14.9777C4.61614 15.2211 5.02737 15.2046 5.27081 14.9408C5.51425 14.677 5.49773 14.2657 5.2339 14.0223L4.35231 14.9777ZM12 10.35L1 10.35L1 11.65L12 11.65L12 10.35ZM0.559208 11.4777L4.35231 14.9777L5.2339 14.0223L1.44079 10.5223L0.559208 11.4777Z" fill="#999C9D"/>
</svg> -->

<svg width="13" height="16" viewBox="0 0 13 16" fill="none" xmlns="http://www.w3.org/2000/svg">
<path d="M1 5H12L8.2069 1.5" stroke="url(#paint0_linear_350_1363)" stroke-width="1.3" stroke-linecap="round" stroke-linejoin="round"/>
<path d="M12 11.65C12.359 11.65 12.65 11.359 12.65 11C12.65 10.641 12.359 10.35 12 10.35L12 11.65ZM1 11L1 10.35C0.732341 10.35 0.492047 10.5141 0.394604 10.7634C0.297162 11.0127 0.362497 11.2962 0.559208 11.4777L1 11ZM4.35231 14.9777C4.61614 15.2211 5.02737 15.2046 5.27081 14.9408C5.51425 14.677 5.49773 14.2657 5.2339 14.0223L4.35231 14.9777ZM12 10.35L1 10.35L1 11.65L12 11.65L12 10.35ZM0.559208 11.4777L4.35231 14.9777L5.2339 14.0223L1.44079 10.5223L0.559208 11.4777Z" fill="url(#paint0_linear_350_1363)"/>
<defs>
<linearGradient id="paint0_linear_350_1363" x1="1.62167" y1="6.97448" x2="22.7034" y2="6.97448" gradientUnits="userSpaceOnUse">
<!-- <stop stop-color="#1CB0AB"/>
<stop offset="1" stop-color="#33A5C9"/> -->
<stop stop-color="#999C9D"/>
<stop offset="1" stop-color="#999C9D"/>
</linearGradient>
</defs>
</svg>
