<svg width="32" height="30" viewBox="0 0 32 30" fill="none" xmlns="http://www.w3.org/2000/svg">
<path d="M1 5.8699V23.4786C1 26.3482 3.34783 28.696 6.21739 28.696H25.7826C28.6522 28.696 31 26.3482 31 23.4786V7.82643H3.08696C1.91304 7.82643 1 6.91338 1 5.80469C1 4.76121 1.78261 3.84817 2.82609 3.78295L28.3913 1.30469V7.82643" stroke="#333333" stroke-width="1.5" stroke-miterlimit="10" stroke-linecap="round" stroke-linejoin="round"/>
<path d="M23.7085 13.3335H31.0002V21.6668H23.7085C21.3022 21.6668 19.3335 19.7918 19.3335 17.5002C19.3335 15.2085 21.3022 13.3335 23.7085 13.3335Z" stroke="#333333" stroke-width="1.5" stroke-miterlimit="10" stroke-linecap="round" stroke-linejoin="round"/>
<path d="M23.5002 19.1668C24.4206 19.1668 25.1668 18.4206 25.1668 17.5002C25.1668 16.5797 24.4206 15.8335 23.5002 15.8335C22.5797 15.8335 21.8335 16.5797 21.8335 17.5002C21.8335 18.4206 22.5797 19.1668 23.5002 19.1668Z" fill="#333333"/>
</svg>
