<svg width="40" height="40" viewBox="0 0 40 40" fill="none" xmlns="http://www.w3.org/2000/svg">
<path d="M5 10.8699V28.4786C5 31.3482 7.34783 33.696 10.2174 33.696H29.7826C32.6522 33.696 35 31.3482 35 28.4786V12.8264H7.08696C5.91304 12.8264 5 11.9134 5 10.8047C5 9.76121 5.78261 8.84817 6.82609 8.78295L32.3913 6.30469V12.8264" stroke="#333333" stroke-width="1.5" stroke-miterlimit="10" stroke-linecap="round" stroke-linejoin="round"/>
<path d="M27.7085 18.3335H35.0002V26.6668H27.7085C25.3022 26.6668 23.3335 24.7918 23.3335 22.5002C23.3335 20.2085 25.3022 18.3335 27.7085 18.3335Z" stroke="#333333" stroke-width="1.5" stroke-miterlimit="10" stroke-linecap="round" stroke-linejoin="round"/>
<path d="M27.5002 24.1668C28.4206 24.1668 29.1668 23.4206 29.1668 22.5002C29.1668 21.5797 28.4206 20.8335 27.5002 20.8335C26.5797 20.8335 25.8335 21.5797 25.8335 22.5002C25.8335 23.4206 26.5797 24.1668 27.5002 24.1668Z" fill="#333333"/>
</svg>
