<svg width="16" height="24" viewBox="0 0 16 24" fill="none" xmlns="http://www.w3.org/2000/svg">
<path d="M14 12L14.9603 13.1523C15.3023 12.8673 15.5 12.4452 15.5 12C15.5 11.5548 15.3023 11.1327 14.9603 10.8477L14 12ZM1.03972 20.8477C0.403308 21.378 0.317322 22.3239 0.847668 22.9603C1.37801 23.5967 2.32386 23.6827 2.96028 23.1523L1.03972 20.8477ZM2.96028 0.847668C2.32386 0.317322 1.37802 0.403307 0.847669 1.03972C0.317323 1.67614 0.403309 2.62199 1.03972 3.15233L2.96028 0.847668ZM13.0397 10.8477L1.03972 20.8477L2.96028 23.1523L14.9603 13.1523L13.0397 10.8477ZM1.03972 3.15233L13.0397 13.1523L14.9603 10.8477L2.96028 0.847668L1.03972 3.15233Z" fill="#9C69F1"/>
</svg>
