<svg width="16" height="24" viewBox="0 0 16 24" fill="none" xmlns="http://www.w3.org/2000/svg">
<path d="M2 12L1.03972 10.8477C0.697735 11.1327 0.5 11.5548 0.5 12C0.5 12.4452 0.697735 12.8673 1.03972 13.1523L2 12ZM14.9603 3.15233C15.5967 2.62199 15.6827 1.67614 15.1523 1.03972C14.622 0.403309 13.6761 0.317322 13.0397 0.847668L14.9603 3.15233ZM13.0397 23.1523C13.6761 23.6827 14.622 23.5967 15.1523 22.9603C15.6827 22.3239 15.5967 21.378 14.9603 20.8477L13.0397 23.1523ZM2.96028 13.1523L14.9603 3.15233L13.0397 0.847668L1.03972 10.8477L2.96028 13.1523ZM14.9603 20.8477L2.96028 10.8477L1.03972 13.1523L13.0397 23.1523L14.9603 20.8477Z" fill="#9C69F1"/>
</svg>
