<svg width="31" height="28" viewBox="0 0 31 28" fill="none" xmlns="http://www.w3.org/2000/svg">
<path d="M31 4.37882C30.9381 4.9363 30.7827 5.46049 30.6652 5.99207C30.2231 8.0111 29.7974 10.0338 29.3312 12.0467C29.1948 12.6325 29.1443 13.2455 28.86 13.7981C28.7653 13.9818 28.8133 14.1817 28.8752 14.3704C29.2504 15.526 29.6243 16.6817 30.0007 17.8361C30.2433 18.5799 30.4896 19.3223 30.7397 20.0636C30.8016 20.2474 30.7953 20.4225 30.7397 20.6075C30.189 22.4514 29.6407 24.2965 29.0937 26.1417C28.9346 26.6782 28.5417 26.9014 27.9796 26.7497C26.5799 26.3723 25.1827 25.985 23.7856 25.6027C23.3296 25.4781 22.8748 25.3498 22.4162 25.2364C22.1194 25.1624 21.8301 25.1846 21.5812 25.3905C20.5769 26.2243 19.464 26.9113 18.3991 27.6636C18.0884 27.8832 17.7725 28.004 17.3797 27.9991C16.1063 27.9831 14.833 27.9892 13.5584 27.9954C13.2615 27.9966 12.9987 27.9202 12.7625 27.7487C11.7064 26.984 10.5784 26.3168 9.57662 25.4806C9.23302 25.1944 8.8932 25.15 8.44349 25.2808C6.95286 25.7186 5.44455 26.101 3.94381 26.5055C3.64948 26.5844 3.35893 26.6732 3.0646 26.7559C2.53909 26.9026 2.1058 26.6905 1.95168 26.175C1.39712 24.3323 0.856447 22.4847 0.3082 20.6396C0.183138 20.219 0.375151 19.849 0.497686 19.4728C1.0472 17.7893 1.60808 16.1094 2.17148 14.4308C2.26875 14.1385 2.24349 13.8795 2.10074 13.602C1.88599 13.1851 1.85315 12.7127 1.75082 12.2625C1.17857 9.76742 0.617694 7.26861 0.0429183 4.7735C-0.031613 4.44789 -0.00761142 4.15681 0.103554 3.8423C0.474948 2.79394 0.817287 1.7357 1.17352 0.682405C1.38954 0.0435183 1.79756 -0.134087 2.44687 0.103953C3.98424 0.667604 5.52413 1.22262 7.0615 1.78381C8.4018 2.27345 9.74084 2.7631 11.0786 3.25892C11.2795 3.33292 11.4778 3.37609 11.6926 3.37609C14.219 3.37362 16.7455 3.37115 19.272 3.37609C19.8316 3.37732 20.3066 3.11091 20.8043 2.93331C22.9481 2.16738 25.0829 1.37556 27.2203 0.592369C27.7029 0.415996 28.1842 0.233457 28.6668 0.0595521C29.1329 -0.10942 29.6129 0.0829861 29.7708 0.5418C30.1789 1.72954 30.5641 2.92591 30.9545 4.11858C30.9835 4.20491 30.9873 4.29988 31 4.37882ZM29.9009 4.8845C29.8757 4.7994 29.8529 4.6995 29.8176 4.60329C29.4449 3.57713 29.0748 2.55096 28.6958 1.52726C28.5531 1.14122 28.3863 1.09312 28.0339 1.33116C26.6481 2.26235 25.2674 3.19972 23.8803 4.13091C21.9741 5.41115 20.0666 6.68646 18.1591 7.96423C17.7965 8.2072 17.7915 8.39468 18.1313 8.65368C19.0838 9.38014 20.03 10.1152 20.9888 10.8318C21.3033 11.0674 21.5648 11.3979 21.9589 11.504C23.7628 11.9924 25.5718 12.4611 27.377 12.9421C27.6334 13.01 27.7749 12.9421 27.8419 12.6868C28.121 11.6335 28.4091 10.5814 28.6908 9.52938C28.9775 8.45634 29.2617 7.38331 29.5422 6.30904C29.6672 5.8416 29.7797 5.37168 29.9009 4.8845ZM1.11162 4.8586C1.10404 5.02634 1.15331 5.18421 1.195 5.34332C1.32511 5.84036 1.46028 6.33741 1.59039 6.83446C2.08558 8.71412 2.5833 10.5938 3.07218 12.4747C3.20482 12.9841 3.2604 13.0322 3.78465 12.894C5.52161 12.4364 7.2573 11.9727 8.993 11.5163C9.1408 11.4769 9.25828 11.4016 9.3745 11.3104C9.89369 10.9083 10.4154 10.5099 10.9371 10.1115C11.5662 9.63051 12.2029 9.15813 12.8257 8.66848C13.2034 8.37124 13.1945 8.23064 12.8067 7.96423C11.973 7.39071 11.1342 6.82459 10.2941 6.25848C9.21154 5.52955 8.12641 4.80557 7.04255 4.08034C5.67193 3.16271 4.30384 2.24262 2.93196 1.32869C2.5833 1.09682 2.44813 1.13875 2.30286 1.51986C2.00221 2.30922 1.7104 3.10228 1.41985 3.8941C1.3049 4.21231 1.12047 4.50956 1.11162 4.8586ZM15.4722 25.1328C16.1341 25.1328 16.7973 25.1365 17.4593 25.1315C17.8218 25.1291 17.8926 25.0538 17.8584 24.7134C17.8218 24.3459 17.7688 23.9808 17.7283 23.6132C17.6652 23.0508 17.338 22.7536 16.7594 22.7524C15.908 22.7499 15.0553 22.7487 14.2039 22.7524C13.547 22.7548 13.2135 23.073 13.1807 23.702C13.1642 24.0092 13.1326 24.315 13.0998 24.6209C13.0569 25.0316 13.1453 25.1315 13.5798 25.134C14.2102 25.1352 14.8418 25.1328 15.4722 25.1328ZM12.4922 18.5873C12.8143 18.5836 12.9646 18.3579 12.8446 18.0877C12.6476 17.6462 12.429 17.2145 12.2155 16.7804C12.1372 16.6213 11.9882 16.5337 11.8277 16.6015C11.2694 16.8359 10.7123 17.0764 10.1716 17.3477C9.94801 17.46 9.94928 17.8028 10.1691 17.8768C10.951 18.1383 11.7469 18.3628 12.4922 18.5873ZM18.4964 18.586C19.2303 18.3628 20.0287 18.1395 20.8094 17.8707C21.0785 17.7782 21.0582 17.492 20.7841 17.3601C20.2662 17.1109 19.7369 16.8827 19.2126 16.6484C19.0143 16.5596 18.8564 16.62 18.7629 16.8013C18.5355 17.2404 18.3119 17.682 18.1048 18.1309C17.9949 18.364 18.1717 18.591 18.4964 18.586Z" fill="#333333"/>
</svg>
