<svg width="40" height="40" viewBox="0 0 40 40" fill="none" xmlns="http://www.w3.org/2000/svg">
<g clip-path="url(#clip0_536_1122)">
<path d="M36 10.3788C35.9381 10.9363 35.7827 11.4605 35.6652 11.9921C35.2231 14.0111 34.7974 16.0338 34.3312 18.0467C34.1948 18.6325 34.1443 19.2455 33.86 19.7981C33.7653 19.9818 33.8133 20.1817 33.8752 20.3704C34.2504 21.526 34.6243 22.6817 35.0007 23.8361C35.2433 24.5799 35.4896 25.3223 35.7397 26.0636C35.8016 26.2474 35.7953 26.4225 35.7397 26.6075C35.189 28.4514 34.6407 30.2965 34.0937 32.1417C33.9346 32.6782 33.5417 32.9014 32.9796 32.7497C31.5799 32.3723 30.1827 31.985 28.7856 31.6027C28.3296 31.4781 27.8748 31.3498 27.4162 31.2364C27.1194 31.1624 26.8301 31.1846 26.5812 31.3905C25.5769 32.2243 24.464 32.9113 23.3991 33.6636C23.0884 33.8832 22.7725 34.004 22.3797 33.9991C21.1063 33.9831 19.833 33.9892 18.5584 33.9954C18.2615 33.9966 17.9987 33.9202 17.7625 33.7487C16.7064 32.984 15.5784 32.3168 14.5766 31.4806C14.233 31.1944 13.8932 31.15 13.4435 31.2808C11.9529 31.7186 10.4445 32.101 8.94381 32.5055C8.64948 32.5844 8.35893 32.6732 8.0646 32.7559C7.53909 32.9026 7.1058 32.6905 6.95168 32.175C6.39712 30.3323 5.85645 28.4847 5.3082 26.6396C5.18314 26.219 5.37515 25.849 5.49769 25.4728C6.0472 23.7893 6.60808 22.1094 7.17148 20.4308C7.26875 20.1385 7.24349 19.8795 7.10074 19.602C6.88599 19.1851 6.85315 18.7127 6.75082 18.2625C6.17857 15.7674 5.61769 13.2686 5.04292 10.7735C4.96839 10.4479 4.99239 10.1568 5.10355 9.8423C5.47495 8.79394 5.81729 7.7357 6.17352 6.6824C6.38954 6.04352 6.79756 5.86591 7.44687 6.10395C8.98424 6.6676 10.5241 7.22262 12.0615 7.78381C13.4018 8.27345 14.7408 8.7631 16.0786 9.25892C16.2795 9.33292 16.4778 9.37609 16.6926 9.37609C19.219 9.37362 21.7455 9.37115 24.272 9.37609C24.8316 9.37732 25.3066 9.11091 25.8043 8.93331C27.9481 8.16738 30.0829 7.37556 32.2203 6.59237C32.7029 6.416 33.1842 6.23346 33.6668 6.05955C34.1329 5.89058 34.6129 6.08299 34.7708 6.5418C35.1789 7.72954 35.5641 8.92591 35.9545 10.1186C35.9835 10.2049 35.9873 10.2999 36 10.3788ZM34.9009 10.8845C34.8757 10.7994 34.8529 10.6995 34.8176 10.6033C34.4449 9.57713 34.0748 8.55096 33.6958 7.52726C33.5531 7.14122 33.3863 7.09312 33.0339 7.33116C31.6481 8.26235 30.2674 9.19972 28.8803 10.1309C26.9741 11.4112 25.0666 12.6865 23.1591 13.9642C22.7965 14.2072 22.7915 14.3947 23.1313 14.6537C24.0838 15.3801 25.03 16.1152 25.9888 16.8318C26.3033 17.0674 26.5648 17.3979 26.9589 17.504C28.7628 17.9924 30.5718 18.4611 32.377 18.9421C32.6334 19.01 32.7749 18.9421 32.8419 18.6868C33.121 17.6335 33.4091 16.5814 33.6908 15.5294C33.9775 14.4563 34.2617 13.3833 34.5422 12.309C34.6672 11.8416 34.7797 11.3717 34.9009 10.8845ZM6.11162 10.8586C6.10404 11.0263 6.15331 11.1842 6.195 11.3433C6.32511 11.8404 6.46028 12.3374 6.59039 12.8345C7.08558 14.7141 7.5833 16.5938 8.07218 18.4747C8.20482 18.9841 8.2604 19.0322 8.78465 18.894C10.5216 18.4364 12.2573 17.9727 13.993 17.5163C14.1408 17.4769 14.2583 17.4016 14.3745 17.3104C14.8937 16.9083 15.4154 16.5099 15.9371 16.1115C16.5662 15.6305 17.2029 15.1581 17.8257 14.6685C18.2034 14.3712 18.1945 14.2306 17.8067 13.9642C16.973 13.3907 16.1342 12.8246 15.2941 12.2585C14.2115 11.5296 13.1264 10.8056 12.0426 10.0803C10.6719 9.16271 9.30384 8.24262 7.93196 7.32869C7.5833 7.09682 7.44813 7.13875 7.30286 7.51986C7.00221 8.30922 6.7104 9.10228 6.41985 9.8941C6.3049 10.2123 6.12047 10.5096 6.11162 10.8586ZM20.4722 31.1328C21.1341 31.1328 21.7973 31.1365 22.4593 31.1315C22.8218 31.1291 22.8926 31.0538 22.8584 30.7134C22.8218 30.3459 22.7688 29.9808 22.7283 29.6132C22.6652 29.0508 22.338 28.7536 21.7594 28.7524C20.908 28.7499 20.0553 28.7487 19.2039 28.7524C18.547 28.7548 18.2135 29.073 18.1807 29.702C18.1642 30.0092 18.1326 30.315 18.0998 30.6209C18.0569 31.0316 18.1453 31.1315 18.5798 31.134C19.2102 31.1352 19.8418 31.1328 20.4722 31.1328ZM17.4922 24.5873C17.8143 24.5836 17.9646 24.3579 17.8446 24.0877C17.6476 23.6462 17.429 23.2145 17.2155 22.7804C17.1372 22.6213 16.9882 22.5337 16.8277 22.6015C16.2694 22.8359 15.7123 23.0764 15.1716 23.3477C14.948 23.46 14.9493 23.8028 15.1691 23.8768C15.951 24.1383 16.7469 24.3628 17.4922 24.5873ZM23.4964 24.586C24.2303 24.3628 25.0287 24.1395 25.8094 23.8707C26.0785 23.7782 26.0582 23.492 25.7841 23.3601C25.2662 23.1109 24.7369 22.8827 24.2126 22.6484C24.0143 22.5596 23.8564 22.62 23.7629 22.8013C23.5355 23.2404 23.3119 23.682 23.1048 24.1309C22.9949 24.364 23.1717 24.591 23.4964 24.586Z" fill="#333333"/>
</g>
<defs>
<clipPath id="clip0_536_1122">
<rect width="31" height="28" fill="white" transform="translate(5 6)"/>
</clipPath>
</defs>
</svg>
