<svg width="34" height="30" viewBox="0 0 34 30" fill="none" xmlns="http://www.w3.org/2000/svg">
<path d="M17 6.59916C13.5333 1.69221 7.55556 0.837213 5 1.02308V20.5391C10.3333 20.0931 15.2222 23.3272 17 25V6.59916Z" stroke="url(#paint0_linear_536_1234)" stroke-width="1.5" stroke-linejoin="round"/>
<path d="M17 6.59916C20.4667 1.69221 26.4444 0.837213 29 1.02308V20.5391C23.6667 20.0931 18.7778 23.3272 17 25V6.59916Z" stroke="url(#paint1_linear_536_1234)" stroke-width="1.5" stroke-linejoin="round"/>
<path d="M3.90471 4.80566C4.31892 4.80566 4.65471 4.46988 4.65471 4.05566C4.65471 3.64145 4.31892 3.30566 3.90471 3.30566V4.80566ZM1.72217 4.05566V3.30566C1.30795 3.30566 0.972168 3.64145 0.972168 4.05566H1.72217ZM1.72217 24.135H0.972168C0.972168 24.5492 1.30795 24.885 1.72217 24.885L1.72217 24.135ZM14.8174 28.5001L14.203 28.9302C14.3433 29.1307 14.5727 29.2501 14.8174 29.2501V28.5001ZM19.1825 28.5001V29.2501C19.4103 29.2501 19.6258 29.1465 19.7681 28.9686L19.1825 28.5001ZM32.2777 24.135V24.885C32.6919 24.885 33.0277 24.5492 33.0277 24.135H32.2777ZM32.2777 4.05566H33.0277C33.0277 3.64145 32.6919 3.30566 32.2777 3.30566V4.05566ZM30.0952 3.30566C29.681 3.30566 29.3452 3.64145 29.3452 4.05566C29.3452 4.46988 29.681 4.80566 30.0952 4.80566V3.30566ZM3.90471 3.30566H1.72217V4.80566H3.90471V3.30566ZM0.972168 4.05566V24.135H2.47217V4.05566H0.972168ZM1.72217 24.885C3.34507 24.885 5.94361 25.0982 8.42155 25.7345C10.9394 26.381 13.1441 27.4174 14.203 28.9302L15.4318 28.07C14.0463 26.0907 11.3766 24.9446 8.79461 24.2816C6.17268 23.6084 3.44583 23.385 1.72217 23.385V24.885ZM14.8174 29.2501H19.1825V27.7501H14.8174V29.2501ZM19.7681 28.9686C20.2412 28.3773 21.5547 27.3485 23.7018 26.4656C25.8249 25.5926 28.7109 24.885 32.2777 24.885V23.385C28.5112 23.385 25.4316 24.1325 23.1314 25.0783C20.8553 26.0142 19.2878 27.1679 18.5968 28.0316L19.7681 28.9686ZM33.0277 24.135V4.05566H31.5277V24.135H33.0277ZM32.2777 3.30566H30.0952V4.80566H32.2777V3.30566Z" fill="url(#paint2_linear_536_1234)"/>
<defs>
<linearGradient id="paint0_linear_536_1234" x1="5.81081" y1="10.3" x2="16.3514" y2="10.3" gradientUnits="userSpaceOnUse">
<stop stop-color="#1CB0AB"/>
<stop offset="1" stop-color="#33A5C9"/>
</linearGradient>
<linearGradient id="paint1_linear_536_1234" x1="28.1892" y1="10.3" x2="17.6486" y2="10.3" gradientUnits="userSpaceOnUse">
<stop stop-color="#1CB0AB"/>
<stop offset="1" stop-color="#33A5C9"/>
</linearGradient>
<linearGradient id="paint2_linear_536_1234" x1="3.78673" y1="13.5279" x2="30.6261" y2="13.5279" gradientUnits="userSpaceOnUse">
<stop stop-color="#1CB0AB"/>
<stop offset="1" stop-color="#33A5C9"/>
</linearGradient>
</defs>
</svg>
