<svg width="24" height="20" viewBox="0 0 24 20" fill="none" xmlns="http://www.w3.org/2000/svg">
<path d="M23.6425 2.93708C22.8075 3.30708 21.9105 3.55708 20.9675 3.67008C21.9405 3.08787 22.6685 2.17154 23.0155 1.09208C22.1014 1.63507 21.1009 2.01727 20.0575 2.22208C19.3559 1.47294 18.4266 0.976403 17.4138 0.809551C16.4011 0.642699 15.3616 0.814868 14.4568 1.29933C13.5519 1.78379 12.8323 2.55344 12.4097 3.48878C11.9871 4.42412 11.8851 5.47283 12.1195 6.47208C10.2672 6.37907 8.45515 5.89763 6.80095 5.05898C5.14674 4.22034 3.68736 3.04324 2.51752 1.60408C2.11752 2.29408 1.88752 3.09408 1.88752 3.94608C1.88708 4.71307 2.07596 5.46832 2.4374 6.14481C2.79885 6.8213 3.32168 7.39812 3.95952 7.82408C3.2198 7.80054 2.4964 7.60066 1.84952 7.24108V7.30108C1.84945 8.37682 2.22156 9.41945 2.90271 10.2521C3.58386 11.0847 4.53209 11.656 5.58652 11.8691C4.90031 12.0548 4.18086 12.0821 3.48252 11.9491C3.78002 12.8747 4.35952 13.6841 5.13989 14.264C5.92026 14.8439 6.86244 15.1653 7.83452 15.1831C6.18436 16.4785 4.14641 17.1812 2.04852 17.1781C1.6769 17.1782 1.3056 17.1565 0.936523 17.1131C3.066 18.4823 5.54486 19.2089 8.07652 19.2061C16.6465 19.2061 21.3315 12.1081 21.3315 5.95208C21.3315 5.75208 21.3265 5.55008 21.3175 5.35008C22.2288 4.69105 23.0154 3.87497 23.6405 2.94008L23.6425 2.93708Z" fill="url(#paint0_linear_350_1360)"/>
<defs>
<linearGradient id="paint0_linear_350_1360" x1="2.47071" y1="7.90024" x2="22.4152" y2="7.90024" gradientUnits="userSpaceOnUse">
<stop stop-color="#1CB0AB"/>
<stop offset="1" stop-color="#33A5C9"/>
</linearGradient>
</defs>
</svg>
