<svg width="19" height="20" viewBox="0 0 19 20" fill="none" xmlns="http://www.w3.org/2000/svg">
<path d="M9.6002 6.87628C7.87989 6.87628 6.47599 8.28019 6.47599 10.0005C6.47599 11.7208 7.87989 13.1247 9.6002 13.1247C11.3205 13.1247 12.7244 11.7208 12.7244 10.0005C12.7244 8.28019 11.3205 6.87628 9.6002 6.87628ZM18.9705 10.0005C18.9705 8.70675 18.9822 7.42472 18.9096 6.13331C18.8369 4.63331 18.4947 3.30206 17.3979 2.20519C16.2986 1.10597 14.9697 0.766127 13.4697 0.693471C12.176 0.620814 10.894 0.632533 9.60255 0.632533C8.3088 0.632533 7.02677 0.620814 5.73536 0.693471C4.23536 0.766127 2.90411 1.10831 1.80724 2.20519C0.708021 3.30441 0.368178 4.63331 0.295521 6.13331C0.222865 7.42706 0.234584 8.7091 0.234584 10.0005C0.234584 11.2919 0.222865 12.5763 0.295521 13.8677C0.368178 15.3677 0.710365 16.6989 1.80724 17.7958C2.90646 18.895 4.23536 19.2349 5.73536 19.3075C7.02911 19.3802 8.31114 19.3685 9.60255 19.3685C10.8963 19.3685 12.1783 19.3802 13.4697 19.3075C14.9697 19.2349 16.301 18.8927 17.3979 17.7958C18.4971 16.6966 18.8369 15.3677 18.9096 13.8677C18.9846 12.5763 18.9705 11.2943 18.9705 10.0005ZM9.6002 14.8075C6.94005 14.8075 4.79318 12.6607 4.79318 10.0005C4.79318 7.34035 6.94005 5.19347 9.6002 5.19347C12.2604 5.19347 14.4072 7.34035 14.4072 10.0005C14.4072 12.6607 12.2604 14.8075 9.6002 14.8075ZM14.6041 6.11925C13.983 6.11925 13.4815 5.61769 13.4815 4.9966C13.4815 4.3755 13.983 3.87394 14.6041 3.87394C15.2252 3.87394 15.7268 4.3755 15.7268 4.9966C15.727 5.14408 15.698 5.29015 15.6417 5.42644C15.5853 5.56273 15.5026 5.68656 15.3984 5.79085C15.2941 5.89513 15.1702 5.97782 15.034 6.03417C14.8977 6.09053 14.7516 6.11944 14.6041 6.11925Z" fill="url(#paint0_linear_504_1411)"/>
<defs>
<linearGradient id="paint0_linear_504_1411" x1="1.49995" y1="7.89255" x2="17.9587" y2="7.89255" gradientUnits="userSpaceOnUse">
<stop stop-color="#1CB0AB"/>
<stop offset="1" stop-color="#33A5C9"/>
</linearGradient>
</defs>
</svg>
