<svg width="15" height="16" viewBox="0 0 15 16" fill="none" xmlns="http://www.w3.org/2000/svg">
<path d="M7.66667 14.6668C11.3486 14.6668 14.3333 11.6821 14.3333 8.00016C14.3333 4.31826 11.3486 1.3335 7.66667 1.3335C3.98477 1.3335 1 4.31826 1 8.00016C1 11.6821 3.98477 14.6668 7.66667 14.6668Z" stroke="#B3B3B3" stroke-width="1.25" stroke-miterlimit="10"/>
<path d="M7.60116 5.10181C7.60116 5.06585 7.63031 5.03671 7.66626 5.03671C7.70221 5.03671 7.73136 5.06585 7.73136 5.10181C7.73136 5.13776 7.70221 5.16691 7.66626 5.16691C7.63031 5.16691 7.60116 5.13776 7.60116 5.10181Z" fill="#B3B3B3" stroke="#B3B3B3" stroke-width="1.7967"/>
<path d="M7.66634 11.3337V7.16699H6.83301" stroke="#B3B3B3" stroke-width="1.25" stroke-miterlimit="10"/>
<path d="M6.50781 11.1885H8.82665" stroke="#B3B3B3" stroke-width="1.25" stroke-miterlimit="10"/>
</svg>
