<svg width="24" height="24" viewBox="0 0 24 24" fill="none" xmlns="http://www.w3.org/2000/svg">
<path d="M1.47449 22.9908V7.52478H22.5255V22.9908H1.47449Z" stroke="#808080" stroke-width="1.5"/>
<path d="M12.9645 22.9908C12.9645 22.9841 12.9645 22.9774 12.9645 22.9706C12.9645 22.9639 12.9645 22.9571 12.9645 22.9503C12.9645 22.9435 12.9645 22.9367 12.9645 22.9299C12.9645 22.9231 12.9645 22.9163 12.9645 22.9094C12.9645 22.9026 12.9645 22.8957 12.9645 22.8888C12.9645 22.882 12.9645 22.8751 12.9645 22.8681C12.9645 22.8612 12.9645 22.8543 12.9645 22.8473C12.9645 22.8404 12.9645 22.8334 12.9645 22.8265C12.9645 22.8195 12.9645 22.8125 12.9645 22.8055C12.9645 22.7984 12.9645 22.7914 12.9645 22.7844C12.9645 22.7773 12.9645 22.7703 12.9645 22.7632C12.9645 22.7561 12.9645 22.749 12.9645 22.7419C12.9645 22.7348 12.9645 22.7276 12.9645 22.7205C12.9645 22.7133 12.9645 22.7062 12.9645 22.699C12.9645 22.6918 12.9645 22.6846 12.9645 22.6774C12.9645 22.6702 12.9645 22.663 12.9645 22.6557C12.9645 22.6485 12.9645 22.6412 12.9645 22.634C12.9645 22.6267 12.9645 22.6194 12.9645 22.6121C12.9645 22.6048 12.9645 22.5975 12.9645 22.5901C12.9645 22.5828 12.9645 22.5754 12.9645 22.5681C12.9645 22.5607 12.9645 22.5533 12.9645 22.5459C12.9645 22.5385 12.9645 22.5311 12.9645 22.5237C12.9645 22.5162 12.9645 22.5088 12.9645 22.5013C12.9645 22.4939 12.9645 22.4864 12.9645 22.4789C12.9645 22.4714 12.9645 22.4639 12.9645 22.4563C12.9645 22.4488 12.9645 22.4413 12.9645 22.4337C12.9645 22.4262 12.9645 22.4186 12.9645 22.411C12.9645 22.4034 12.9645 22.3958 12.9645 22.3882C12.9645 22.3806 12.9645 22.3729 12.9645 22.3653C12.9645 22.3576 12.9645 22.35 12.9645 22.3423C12.9645 22.3346 12.9645 22.3269 12.9645 22.3192C12.9645 22.3115 12.9645 22.3038 12.9645 22.296C12.9645 22.2883 12.9645 22.2805 12.9645 22.2728C12.9645 22.265 12.9645 22.2572 12.9645 22.2494C12.9645 22.2416 12.9645 22.2338 12.9645 22.226C12.9645 22.2181 12.9645 22.2103 12.9645 22.2024C12.9645 22.1946 12.9645 22.1867 12.9645 22.1788C12.9645 22.1709 12.9645 22.163 12.9645 22.1551C12.9645 22.1472 12.9645 22.1392 12.9645 22.1313C12.9645 22.1233 12.9645 22.1154 12.9645 22.1074C12.9645 22.0994 12.9645 22.0914 12.9645 22.0834C12.9645 22.0754 12.9645 22.0674 12.9645 22.0594C12.9645 22.0513 12.9645 22.0433 12.9645 22.0352C12.9645 22.0271 12.9645 22.0191 12.9645 22.011C12.9645 22.0029 12.9645 21.9948 12.9645 21.9866C12.9645 21.9785 12.9645 21.9704 12.9645 21.9622C12.9645 21.9541 12.9645 21.9459 12.9645 21.9377C12.9645 21.9296 12.9645 21.9214 12.9645 21.9132C12.9645 21.9049 12.9645 21.8967 12.9645 21.8885C12.9645 21.8803 12.9645 21.872 12.9645 21.8637C12.9645 21.8555 12.9645 21.8472 12.9645 21.8389C12.9645 21.8306 12.9645 21.8223 12.9645 21.814C12.9645 21.8057 12.9645 21.7973 12.9645 21.789C12.9645 21.7806 12.9645 21.7723 12.9645 21.7639C12.9645 21.7555 12.9645 21.7472 12.9645 21.7388C12.9645 21.7304 12.9645 21.7219 12.9645 21.7135C12.9645 21.7051 12.9645 21.6966 12.9645 21.6882C12.9645 21.6797 12.9645 21.6713 12.9645 21.6628C12.9645 21.6543 12.9645 21.6458 12.9645 21.6373C12.9645 21.6288 12.9645 21.6202 12.9645 21.6117C12.9645 21.6032 12.9645 21.5946 12.9645 21.5861C12.9645 21.5775 12.9645 21.5689 12.9645 21.5603C12.9645 21.5517 12.9645 21.5431 12.9645 21.5345C12.9645 21.5259 12.9645 21.5173 12.9645 21.5086C12.9645 21.5 12.9645 21.4913 12.9645 21.4827C12.9645 21.474 12.9645 21.4653 12.9645 21.4566C12.9645 21.4479 12.9645 21.4392 12.9645 21.4305C12.9645 21.4218 12.9645 21.413 12.9645 21.4043C12.9645 21.3955 12.9645 21.3868 12.9645 21.378C12.9645 21.3692 12.9645 21.3605 12.9645 21.3517C12.9645 21.3429 12.9645 21.3341 12.9645 21.3252C12.9645 21.3164 12.9645 21.3076 12.9645 21.2987C12.9645 21.2899 12.9645 21.281 12.9645 21.2721C12.9645 21.2633 12.9645 21.2544 12.9645 21.2455C12.9645 21.2366 12.9645 21.2277 12.9645 21.2187C12.9645 21.2098 12.9645 21.2009 12.9645 21.1919C12.9645 21.183 12.9645 21.174 12.9645 21.1651C12.9645 21.1561 12.9645 21.1471 12.9645 21.1381C12.9645 21.1291 12.9645 21.1201 12.9645 21.1111C12.9645 21.1021 12.9645 21.093 12.9645 21.084C12.9645 21.0749 12.9645 21.0659 12.9645 21.0568C12.9645 21.0477 12.9645 21.0386 12.9645 21.0295C12.9645 21.0205 12.9645 21.0113 12.9645 21.0022C12.9645 20.9931 12.9645 20.984 12.9645 20.9748C12.9645 20.9657 12.9645 20.9565 12.9645 20.9474C12.9645 20.9382 12.9645 20.929 12.9645 20.9198C12.9645 20.9106 12.9645 20.9014 12.9645 20.8922C12.9645 20.883 12.9645 20.8738 12.9645 20.8646C12.9645 20.8553 12.9645 20.8461 12.9645 20.8368C12.9645 20.8276 12.9645 20.8183 12.9645 20.809C12.9645 20.7997 12.9645 20.7904 12.9645 20.7811C12.9645 20.7718 12.9645 20.7625 12.9645 20.7532C12.9645 20.7438 12.9645 20.7345 12.9645 20.7251C12.9645 20.7158 12.9645 20.7064 12.9645 20.6971C12.9645 20.6877 12.9645 20.6783 12.9645 20.6689C12.9645 20.6595 12.9645 20.6501 12.9645 20.6407C12.9645 20.6313 12.9645 20.6218 12.9645 20.6124C12.9645 20.6029 12.9645 20.5935 12.9645 20.584C12.9645 20.5746 12.9645 20.5651 12.9645 20.5556C12.9645 20.5461 12.9645 20.5366 12.9645 20.5271C12.9645 20.5176 12.9645 20.5081 12.9645 20.4986C12.9645 20.489 12.9645 20.4795 12.9645 20.47C12.9645 20.4604 12.9645 20.4508 12.9645 20.4413C12.9645 20.4317 12.9645 20.4221 12.9645 20.4125C12.9645 20.4029 12.9645 20.3933 12.9645 20.3837C12.9645 20.3741 12.9645 20.3645 12.9645 20.3548C12.9645 20.3452 12.9645 20.3356 12.9645 20.3259C12.9645 20.3162 12.9645 20.3066 12.9645 20.2969C12.9645 20.2872 12.9645 20.2775 12.9645 20.2678C12.9645 20.2581 12.9645 20.2484 12.9645 20.2387C12.9645 20.229 12.9645 20.2193 12.9645 20.2095C12.9645 20.1998 12.9645 20.19 12.9645 20.1803C12.9645 20.1705 12.9645 20.1607 12.9645 20.151C12.9645 20.1412 12.9645 20.1314 12.9645 20.1216C12.9645 20.1118 12.9645 20.102 12.9645 20.0922C12.9645 20.0823 12.9645 20.0725 12.9645 20.0627C12.9645 20.0528 12.9645 20.043 12.9645 20.0331C12.9645 20.0233 12.9645 20.0134 12.9645 20.0035C12.9645 19.9936 12.9645 19.9837 12.9645 19.9738C12.9645 19.9639 12.9645 19.954 12.9645 19.9441C12.9645 19.9342 12.9645 19.9243 12.9645 19.9143C12.9645 19.9044 12.9645 19.8945 12.9645 19.8845C12.9645 19.8745 12.9645 19.8646 12.9645 19.8546C12.9645 19.8446 12.9645 19.8346 12.9645 19.8246C12.9645 19.8146 12.9645 19.8046 12.9645 19.7946C12.9645 19.7846 12.9645 19.7746 12.9645 19.7646C12.9645 19.7545 12.9645 19.7445 12.9645 19.7344C12.9645 19.7244 12.9645 19.7143 12.9645 19.7043C12.9645 19.6942 12.9645 19.6841 12.9645 19.674C12.9645 19.6639 12.9645 19.6538 12.9645 19.6437C12.9645 19.6336 12.9645 19.6235 12.9645 19.6134C12.9645 19.6033 12.9645 19.5931 12.9645 19.583C12.9645 19.5729 12.9645 19.5627 12.9645 19.5525C12.9645 19.5424 12.9645 19.5322 12.9645 19.522C12.9645 19.5119 12.9645 19.5017 12.9645 19.4915C12.9645 19.4813 12.9645 19.4711 12.9645 19.4609C12.9645 19.4507 12.9645 19.4404 12.9645 19.4302C12.9645 19.42 12.9645 19.4097 12.9645 19.3995C12.9645 19.3892 12.9645 19.379 12.9645 19.3687C12.9645 19.3585 12.9645 19.3482 12.9645 19.3379C12.9645 19.3276 12.9645 19.3173 12.9645 19.307C12.9645 19.2968 12.9645 19.2864 12.9645 19.2761C12.9645 19.2658 12.9645 19.2555 12.9645 19.2452C12.9645 19.2348 12.9645 19.2245 12.9645 19.2141C12.9645 19.2038 12.9645 19.1934 12.9645 19.1831C12.9645 19.1727 12.9645 19.1623 12.9645 19.152C12.9645 19.1416 12.9645 19.1312 12.9645 19.1208C12.9645 19.1104 12.9645 19.1 12.9645 19.0896C12.9645 19.0792 12.9645 19.0688 12.9645 19.0583C12.9645 19.0479 12.9645 19.0375 12.9645 19.027C12.9645 19.0166 12.9645 19.0061 12.9645 18.9957C12.9645 18.9852 12.9645 18.9748 12.9645 18.9643C12.9645 18.9538 12.9645 18.9433 12.9645 18.9328C12.9645 18.9223 12.9645 18.9118 12.9645 18.9013C12.9645 18.8908 12.9645 18.8803 12.9645 18.8698C12.9645 18.8593 12.9645 18.8488 12.9645 18.8382C12.9645 18.8277 12.9645 18.8171 12.9645 18.8066C12.9645 18.796 12.9645 18.7855 12.9645 18.7749C12.9645 18.7644 12.9645 18.7538 12.9645 18.7432C12.9645 18.7326 12.9645 18.722 12.9645 18.7115C12.9645 18.7009 12.9645 18.6903 12.9645 18.6796C12.9645 18.669 12.9645 18.6584 12.9645 18.6478C12.9645 18.6372 12.9645 18.6266 12.9645 18.6159C12.9645 18.6053 12.9645 18.5946 12.9645 18.584C12.9645 18.5733 12.9645 18.5627 12.9645 18.552C12.9645 18.5414 12.9645 18.5307 12.9645 18.52C12.9645 18.5093 12.9645 18.4986 12.9645 18.4879C12.9645 18.4773 12.9645 18.4666 12.9645 18.4559C12.9645 18.4452 12.9645 18.4344 12.9645 18.4237C12.9645 18.413 12.9645 18.4023 12.9645 18.3915C12.9645 18.3808 12.9645 18.3701 12.9645 18.3593C12.9645 18.3486 12.9645 18.3378 12.9645 18.3271C12.9645 18.3163 12.9645 18.3056 12.9645 18.2948C12.9645 18.284 12.9645 18.2732 12.9645 18.2625C12.9645 18.2517 12.9645 18.2409 12.9645 18.2301C12.9645 18.2193 12.9645 18.2085 12.9645 18.1977C12.9645 18.1869 12.9645 18.1761 12.9645 18.1652C12.9645 18.1544 12.9645 18.1436 12.9645 18.1328C12.9645 18.1219 12.9645 18.1111 12.9645 18.1002C12.9645 18.0894 12.9645 18.0785 12.9645 18.0677C12.9645 18.0568 12.9645 18.046 12.9645 18.0351C12.9645 18.0242 12.9645 18.0133 12.9645 18.0025C12.9645 17.9916 12.9645 17.9807 12.9645 17.9698C12.9645 17.9589 12.9645 17.948 12.9645 17.9371C12.9645 17.9262 12.9645 17.9153 12.9645 17.9044C12.9645 17.8935 12.9645 17.8825 12.9645 17.8716C12.9645 17.8607 12.9645 17.8498 12.9645 17.8388C12.9645 17.8279 12.9645 17.8169 12.9645 17.806C12.9645 17.795 12.9645 17.7841 12.9645 17.7731C12.9645 17.7622 12.9645 17.7512 12.9645 17.7402C12.9645 17.7293 12.9645 17.7183 12.9645 17.7073C12.9645 17.6963 12.9645 17.6853 12.9645 17.6743C12.9645 17.6633 12.9645 17.6523 12.9645 17.6413C12.9645 17.6303 12.9645 17.6193 12.9645 17.6083C12.9645 17.5973 12.9645 17.5863 12.9645 17.5753C12.9645 17.5642 12.9645 17.5532 12.9645 17.5422C12.9645 17.5312 12.9645 17.5201 12.9645 17.5091C12.9645 17.498 12.9645 17.487 12.9645 17.4759C12.9645 17.4649 12.9645 17.4538 12.9645 17.4428C12.9645 17.4317 12.9645 17.4206 12.9645 17.4096C12.9645 17.3985 12.9645 17.3874 12.9645 17.3763C12.9645 17.3652 12.9645 17.3542 12.9645 17.3431C12.9645 17.332 12.9645 17.3209 12.9645 17.3098C12.9645 17.2987 12.9645 17.2876 12.9645 17.2765C12.9645 17.2654 12.9645 17.2542 12.9645 17.2431C12.9645 17.232 12.9645 17.2209 12.9645 17.2098C12.9645 17.1986 12.9645 17.1875 12.9645 17.1764C12.9645 17.1652 12.9645 17.1541 12.9645 17.1429C12.9645 17.1318 12.9645 17.1207 12.9645 17.1095C12.9645 17.0983 12.9645 17.0872 12.9645 17.076C12.9645 17.0649 12.9645 17.0537 12.9645 17.0425C12.9645 17.0314 12.9645 17.0202 12.9645 17.009C12.9645 16.9978 12.9645 16.9867 12.9645 16.9755C12.9645 16.9643 12.9645 16.9531 12.9645 16.9419C12.9645 16.9307 12.9645 16.9195 12.9645 16.9083C12.9645 16.8971 12.9645 16.8859 12.9645 16.8747C12.9645 16.8635 12.9645 16.8523 12.9645 16.8411C12.9645 16.8298 12.9645 16.8186 12.9645 16.8074C12.9645 16.7962 12.9645 16.785 12.9645 16.7737C12.9645 16.7625 12.9645 16.7513 12.9645 16.74C12.9645 16.7288 12.9645 16.7175 12.9645 16.7063C12.9645 16.6951 12.9645 16.6838 12.9645 16.6726C12.9645 16.6613 12.9645 16.65 12.9645 16.6388C12.9645 16.6275 12.9645 16.6163 12.9645 16.605C12.9645 16.5937 12.9645 16.5825 12.9645 16.5712C12.9645 16.5599 12.9645 16.5487 12.9645 16.5374C12.9645 16.5261 12.9645 16.5148 12.9645 16.5035C12.9645 16.4923 12.9645 16.481 12.9645 16.4697C12.9645 16.4584 12.9645 16.4471 12.9645 16.4358C12.9645 16.4245 12.9645 16.4132 12.9645 16.4019C12.9645 16.3906 12.9645 16.3793 12.9645 16.368C12.9645 16.3567 12.9645 16.3454 12.9645 16.3341C12.9645 16.3227 12.9645 16.3114 12.9645 16.3001C12.9645 16.2888 12.9645 16.2775 12.9645 16.2661C12.9645 16.2548 12.9645 16.2435 12.9645 16.2322C12.9645 16.2208 12.9645 16.2095 12.9645 16.1982C12.9645 16.1868 12.9645 16.1755 12.9645 16.1642C12.9645 16.1528 12.9645 16.1415 12.9645 16.1301C12.9645 16.1188 12.9645 16.1074 12.9645 16.0961C12.9645 16.0847 12.9645 16.0734 12.9645 16.062C12.9645 16.0507 12.9645 16.0393 12.9645 16.028C12.9645 16.0166 12.9645 16.0052 12.9645 15.9939C12.9645 15.9825 12.9645 15.9712 12.9645 15.9598C12.9645 15.9484 12.9645 15.9371 12.9645 15.9257C12.9645 15.9143 12.9645 15.9029 12.9645 15.8916C12.9645 15.8802 12.9645 15.8688 12.9645 15.8574C12.9645 15.846 12.9645 15.8347 12.9645 15.8233C12.9645 15.8119 12.9645 15.8005 12.9645 15.7891C12.9645 15.7777 12.9645 15.7664 12.9645 15.755C12.9645 15.7436 12.9645 15.7322 12.9645 15.7208C12.9645 15.7094 12.9645 15.698 12.9645 15.6866C12.9645 15.6752 12.9645 15.6638 12.9645 15.6524C12.9645 15.641 12.9645 15.6296 12.9645 15.6182C12.9645 15.6068 12.9645 15.5954 12.9645 15.584C12.9645 15.5726 12.9645 15.5612 12.9645 15.5498C12.9645 15.5384 12.9645 15.5269 12.9645 15.5155C12.9645 15.5041 12.9645 15.4927 12.9645 15.4813C12.9645 15.4699 12.9645 15.4585 12.9645 15.4471C12.9645 15.4356 12.9645 15.4242 12.9645 15.4128C12.9645 15.4014 12.9645 15.39 12.9645 15.3785C12.9645 15.3671 12.9645 15.3557 12.9645 15.3443C12.9645 15.3328 12.9645 15.3214 12.9645 15.31C12.9645 15.2986 12.9645 15.2871 12.9645 15.2757C12.9645 15.2643 12.9645 15.2529 12.9645 15.2414C12.9645 15.23 12.9645 15.2186 12.9645 15.2071C12.9645 15.1957 12.9645 15.1843 12.9645 15.1729C12.9645 15.1614 12.9645 15.15 12.9645 15.1386C12.9645 15.1271 12.9645 15.1157 12.9645 15.1043C12.9645 15.0928 12.9645 15.0814 12.9645 15.07C12.9645 15.0585 12.9645 15.0471 12.9645 15.0356C12.9645 15.0242 12.9645 15.0128 12.9645 15.0013C12.9645 14.9899 12.9645 14.9785 12.9645 14.967C12.9645 14.9556 12.9645 14.9441 12.9645 14.9327C12.9645 14.9213 12.9645 14.9098 12.9645 14.8984C12.9645 14.887 12.9645 14.8755 12.9645 14.8641C12.9645 14.8526 12.9645 14.8412 12.9645 14.8298C12.9645 14.8183 12.9645 14.8069 12.9645 14.7954C12.9645 14.784 12.9645 14.7726 12.9645 14.7611C12.9645 14.7497 12.9645 14.7382 12.9645 14.7268C12.9645 14.7154 12.9645 14.7039 12.9645 14.6925C12.9645 14.681 12.9645 14.6696 12.9645 14.6582C12.9645 14.6467 12.9645 14.6353 12.9645 14.6239C12.9645 14.6124 12.9645 14.601 12.9645 14.5895C12.9645 14.5781 12.9645 14.5667 12.9645 14.5552C12.9645 14.5438 12.9645 14.5324 12.9645 14.5209C12.9645 14.5095 12.9645 14.498 12.9645 14.4866C12.9645 14.4752 12.9645 14.4637 12.9645 14.4523C12.9645 14.4409 12.9645 14.4294 12.9645 14.418C12.9645 14.4066 12.9645 14.3951 12.9645 14.3837C12.9645 14.3723 12.9645 14.3609 12.9645 14.3494C12.9645 14.338 12.9645 14.3266 12.9645 14.3151C12.9645 14.3037 12.9645 14.2923 12.9645 14.2809C12.9645 14.2694 12.9645 14.258 12.9645 14.2466C12.9645 14.2352 12.9645 14.2237 12.9645 14.2123C12.9645 14.2009 12.9645 14.1895 12.9645 14.178C12.9645 14.1666 12.9645 14.1552 12.9645 14.1438C12.9645 14.1324 12.9645 14.121 12.9645 14.1095C12.9645 14.0981 12.9645 14.0867 12.9645 14.0753C12.9645 14.0639 12.9645 14.0525 12.9645 14.0411C12.9645 14.0296 12.9645 14.0182 12.9645 14.0068C12.9645 13.9954 12.9645 13.984 12.9645 13.9726C12.9645 13.9612 12.9645 13.9498 12.9645 13.9384C12.9645 13.927 12.9645 13.9156 12.9645 13.9042C12.9645 13.8928 12.9645 13.8814 12.9645 13.87C12.9645 13.8586 12.9645 13.8472 12.9645 13.8358C12.9645 13.8244 12.9645 13.813 12.9645 13.8016C12.9645 13.7903 12.9645 13.7789 12.9645 13.7675C12.9645 13.7561 12.9645 13.7447 12.9645 13.7333C12.9645 13.722 12.9645 13.7106 12.9645 13.6992C12.9645 13.6878 12.9645 13.6764 12.9645 13.6651C12.9645 13.6537 12.9645 13.6423 12.9645 13.631C12.9645 13.6196 12.9645 13.6082 12.9645 13.5968C12.9645 13.5855 12.9645 13.5741 12.9645 13.5628C12.9645 13.5514 12.9645 13.54 12.9645 13.5287C12.9645 13.5173 12.9645 13.506 12.9645 13.4946C12.9645 13.4833 12.9645 13.4719 12.9645 13.4606C12.9645 13.4492 12.9645 13.4379 12.9645 13.4265C12.9645 13.4152 12.9645 13.4038 12.9645 13.3925C12.9645 13.3812 12.9645 13.3698 12.9645 13.3585C12.9645 13.3472 12.9645 13.3358 12.9645 13.3245C12.9645 13.3132 12.9645 13.3019 12.9645 13.2905C12.9645 13.2792 12.9645 13.2679 12.9645 13.2566C12.9645 13.2453 12.9645 13.2339 12.9645 13.2226C12.9645 13.2113 12.9645 13.2 12.9645 13.1887C12.9645 13.1774 12.9645 13.1661 12.9645 13.1548C12.9645 13.1435 12.9645 13.1322 12.9645 13.1209C12.9645 13.1096 12.9645 13.0983 12.9645 13.087C12.9645 13.0757 12.9645 13.0645 12.9645 13.0532C12.9645 13.0419 12.9645 13.0306 12.9645 13.0193C12.9645 13.0081 12.9645 12.9968 12.9645 12.9855C12.9645 12.9743 12.9645 12.963 12.9645 12.9517C12.9645 12.9405 12.9645 12.9292 12.9645 12.918C12.9645 12.9067 12.9645 12.8954 12.9645 12.8842C12.9645 12.8729 12.9645 12.8617 12.9645 12.8505C12.9645 12.8392 12.9645 12.828 12.9645 12.8167C12.9645 12.8055 12.9645 12.7943 12.9645 12.783C12.9645 12.7718 12.9645 12.7606 12.9645 12.7494C12.9645 12.7382 12.9645 12.7269 12.9645 12.7157C12.9645 12.7045 12.9645 12.6933 12.9645 12.6821C12.9645 12.6709 12.9645 12.6597 12.9645 12.6485C12.9645 12.6373 12.9645 12.6261 12.9645 12.6149C12.9645 12.6037 12.9645 12.5925 12.9645 12.5813C12.9645 12.5702 12.9645 12.559 12.9645 12.5478C12.9645 12.5366 12.9645 12.5255 12.9645 12.5143C12.9645 12.5031 12.9645 12.492 12.9645 12.4808C12.9645 12.4697 12.9645 12.4585 12.9645 12.4474C12.9645 12.4362 12.9645 12.4251 12.9645 12.4139C12.9645 12.4028 12.9645 12.3916 12.9645 12.3805C12.9645 12.3694 12.9645 12.3582 12.9645 12.3471C12.9645 12.336 12.9645 12.3249 12.9645 12.3138C12.9645 12.3026 12.9645 12.2915 12.9645 12.2804C12.9645 12.2693 12.9645 12.2582 12.9645 12.2471C12.9645 12.236 12.9645 12.2249 12.9645 12.2138C12.9645 12.2028 12.9645 12.1917 12.9645 12.1806C12.9645 12.1695 12.9645 12.1584 12.9645 12.1474C12.9645 12.1363 12.9645 12.1252 12.9645 12.1142C12.9645 12.1031 12.9645 12.0921 12.9645 12.081C12.9645 12.07 12.9645 12.0589 12.9645 12.0479C12.9645 12.0368 12.9645 12.0258 12.9645 12.0148C12.9645 12.0038 12.9645 11.9927 12.9645 11.9817C12.9645 11.9707 12.9645 11.9597 12.9645 11.9487C12.9645 11.9377 12.9645 11.9267 12.9645 11.9157C12.9645 11.9047 12.9645 11.8937 12.9645 11.8827C12.9645 11.8717 12.9645 11.8607 12.9645 11.8497C12.9645 11.8387 12.9645 11.8278 12.9645 11.8168C12.9645 11.8058 12.9645 11.7949 12.9645 11.7839C12.9645 11.773 12.9645 11.762 12.9645 11.7511C12.9645 11.7401 12.9645 11.7292 12.9645 11.7182C12.9645 11.7073 12.9645 11.6964 12.9645 11.6855C12.9645 11.6745 12.9645 11.6636 12.9645 11.6527C12.9645 11.6418 12.9645 11.6309 12.9645 11.62C12.9645 11.6091 12.9645 11.5982 12.9645 11.5873C12.9645 11.5764 12.9645 11.5655 12.9645 11.5547C12.9645 11.5438 12.9645 11.5329 12.9645 11.522C12.9645 11.5112 12.9645 11.5003 12.9645 11.4895C12.9645 11.4786 12.9645 11.4678 12.9645 11.4569C12.9645 11.4461 12.9645 11.4352 12.9645 11.4244C12.9645 11.4136 12.9645 11.4028 12.9645 11.3919C12.9645 11.3811 12.9645 11.3703 12.9645 11.3595C12.9645 11.3487 12.9645 11.3379 12.9645 11.3271C12.9645 11.3163 12.9645 11.3055 12.9645 11.2948C12.9645 11.284 12.9645 11.2732 12.9645 11.2624C12.9645 11.2517 12.9645 11.2409 12.9645 11.2302C12.9645 11.2194 12.9645 11.2087 12.9645 11.1979C12.9645 11.1872 12.9645 11.1765 12.9645 11.1657C12.9645 11.155 12.9645 11.1443 12.9645 11.1336C12.9645 11.1229 12.9645 11.1121 12.9645 11.1014C12.9645 11.0907 12.9645 11.0801 12.9645 11.0694C12.9645 11.0587 12.9645 11.048 12.9645 11.0373C12.9645 11.0267 12.9645 11.016 12.9645 11.0053C12.9645 10.9947 12.9645 10.984 12.9645 10.9734C12.9645 10.9627 12.9645 10.9521 12.9645 10.9415C12.9645 10.9308 12.9645 10.9202 12.9645 10.9096C12.9645 10.899 12.9645 10.8884 12.9645 10.8777C12.9645 10.8671 12.9645 10.8565 12.9645 10.846C12.9645 10.8354 12.9645 10.8248 12.9645 10.8142C12.9645 10.8036 12.9645 10.7931 12.9645 10.7825C12.9645 10.772 12.9645 10.7614 12.9645 10.7509C12.9645 10.7403 12.9645 10.7298 12.9645 10.7192C12.9645 10.7087 12.9645 10.6982 12.9645 10.6877C12.9645 10.6772 12.9645 10.6667 12.9645 10.6562C12.9645 10.6457 12.9645 10.6352 12.9645 10.6247C12.9645 10.6142 12.9645 10.6037 12.9645 10.5933C12.9645 10.5828 12.9645 10.5723 12.9645 10.5619C12.9645 10.5514 12.9645 10.541 12.9645 10.5305C12.9645 10.5201 12.9645 10.5097 12.9645 10.4992C12.9645 10.4888 12.9645 10.4784 12.9645 10.468C12.9645 10.4576 12.9645 10.4472 12.9645 10.4368C12.9645 10.4264 12.9645 10.416 12.9645 10.4057C12.9645 10.3953 12.9645 10.3849 12.9645 10.3746C12.9645 10.3642 12.9645 10.3539 12.9645 10.3435C12.9645 10.3332 12.9645 10.3228 12.9645 10.3125C12.9645 10.3022 12.9645 10.2919 12.9645 10.2816C12.9645 10.2713 12.9645 10.261 12.9645 10.2507C12.9645 10.2404 12.9645 10.2301 12.9645 10.2198C12.9645 10.2095 12.9645 10.1993 12.9645 10.189C12.9645 10.1788 12.9645 10.1685 12.9645 10.1583C12.9645 10.148 12.9645 10.1378 12.9645 10.1276C12.9645 10.1173 12.9645 10.1071 12.9645 10.0969C12.9645 10.0867 12.9645 10.0765 12.9645 10.0663C12.9645 10.0561 12.9645 10.046 12.9645 10.0358C12.9645 10.0256 12.9645 10.0155 12.9645 10.0053C12.9645 9.99515 12.9645 9.98501 12.9645 9.97487C12.9645 9.96474 12.9645 9.95461 12.9645 9.94449C12.9645 9.93437 12.9645 9.92426 12.9645 9.91416C12.9645 9.90407 12.9645 9.89398 12.9645 9.88389C12.9645 9.87381 12.9645 9.86374 12.9645 9.85368C12.9645 9.84361 12.9645 9.83356 12.9645 9.82352C12.9645 9.81347 12.9645 9.80344 12.9645 9.79341C12.9645 9.78339 12.9645 9.77337 12.9645 9.76336C12.9645 9.75335 12.9645 9.74336 12.9645 9.73337C12.9645 9.72338 12.9645 9.7134 12.9645 9.70343C12.9645 9.69346 12.9645 9.6835 12.9645 9.67355C12.9645 9.6636 12.9645 9.65366 12.9645 9.64373C12.9645 9.6338 12.9645 9.62388 12.9645 9.61397C12.9645 9.60405 12.9645 9.59415 12.9645 9.58426C12.9645 9.57437 12.9645 9.56448 12.9645 9.55461C12.9645 9.54474 12.9645 9.53487 12.9645 9.52502C12.9645 9.51517 12.9645 9.50533 12.9645 9.49549C12.9645 9.48566 12.9645 9.47584 12.9645 9.46602C12.9645 9.45621 12.9645 9.44641 12.9645 9.43661C12.9645 9.42682 12.9645 9.41704 12.9645 9.40726C12.9645 9.39749 12.9645 9.38773 12.9645 9.37797C12.9645 9.36822 12.9645 9.35848 12.9645 9.34875C12.9645 9.33901 12.9645 9.32929 12.9645 9.31958C12.9645 9.30987 12.9645 9.30017 12.9645 9.29047C12.9645 9.28078 12.9645 9.2711 12.9645 9.26143C12.9645 9.25176 12.9645 9.2421 12.9645 9.23245C12.9645 9.2228 12.9645 9.21316 12.9645 9.20354C12.9645 9.19391 12.9645 9.18429 12.9645 9.17468C12.9645 9.16507 12.9645 9.15548 12.9645 9.14589C12.9645 9.1363 12.9645 9.12673 12.9645 9.11716C12.9645 9.1076 12.9645 9.09805 12.9645 9.0885C12.9645 9.07896 12.9645 9.06943 12.9645 9.05991C12.9645 9.05039 12.9645 9.04087 12.9645 9.03137C12.9645 9.02188 12.9645 9.01239 12.9645 9.00291C12.9645 8.99343 12.9645 8.98396 12.9645 8.97451C12.9645 8.96505 12.9645 8.95561 12.9645 8.94617C12.9645 8.93674 12.9645 8.92732 12.9645 8.91791C12.9645 8.9085 12.9645 8.8991 12.9645 8.88971C12.9645 8.88032 12.9645 8.87094 12.9645 8.86157C12.9645 8.85221 12.9645 8.84285 12.9645 8.83351C12.9645 8.82416 12.9645 8.81483 12.9645 8.80551C12.9645 8.79619 12.9645 8.78688 12.9645 8.77758C12.9645 8.76828 12.9645 8.759 12.9645 8.74972C12.9645 8.74045 12.9645 8.73118 12.9645 8.72193C12.9645 8.71268 12.9645 8.70344 12.9645 8.69421C12.9645 8.68498 12.9645 8.67577 12.9645 8.66656C12.9645 8.65735 12.9645 8.64816 12.9645 8.63898C12.9645 8.6298 12.9645 8.62063 12.9645 8.61147C12.9645 8.60231 12.9645 8.59316 12.9645 8.58403C12.9645 8.57489 12.9645 8.56577 12.9645 8.55666C12.9645 8.54755 12.9645 8.53845 12.9645 8.52937C12.9645 8.52028 12.9645 8.5112 12.9645 8.50214C12.9645 8.49308 12.9645 8.48403 12.9645 8.47499C12.9645 8.46595 12.9645 8.45693 12.9645 8.44791C12.9645 8.4389 12.9645 8.4299 12.9645 8.42091C12.9645 8.41192 12.9645 8.40294 12.9645 8.39397C12.9645 8.38501 12.9645 8.37606 12.9645 8.36712C12.9645 8.35818 12.9645 8.34925 12.9645 8.34033C12.9645 8.33142 12.9645 8.32252 12.9645 8.31363C12.9645 8.30474 12.9645 8.29586 12.9645 8.28699C12.9645 8.27813 12.9645 8.26927 12.9645 8.26043C12.9645 8.25159 12.9645 8.24277 12.9645 8.23395C12.9645 8.22514 12.9645 8.21634 12.9645 8.20755C12.9645 8.19876 12.9645 8.18998 12.9645 8.18122C12.9645 8.17245 12.9645 8.1637 12.9645 8.15496C12.9645 8.14623 12.9645 8.1375 12.9645 8.12879C12.9645 8.12008 12.9645 8.11138 12.9645 8.10269C12.9645 8.09401 12.9645 8.08533 12.9645 8.07667C12.9645 8.06801 12.9645 8.05937 12.9645 8.05073C12.9645 8.0421 12.9645 8.03348 12.9645 8.02487C12.9645 8.01626 12.9645 8.00767 12.9645 7.99909C12.9645 7.99051 12.9645 7.98194 12.9645 7.97338C12.9645 7.96483 12.9645 7.95629 12.9645 7.94776C12.9645 7.93923 12.9645 7.93072 12.9645 7.92222C12.9645 7.91372 12.9645 7.90523 12.9645 7.89675C12.9645 7.88828 12.9645 7.87982 12.9645 7.87137C12.9645 7.86293 12.9645 7.85449 12.9645 7.84607C12.9645 7.83765 12.9645 7.82925 12.9645 7.82085C12.9645 7.81246 12.9645 7.80408 12.9645 7.79572C12.9645 7.78735 12.9645 7.779 12.9645 7.77066C12.9645 7.76233 12.9645 7.754 12.9645 7.74569C12.9645 7.73738 12.9645 7.72909 12.9645 7.7208C12.9645 7.71252 12.9645 7.70425 12.9645 7.696C12.9645 7.68775 12.9645 7.67951 12.9645 7.67128C12.9645 7.66305 12.9645 7.65484 12.9645 7.64664C12.9645 7.63845 12.9645 7.63026 12.9645 7.62209C12.9645 7.61392 12.9645 7.60577 12.9645 7.59763C12.9645 7.58949 12.9645 7.58136 12.9645 7.57325C12.9645 7.56513 12.9645 7.55703 12.9645 7.54895C12.9645 7.54087 12.9645 7.5328 12.9645 7.52474H11.4645C11.4645 7.5328 11.4645 7.54087 11.4645 7.54895C11.4645 7.55703 11.4645 7.56513 11.4645 7.57325C11.4645 7.58136 11.4645 7.58949 11.4645 7.59763C11.4645 7.60577 11.4645 7.61392 11.4645 7.62209C11.4645 7.63026 11.4645 7.63845 11.4645 7.64664C11.4645 7.65484 11.4645 7.66305 11.4645 7.67128C11.4645 7.67951 11.4645 7.68775 11.4645 7.696C11.4645 7.70425 11.4645 7.71252 11.4645 7.7208C11.4645 7.72909 11.4645 7.73738 11.4645 7.74569C11.4645 7.754 11.4645 7.76233 11.4645 7.77066C11.4645 7.779 11.4645 7.78735 11.4645 7.79572C11.4645 7.80408 11.4645 7.81246 11.4645 7.82085C11.4645 7.82925 11.4645 7.83765 11.4645 7.84607C11.4645 7.85449 11.4645 7.86293 11.4645 7.87137C11.4645 7.87982 11.4645 7.88828 11.4645 7.89675C11.4645 7.90523 11.4645 7.91372 11.4645 7.92222C11.4645 7.93072 11.4645 7.93923 11.4645 7.94776C11.4645 7.95629 11.4645 7.96483 11.4645 7.97338C11.4645 7.98194 11.4645 7.99051 11.4645 7.99909C11.4645 8.00767 11.4645 8.01626 11.4645 8.02487C11.4645 8.03348 11.4645 8.0421 11.4645 8.05073C11.4645 8.05937 11.4645 8.06801 11.4645 8.07667C11.4645 8.08533 11.4645 8.09401 11.4645 8.10269C11.4645 8.11138 11.4645 8.12008 11.4645 8.12879C11.4645 8.1375 11.4645 8.14623 11.4645 8.15496C11.4645 8.1637 11.4645 8.17245 11.4645 8.18122C11.4645 8.18998 11.4645 8.19876 11.4645 8.20755C11.4645 8.21634 11.4645 8.22514 11.4645 8.23395C11.4645 8.24277 11.4645 8.25159 11.4645 8.26043C11.4645 8.26927 11.4645 8.27813 11.4645 8.28699C11.4645 8.29586 11.4645 8.30474 11.4645 8.31363C11.4645 8.32252 11.4645 8.33142 11.4645 8.34033C11.4645 8.34925 11.4645 8.35818 11.4645 8.36712C11.4645 8.37606 11.4645 8.38501 11.4645 8.39397C11.4645 8.40294 11.4645 8.41192 11.4645 8.42091C11.4645 8.4299 11.4645 8.4389 11.4645 8.44791C11.4645 8.45693 11.4645 8.46595 11.4645 8.47499C11.4645 8.48403 11.4645 8.49308 11.4645 8.50214C11.4645 8.5112 11.4645 8.52028 11.4645 8.52937C11.4645 8.53845 11.4645 8.54755 11.4645 8.55666C11.4645 8.56577 11.4645 8.57489 11.4645 8.58403C11.4645 8.59316 11.4645 8.60231 11.4645 8.61147C11.4645 8.62063 11.4645 8.6298 11.4645 8.63898C11.4645 8.64816 11.4645 8.65735 11.4645 8.66656C11.4645 8.67577 11.4645 8.68498 11.4645 8.69421C11.4645 8.70344 11.4645 8.71268 11.4645 8.72193C11.4645 8.73118 11.4645 8.74045 11.4645 8.74972C11.4645 8.759 11.4645 8.76828 11.4645 8.77758C11.4645 8.78688 11.4645 8.79619 11.4645 8.80551C11.4645 8.81483 11.4645 8.82416 11.4645 8.83351C11.4645 8.84285 11.4645 8.85221 11.4645 8.86157C11.4645 8.87094 11.4645 8.88032 11.4645 8.88971C11.4645 8.8991 11.4645 8.9085 11.4645 8.91791C11.4645 8.92732 11.4645 8.93674 11.4645 8.94617C11.4645 8.95561 11.4645 8.96505 11.4645 8.97451C11.4645 8.98396 11.4645 8.99343 11.4645 9.00291C11.4645 9.01239 11.4645 9.02188 11.4645 9.03137C11.4645 9.04087 11.4645 9.05039 11.4645 9.05991C11.4645 9.06943 11.4645 9.07896 11.4645 9.0885C11.4645 9.09805 11.4645 9.1076 11.4645 9.11716C11.4645 9.12673 11.4645 9.1363 11.4645 9.14589C11.4645 9.15548 11.4645 9.16507 11.4645 9.17468C11.4645 9.18429 11.4645 9.19391 11.4645 9.20354C11.4645 9.21316 11.4645 9.2228 11.4645 9.23245C11.4645 9.2421 11.4645 9.25176 11.4645 9.26143C11.4645 9.2711 11.4645 9.28078 11.4645 9.29047C11.4645 9.30017 11.4645 9.30987 11.4645 9.31958C11.4645 9.32929 11.4645 9.33901 11.4645 9.34875C11.4645 9.35848 11.4645 9.36822 11.4645 9.37797C11.4645 9.38773 11.4645 9.39749 11.4645 9.40726C11.4645 9.41704 11.4645 9.42682 11.4645 9.43661C11.4645 9.44641 11.4645 9.45621 11.4645 9.46602C11.4645 9.47584 11.4645 9.48566 11.4645 9.49549C11.4645 9.50533 11.4645 9.51517 11.4645 9.52502C11.4645 9.53487 11.4645 9.54474 11.4645 9.55461C11.4645 9.56448 11.4645 9.57437 11.4645 9.58426C11.4645 9.59415 11.4645 9.60405 11.4645 9.61397C11.4645 9.62388 11.4645 9.6338 11.4645 9.64373C11.4645 9.65366 11.4645 9.6636 11.4645 9.67355C11.4645 9.6835 11.4645 9.69346 11.4645 9.70343C11.4645 9.7134 11.4645 9.72338 11.4645 9.73337C11.4645 9.74336 11.4645 9.75335 11.4645 9.76336C11.4645 9.77337 11.4645 9.78339 11.4645 9.79341C11.4645 9.80344 11.4645 9.81347 11.4645 9.82352C11.4645 9.83356 11.4645 9.84361 11.4645 9.85368C11.4645 9.86374 11.4645 9.87381 11.4645 9.88389C11.4645 9.89398 11.4645 9.90407 11.4645 9.91416C11.4645 9.92426 11.4645 9.93437 11.4645 9.94449C11.4645 9.95461 11.4645 9.96474 11.4645 9.97487C11.4645 9.98501 11.4645 9.99515 11.4645 10.0053C11.4645 10.0155 11.4645 10.0256 11.4645 10.0358C11.4645 10.046 11.4645 10.0561 11.4645 10.0663C11.4645 10.0765 11.4645 10.0867 11.4645 10.0969C11.4645 10.1071 11.4645 10.1173 11.4645 10.1276C11.4645 10.1378 11.4645 10.148 11.4645 10.1583C11.4645 10.1685 11.4645 10.1788 11.4645 10.189C11.4645 10.1993 11.4645 10.2095 11.4645 10.2198C11.4645 10.2301 11.4645 10.2404 11.4645 10.2507C11.4645 10.261 11.4645 10.2713 11.4645 10.2816C11.4645 10.2919 11.4645 10.3022 11.4645 10.3125C11.4645 10.3228 11.4645 10.3332 11.4645 10.3435C11.4645 10.3539 11.4645 10.3642 11.4645 10.3746C11.4645 10.3849 11.4645 10.3953 11.4645 10.4057C11.4645 10.416 11.4645 10.4264 11.4645 10.4368C11.4645 10.4472 11.4645 10.4576 11.4645 10.468C11.4645 10.4784 11.4645 10.4888 11.4645 10.4992C11.4645 10.5097 11.4645 10.5201 11.4645 10.5305C11.4645 10.541 11.4645 10.5514 11.4645 10.5619C11.4645 10.5723 11.4645 10.5828 11.4645 10.5933C11.4645 10.6037 11.4645 10.6142 11.4645 10.6247C11.4645 10.6352 11.4645 10.6457 11.4645 10.6562C11.4645 10.6667 11.4645 10.6772 11.4645 10.6877C11.4645 10.6982 11.4645 10.7087 11.4645 10.7192C11.4645 10.7298 11.4645 10.7403 11.4645 10.7509C11.4645 10.7614 11.4645 10.772 11.4645 10.7825C11.4645 10.7931 11.4645 10.8036 11.4645 10.8142C11.4645 10.8248 11.4645 10.8354 11.4645 10.846C11.4645 10.8565 11.4645 10.8671 11.4645 10.8777C11.4645 10.8884 11.4645 10.899 11.4645 10.9096C11.4645 10.9202 11.4645 10.9308 11.4645 10.9415C11.4645 10.9521 11.4645 10.9627 11.4645 10.9734C11.4645 10.984 11.4645 10.9947 11.4645 11.0053C11.4645 11.016 11.4645 11.0267 11.4645 11.0373C11.4645 11.048 11.4645 11.0587 11.4645 11.0694C11.4645 11.0801 11.4645 11.0907 11.4645 11.1014C11.4645 11.1121 11.4645 11.1229 11.4645 11.1336C11.4645 11.1443 11.4645 11.155 11.4645 11.1657C11.4645 11.1765 11.4645 11.1872 11.4645 11.1979C11.4645 11.2087 11.4645 11.2194 11.4645 11.2302C11.4645 11.2409 11.4645 11.2517 11.4645 11.2624C11.4645 11.2732 11.4645 11.284 11.4645 11.2948C11.4645 11.3055 11.4645 11.3163 11.4645 11.3271C11.4645 11.3379 11.4645 11.3487 11.4645 11.3595C11.4645 11.3703 11.4645 11.3811 11.4645 11.3919C11.4645 11.4028 11.4645 11.4136 11.4645 11.4244C11.4645 11.4352 11.4645 11.4461 11.4645 11.4569C11.4645 11.4678 11.4645 11.4786 11.4645 11.4895C11.4645 11.5003 11.4645 11.5112 11.4645 11.522C11.4645 11.5329 11.4645 11.5438 11.4645 11.5547C11.4645 11.5655 11.4645 11.5764 11.4645 11.5873C11.4645 11.5982 11.4645 11.6091 11.4645 11.62C11.4645 11.6309 11.4645 11.6418 11.4645 11.6527C11.4645 11.6636 11.4645 11.6745 11.4645 11.6855C11.4645 11.6964 11.4645 11.7073 11.4645 11.7182C11.4645 11.7292 11.4645 11.7401 11.4645 11.7511C11.4645 11.762 11.4645 11.773 11.4645 11.7839C11.4645 11.7949 11.4645 11.8058 11.4645 11.8168C11.4645 11.8278 11.4645 11.8387 11.4645 11.8497C11.4645 11.8607 11.4645 11.8717 11.4645 11.8827C11.4645 11.8937 11.4645 11.9047 11.4645 11.9157C11.4645 11.9267 11.4645 11.9377 11.4645 11.9487C11.4645 11.9597 11.4645 11.9707 11.4645 11.9817C11.4645 11.9927 11.4645 12.0038 11.4645 12.0148C11.4645 12.0258 11.4645 12.0368 11.4645 12.0479C11.4645 12.0589 11.4645 12.07 11.4645 12.081C11.4645 12.0921 11.4645 12.1031 11.4645 12.1142C11.4645 12.1252 11.4645 12.1363 11.4645 12.1474C11.4645 12.1584 11.4645 12.1695 11.4645 12.1806C11.4645 12.1917 11.4645 12.2028 11.4645 12.2138C11.4645 12.2249 11.4645 12.236 11.4645 12.2471C11.4645 12.2582 11.4645 12.2693 11.4645 12.2804C11.4645 12.2915 11.4645 12.3026 11.4645 12.3138C11.4645 12.3249 11.4645 12.336 11.4645 12.3471C11.4645 12.3582 11.4645 12.3694 11.4645 12.3805C11.4645 12.3916 11.4645 12.4028 11.4645 12.4139C11.4645 12.4251 11.4645 12.4362 11.4645 12.4474C11.4645 12.4585 11.4645 12.4697 11.4645 12.4808C11.4645 12.492 11.4645 12.5031 11.4645 12.5143C11.4645 12.5255 11.4645 12.5366 11.4645 12.5478C11.4645 12.559 11.4645 12.5702 11.4645 12.5813C11.4645 12.5925 11.4645 12.6037 11.4645 12.6149C11.4645 12.6261 11.4645 12.6373 11.4645 12.6485C11.4645 12.6597 11.4645 12.6709 11.4645 12.6821C11.4645 12.6933 11.4645 12.7045 11.4645 12.7157C11.4645 12.7269 11.4645 12.7382 11.4645 12.7494C11.4645 12.7606 11.4645 12.7718 11.4645 12.783C11.4645 12.7943 11.4645 12.8055 11.4645 12.8167C11.4645 12.828 11.4645 12.8392 11.4645 12.8505C11.4645 12.8617 11.4645 12.8729 11.4645 12.8842C11.4645 12.8954 11.4645 12.9067 11.4645 12.918C11.4645 12.9292 11.4645 12.9405 11.4645 12.9517C11.4645 12.963 11.4645 12.9743 11.4645 12.9855C11.4645 12.9968 11.4645 13.0081 11.4645 13.0193C11.4645 13.0306 11.4645 13.0419 11.4645 13.0532C11.4645 13.0645 11.4645 13.0757 11.4645 13.087C11.4645 13.0983 11.4645 13.1096 11.4645 13.1209C11.4645 13.1322 11.4645 13.1435 11.4645 13.1548C11.4645 13.1661 11.4645 13.1774 11.4645 13.1887C11.4645 13.2 11.4645 13.2113 11.4645 13.2226C11.4645 13.2339 11.4645 13.2453 11.4645 13.2566C11.4645 13.2679 11.4645 13.2792 11.4645 13.2905C11.4645 13.3019 11.4645 13.3132 11.4645 13.3245C11.4645 13.3358 11.4645 13.3472 11.4645 13.3585C11.4645 13.3698 11.4645 13.3812 11.4645 13.3925C11.4645 13.4038 11.4645 13.4152 11.4645 13.4265C11.4645 13.4379 11.4645 13.4492 11.4645 13.4606C11.4645 13.4719 11.4645 13.4833 11.4645 13.4946C11.4645 13.506 11.4645 13.5173 11.4645 13.5287C11.4645 13.54 11.4645 13.5514 11.4645 13.5628C11.4645 13.5741 11.4645 13.5855 11.4645 13.5968C11.4645 13.6082 11.4645 13.6196 11.4645 13.631C11.4645 13.6423 11.4645 13.6537 11.4645 13.6651C11.4645 13.6764 11.4645 13.6878 11.4645 13.6992C11.4645 13.7106 11.4645 13.722 11.4645 13.7333C11.4645 13.7447 11.4645 13.7561 11.4645 13.7675C11.4645 13.7789 11.4645 13.7903 11.4645 13.8016C11.4645 13.813 11.4645 13.8244 11.4645 13.8358C11.4645 13.8472 11.4645 13.8586 11.4645 13.87C11.4645 13.8814 11.4645 13.8928 11.4645 13.9042C11.4645 13.9156 11.4645 13.927 11.4645 13.9384C11.4645 13.9498 11.4645 13.9612 11.4645 13.9726C11.4645 13.984 11.4645 13.9954 11.4645 14.0068C11.4645 14.0182 11.4645 14.0296 11.4645 14.0411C11.4645 14.0525 11.4645 14.0639 11.4645 14.0753C11.4645 14.0867 11.4645 14.0981 11.4645 14.1095C11.4645 14.121 11.4645 14.1324 11.4645 14.1438C11.4645 14.1552 11.4645 14.1666 11.4645 14.178C11.4645 14.1895 11.4645 14.2009 11.4645 14.2123C11.4645 14.2237 11.4645 14.2352 11.4645 14.2466C11.4645 14.258 11.4645 14.2694 11.4645 14.2809C11.4645 14.2923 11.4645 14.3037 11.4645 14.3151C11.4645 14.3266 11.4645 14.338 11.4645 14.3494C11.4645 14.3609 11.4645 14.3723 11.4645 14.3837C11.4645 14.3951 11.4645 14.4066 11.4645 14.418C11.4645 14.4294 11.4645 14.4409 11.4645 14.4523C11.4645 14.4637 11.4645 14.4752 11.4645 14.4866C11.4645 14.498 11.4645 14.5095 11.4645 14.5209C11.4645 14.5324 11.4645 14.5438 11.4645 14.5552C11.4645 14.5667 11.4645 14.5781 11.4645 14.5895C11.4645 14.601 11.4645 14.6124 11.4645 14.6239C11.4645 14.6353 11.4645 14.6467 11.4645 14.6582C11.4645 14.6696 11.4645 14.681 11.4645 14.6925C11.4645 14.7039 11.4645 14.7154 11.4645 14.7268C11.4645 14.7382 11.4645 14.7497 11.4645 14.7611C11.4645 14.7726 11.4645 14.784 11.4645 14.7954C11.4645 14.8069 11.4645 14.8183 11.4645 14.8298C11.4645 14.8412 11.4645 14.8526 11.4645 14.8641C11.4645 14.8755 11.4645 14.887 11.4645 14.8984C11.4645 14.9098 11.4645 14.9213 11.4645 14.9327C11.4645 14.9441 11.4645 14.9556 11.4645 14.967C11.4645 14.9785 11.4645 14.9899 11.4645 15.0013C11.4645 15.0128 11.4645 15.0242 11.4645 15.0356C11.4645 15.0471 11.4645 15.0585 11.4645 15.07C11.4645 15.0814 11.4645 15.0928 11.4645 15.1043C11.4645 15.1157 11.4645 15.1271 11.4645 15.1386C11.4645 15.15 11.4645 15.1614 11.4645 15.1729C11.4645 15.1843 11.4645 15.1957 11.4645 15.2071C11.4645 15.2186 11.4645 15.23 11.4645 15.2414C11.4645 15.2529 11.4645 15.2643 11.4645 15.2757C11.4645 15.2871 11.4645 15.2986 11.4645 15.31C11.4645 15.3214 11.4645 15.3328 11.4645 15.3443C11.4645 15.3557 11.4645 15.3671 11.4645 15.3785C11.4645 15.39 11.4645 15.4014 11.4645 15.4128C11.4645 15.4242 11.4645 15.4356 11.4645 15.4471C11.4645 15.4585 11.4645 15.4699 11.4645 15.4813C11.4645 15.4927 11.4645 15.5041 11.4645 15.5155C11.4645 15.5269 11.4645 15.5384 11.4645 15.5498C11.4645 15.5612 11.4645 15.5726 11.4645 15.584C11.4645 15.5954 11.4645 15.6068 11.4645 15.6182C11.4645 15.6296 11.4645 15.641 11.4645 15.6524C11.4645 15.6638 11.4645 15.6752 11.4645 15.6866C11.4645 15.698 11.4645 15.7094 11.4645 15.7208C11.4645 15.7322 11.4645 15.7436 11.4645 15.755C11.4645 15.7664 11.4645 15.7777 11.4645 15.7891C11.4645 15.8005 11.4645 15.8119 11.4645 15.8233C11.4645 15.8347 11.4645 15.846 11.4645 15.8574C11.4645 15.8688 11.4645 15.8802 11.4645 15.8916C11.4645 15.9029 11.4645 15.9143 11.4645 15.9257C11.4645 15.9371 11.4645 15.9484 11.4645 15.9598C11.4645 15.9712 11.4645 15.9825 11.4645 15.9939C11.4645 16.0052 11.4645 16.0166 11.4645 16.028C11.4645 16.0393 11.4645 16.0507 11.4645 16.062C11.4645 16.0734 11.4645 16.0847 11.4645 16.0961C11.4645 16.1074 11.4645 16.1188 11.4645 16.1301C11.4645 16.1415 11.4645 16.1528 11.4645 16.1642C11.4645 16.1755 11.4645 16.1868 11.4645 16.1982C11.4645 16.2095 11.4645 16.2208 11.4645 16.2322C11.4645 16.2435 11.4645 16.2548 11.4645 16.2661C11.4645 16.2775 11.4645 16.2888 11.4645 16.3001C11.4645 16.3114 11.4645 16.3227 11.4645 16.3341C11.4645 16.3454 11.4645 16.3567 11.4645 16.368C11.4645 16.3793 11.4645 16.3906 11.4645 16.4019C11.4645 16.4132 11.4645 16.4245 11.4645 16.4358C11.4645 16.4471 11.4645 16.4584 11.4645 16.4697C11.4645 16.481 11.4645 16.4923 11.4645 16.5035C11.4645 16.5148 11.4645 16.5261 11.4645 16.5374C11.4645 16.5487 11.4645 16.5599 11.4645 16.5712C11.4645 16.5825 11.4645 16.5937 11.4645 16.605C11.4645 16.6163 11.4645 16.6275 11.4645 16.6388C11.4645 16.65 11.4645 16.6613 11.4645 16.6726C11.4645 16.6838 11.4645 16.6951 11.4645 16.7063C11.4645 16.7175 11.4645 16.7288 11.4645 16.74C11.4645 16.7513 11.4645 16.7625 11.4645 16.7737C11.4645 16.785 11.4645 16.7962 11.4645 16.8074C11.4645 16.8186 11.4645 16.8298 11.4645 16.8411C11.4645 16.8523 11.4645 16.8635 11.4645 16.8747C11.4645 16.8859 11.4645 16.8971 11.4645 16.9083C11.4645 16.9195 11.4645 16.9307 11.4645 16.9419C11.4645 16.9531 11.4645 16.9643 11.4645 16.9755C11.4645 16.9867 11.4645 16.9978 11.4645 17.009C11.4645 17.0202 11.4645 17.0314 11.4645 17.0425C11.4645 17.0537 11.4645 17.0649 11.4645 17.076C11.4645 17.0872 11.4645 17.0983 11.4645 17.1095C11.4645 17.1207 11.4645 17.1318 11.4645 17.1429C11.4645 17.1541 11.4645 17.1652 11.4645 17.1764C11.4645 17.1875 11.4645 17.1986 11.4645 17.2098C11.4645 17.2209 11.4645 17.232 11.4645 17.2431C11.4645 17.2542 11.4645 17.2654 11.4645 17.2765C11.4645 17.2876 11.4645 17.2987 11.4645 17.3098C11.4645 17.3209 11.4645 17.332 11.4645 17.3431C11.4645 17.3542 11.4645 17.3652 11.4645 17.3763C11.4645 17.3874 11.4645 17.3985 11.4645 17.4096C11.4645 17.4206 11.4645 17.4317 11.4645 17.4428C11.4645 17.4538 11.4645 17.4649 11.4645 17.4759C11.4645 17.487 11.4645 17.498 11.4645 17.5091C11.4645 17.5201 11.4645 17.5312 11.4645 17.5422C11.4645 17.5532 11.4645 17.5642 11.4645 17.5753C11.4645 17.5863 11.4645 17.5973 11.4645 17.6083C11.4645 17.6193 11.4645 17.6303 11.4645 17.6413C11.4645 17.6523 11.4645 17.6633 11.4645 17.6743C11.4645 17.6853 11.4645 17.6963 11.4645 17.7073C11.4645 17.7183 11.4645 17.7293 11.4645 17.7402C11.4645 17.7512 11.4645 17.7622 11.4645 17.7731C11.4645 17.7841 11.4645 17.795 11.4645 17.806C11.4645 17.8169 11.4645 17.8279 11.4645 17.8388C11.4645 17.8498 11.4645 17.8607 11.4645 17.8716C11.4645 17.8825 11.4645 17.8935 11.4645 17.9044C11.4645 17.9153 11.4645 17.9262 11.4645 17.9371C11.4645 17.948 11.4645 17.9589 11.4645 17.9698C11.4645 17.9807 11.4645 17.9916 11.4645 18.0025C11.4645 18.0133 11.4645 18.0242 11.4645 18.0351C11.4645 18.046 11.4645 18.0568 11.4645 18.0677C11.4645 18.0785 11.4645 18.0894 11.4645 18.1002C11.4645 18.1111 11.4645 18.1219 11.4645 18.1328C11.4645 18.1436 11.4645 18.1544 11.4645 18.1652C11.4645 18.1761 11.4645 18.1869 11.4645 18.1977C11.4645 18.2085 11.4645 18.2193 11.4645 18.2301C11.4645 18.2409 11.4645 18.2517 11.4645 18.2625C11.4645 18.2732 11.4645 18.284 11.4645 18.2948C11.4645 18.3056 11.4645 18.3163 11.4645 18.3271C11.4645 18.3378 11.4645 18.3486 11.4645 18.3593C11.4645 18.3701 11.4645 18.3808 11.4645 18.3915C11.4645 18.4023 11.4645 18.413 11.4645 18.4237C11.4645 18.4344 11.4645 18.4452 11.4645 18.4559C11.4645 18.4666 11.4645 18.4773 11.4645 18.4879C11.4645 18.4986 11.4645 18.5093 11.4645 18.52C11.4645 18.5307 11.4645 18.5414 11.4645 18.552C11.4645 18.5627 11.4645 18.5733 11.4645 18.584C11.4645 18.5946 11.4645 18.6053 11.4645 18.6159C11.4645 18.6266 11.4645 18.6372 11.4645 18.6478C11.4645 18.6584 11.4645 18.669 11.4645 18.6796C11.4645 18.6903 11.4645 18.7009 11.4645 18.7115C11.4645 18.722 11.4645 18.7326 11.4645 18.7432C11.4645 18.7538 11.4645 18.7644 11.4645 18.7749C11.4645 18.7855 11.4645 18.796 11.4645 18.8066C11.4645 18.8171 11.4645 18.8277 11.4645 18.8382C11.4645 18.8488 11.4645 18.8593 11.4645 18.8698C11.4645 18.8803 11.4645 18.8908 11.4645 18.9013C11.4645 18.9118 11.4645 18.9223 11.4645 18.9328C11.4645 18.9433 11.4645 18.9538 11.4645 18.9643C11.4645 18.9748 11.4645 18.9852 11.4645 18.9957C11.4645 19.0061 11.4645 19.0166 11.4645 19.027C11.4645 19.0375 11.4645 19.0479 11.4645 19.0583C11.4645 19.0688 11.4645 19.0792 11.4645 19.0896C11.4645 19.1 11.4645 19.1104 11.4645 19.1208C11.4645 19.1312 11.4645 19.1416 11.4645 19.152C11.4645 19.1623 11.4645 19.1727 11.4645 19.1831C11.4645 19.1934 11.4645 19.2038 11.4645 19.2141C11.4645 19.2245 11.4645 19.2348 11.4645 19.2452C11.4645 19.2555 11.4645 19.2658 11.4645 19.2761C11.4645 19.2864 11.4645 19.2968 11.4645 19.307C11.4645 19.3173 11.4645 19.3276 11.4645 19.3379C11.4645 19.3482 11.4645 19.3585 11.4645 19.3687C11.4645 19.379 11.4645 19.3892 11.4645 19.3995C11.4645 19.4097 11.4645 19.42 11.4645 19.4302C11.4645 19.4404 11.4645 19.4507 11.4645 19.4609C11.4645 19.4711 11.4645 19.4813 11.4645 19.4915C11.4645 19.5017 11.4645 19.5119 11.4645 19.522C11.4645 19.5322 11.4645 19.5424 11.4645 19.5525C11.4645 19.5627 11.4645 19.5729 11.4645 19.583C11.4645 19.5931 11.4645 19.6033 11.4645 19.6134C11.4645 19.6235 11.4645 19.6336 11.4645 19.6437C11.4645 19.6538 11.4645 19.6639 11.4645 19.674C11.4645 19.6841 11.4645 19.6942 11.4645 19.7043C11.4645 19.7143 11.4645 19.7244 11.4645 19.7344C11.4645 19.7445 11.4645 19.7545 11.4645 19.7646C11.4645 19.7746 11.4645 19.7846 11.4645 19.7946C11.4645 19.8046 11.4645 19.8146 11.4645 19.8246C11.4645 19.8346 11.4645 19.8446 11.4645 19.8546C11.4645 19.8646 11.4645 19.8745 11.4645 19.8845C11.4645 19.8945 11.4645 19.9044 11.4645 19.9143C11.4645 19.9243 11.4645 19.9342 11.4645 19.9441C11.4645 19.954 11.4645 19.9639 11.4645 19.9738C11.4645 19.9837 11.4645 19.9936 11.4645 20.0035C11.4645 20.0134 11.4645 20.0233 11.4645 20.0331C11.4645 20.043 11.4645 20.0528 11.4645 20.0627C11.4645 20.0725 11.4645 20.0823 11.4645 20.0922C11.4645 20.102 11.4645 20.1118 11.4645 20.1216C11.4645 20.1314 11.4645 20.1412 11.4645 20.151C11.4645 20.1607 11.4645 20.1705 11.4645 20.1803C11.4645 20.19 11.4645 20.1998 11.4645 20.2095C11.4645 20.2193 11.4645 20.229 11.4645 20.2387C11.4645 20.2484 11.4645 20.2581 11.4645 20.2678C11.4645 20.2775 11.4645 20.2872 11.4645 20.2969C11.4645 20.3066 11.4645 20.3162 11.4645 20.3259C11.4645 20.3356 11.4645 20.3452 11.4645 20.3548C11.4645 20.3645 11.4645 20.3741 11.4645 20.3837C11.4645 20.3933 11.4645 20.4029 11.4645 20.4125C11.4645 20.4221 11.4645 20.4317 11.4645 20.4413C11.4645 20.4508 11.4645 20.4604 11.4645 20.47C11.4645 20.4795 11.4645 20.489 11.4645 20.4986C11.4645 20.5081 11.4645 20.5176 11.4645 20.5271C11.4645 20.5366 11.4645 20.5461 11.4645 20.5556C11.4645 20.5651 11.4645 20.5746 11.4645 20.584C11.4645 20.5935 11.4645 20.6029 11.4645 20.6124C11.4645 20.6218 11.4645 20.6313 11.4645 20.6407C11.4645 20.6501 11.4645 20.6595 11.4645 20.6689C11.4645 20.6783 11.4645 20.6877 11.4645 20.6971C11.4645 20.7064 11.4645 20.7158 11.4645 20.7251C11.4645 20.7345 11.4645 20.7438 11.4645 20.7532C11.4645 20.7625 11.4645 20.7718 11.4645 20.7811C11.4645 20.7904 11.4645 20.7997 11.4645 20.809C11.4645 20.8183 11.4645 20.8276 11.4645 20.8368C11.4645 20.8461 11.4645 20.8553 11.4645 20.8646C11.4645 20.8738 11.4645 20.883 11.4645 20.8922C11.4645 20.9014 11.4645 20.9106 11.4645 20.9198C11.4645 20.929 11.4645 20.9382 11.4645 20.9474C11.4645 20.9565 11.4645 20.9657 11.4645 20.9748C11.4645 20.984 11.4645 20.9931 11.4645 21.0022C11.4645 21.0113 11.4645 21.0205 11.4645 21.0295C11.4645 21.0386 11.4645 21.0477 11.4645 21.0568C11.4645 21.0659 11.4645 21.0749 11.4645 21.084C11.4645 21.093 11.4645 21.1021 11.4645 21.1111C11.4645 21.1201 11.4645 21.1291 11.4645 21.1381C11.4645 21.1471 11.4645 21.1561 11.4645 21.1651C11.4645 21.174 11.4645 21.183 11.4645 21.1919C11.4645 21.2009 11.4645 21.2098 11.4645 21.2187C11.4645 21.2277 11.4645 21.2366 11.4645 21.2455C11.4645 21.2544 11.4645 21.2633 11.4645 21.2721C11.4645 21.281 11.4645 21.2899 11.4645 21.2987C11.4645 21.3076 11.4645 21.3164 11.4645 21.3252C11.4645 21.3341 11.4645 21.3429 11.4645 21.3517C11.4645 21.3605 11.4645 21.3692 11.4645 21.378C11.4645 21.3868 11.4645 21.3955 11.4645 21.4043C11.4645 21.413 11.4645 21.4218 11.4645 21.4305C11.4645 21.4392 11.4645 21.4479 11.4645 21.4566C11.4645 21.4653 11.4645 21.474 11.4645 21.4827C11.4645 21.4913 11.4645 21.5 11.4645 21.5086C11.4645 21.5173 11.4645 21.5259 11.4645 21.5345C11.4645 21.5431 11.4645 21.5517 11.4645 21.5603C11.4645 21.5689 11.4645 21.5775 11.4645 21.5861C11.4645 21.5946 11.4645 21.6032 11.4645 21.6117C11.4645 21.6202 11.4645 21.6288 11.4645 21.6373C11.4645 21.6458 11.4645 21.6543 11.4645 21.6628C11.4645 21.6713 11.4645 21.6797 11.4645 21.6882C11.4645 21.6966 11.4645 21.7051 11.4645 21.7135C11.4645 21.7219 11.4645 21.7304 11.4645 21.7388C11.4645 21.7472 11.4645 21.7555 11.4645 21.7639C11.4645 21.7723 11.4645 21.7806 11.4645 21.789C11.4645 21.7973 11.4645 21.8057 11.4645 21.814C11.4645 21.8223 11.4645 21.8306 11.4645 21.8389C11.4645 21.8472 11.4645 21.8555 11.4645 21.8637C11.4645 21.872 11.4645 21.8803 11.4645 21.8885C11.4645 21.8967 11.4645 21.9049 11.4645 21.9132C11.4645 21.9214 11.4645 21.9296 11.4645 21.9377C11.4645 21.9459 11.4645 21.9541 11.4645 21.9622C11.4645 21.9704 11.4645 21.9785 11.4645 21.9866C11.4645 21.9948 11.4645 22.0029 11.4645 22.011C11.4645 22.0191 11.4645 22.0271 11.4645 22.0352C11.4645 22.0433 11.4645 22.0513 11.4645 22.0594C11.4645 22.0674 11.4645 22.0754 11.4645 22.0834C11.4645 22.0914 11.4645 22.0994 11.4645 22.1074C11.4645 22.1154 11.4645 22.1233 11.4645 22.1313C11.4645 22.1392 11.4645 22.1472 11.4645 22.1551C11.4645 22.163 11.4645 22.1709 11.4645 22.1788C11.4645 22.1867 11.4645 22.1946 11.4645 22.2024C11.4645 22.2103 11.4645 22.2181 11.4645 22.226C11.4645 22.2338 11.4645 22.2416 11.4645 22.2494C11.4645 22.2572 11.4645 22.265 11.4645 22.2728C11.4645 22.2805 11.4645 22.2883 11.4645 22.296C11.4645 22.3038 11.4645 22.3115 11.4645 22.3192C11.4645 22.3269 11.4645 22.3346 11.4645 22.3423C11.4645 22.35 11.4645 22.3576 11.4645 22.3653C11.4645 22.3729 11.4645 22.3806 11.4645 22.3882C11.4645 22.3958 11.4645 22.4034 11.4645 22.411C11.4645 22.4186 11.4645 22.4262 11.4645 22.4337C11.4645 22.4413 11.4645 22.4488 11.4645 22.4563C11.4645 22.4639 11.4645 22.4714 11.4645 22.4789C11.4645 22.4864 11.4645 22.4939 11.4645 22.5013C11.4645 22.5088 11.4645 22.5162 11.4645 22.5237C11.4645 22.5311 11.4645 22.5385 11.4645 22.5459C11.4645 22.5533 11.4645 22.5607 11.4645 22.5681C11.4645 22.5754 11.4645 22.5828 11.4645 22.5901C11.4645 22.5975 11.4645 22.6048 11.4645 22.6121C11.4645 22.6194 11.4645 22.6267 11.4645 22.634C11.4645 22.6412 11.4645 22.6485 11.4645 22.6557C11.4645 22.663 11.4645 22.6702 11.4645 22.6774C11.4645 22.6846 11.4645 22.6918 11.4645 22.699C11.4645 22.7062 11.4645 22.7133 11.4645 22.7205C11.4645 22.7276 11.4645 22.7348 11.4645 22.7419C11.4645 22.749 11.4645 22.7561 11.4645 22.7632C11.4645 22.7703 11.4645 22.7773 11.4645 22.7844C11.4645 22.7914 11.4645 22.7984 11.4645 22.8055C11.4645 22.8125 11.4645 22.8195 11.4645 22.8265C11.4645 22.8334 11.4645 22.8404 11.4645 22.8473C11.4645 22.8543 11.4645 22.8612 11.4645 22.8681C11.4645 22.8751 11.4645 22.882 11.4645 22.8888C11.4645 22.8957 11.4645 22.9026 11.4645 22.9094C11.4645 22.9163 11.4645 22.9231 11.4645 22.9299C11.4645 22.9367 11.4645 22.9435 11.4645 22.9503C11.4645 22.9571 11.4645 22.9639 11.4645 22.9706C11.4645 22.9774 11.4645 22.9841 11.4645 22.9908H12.9645ZM12.9645 7.52474C12.9645 4.69446 11.5507 2.43603 9.92215 1.22971C9.1133 0.630553 8.19471 0.25 7.32096 0.25C6.40219 0.25 5.56159 0.680201 5.0995 1.60437L6.44114 2.27519C6.62348 1.91052 6.91061 1.75 7.32096 1.75C7.77631 1.75 8.38822 1.96016 9.02931 2.43504C10.3007 3.37678 11.4645 5.19967 11.4645 7.52474H12.9645ZM5.0995 1.60437C4.30836 3.18664 4.58585 4.93065 5.88441 6.22922C7.1487 7.49351 9.30642 8.27474 12.2145 8.27474V6.77474C9.53764 6.77474 7.82884 6.05233 6.94507 5.16856C6.09557 4.31906 5.94344 3.27059 6.44114 2.27519L5.0995 1.60437Z" fill="#808080"/>
<path d="M12.2147 7.52483L11.4662 7.47805L11.4194 8.22659L12.1679 8.27337L12.2147 7.52483ZM16.5108 1.08064L16.428 1.82606L16.5108 1.08064ZM12.9633 7.57161C13.0312 6.48515 13.3184 4.89401 13.9302 3.64438C14.5486 2.38092 15.3572 1.70707 16.428 1.82606L16.5937 0.33523C14.5713 0.110525 13.3034 1.51313 12.5829 2.98487C11.8557 4.47045 11.5415 6.27325 11.4662 7.47805L12.9633 7.57161ZM16.428 1.82606C17.1657 1.90802 17.5693 2.25356 17.7611 2.65352C17.9651 3.07889 17.9824 3.68023 17.7022 4.32673C17.1566 5.58577 15.4563 6.97595 12.2615 6.77629L12.1679 8.27337C15.847 8.50329 18.2279 6.88618 19.0786 4.92314C19.4965 3.95859 19.5406 2.89519 19.1136 2.00487C18.6745 1.08916 17.7893 0.468073 16.5937 0.33523L16.428 1.82606Z" fill="#808080"/>
</svg>
