<svg width="80" height="80" viewBox="0 0 80 80" fill="none" xmlns="http://www.w3.org/2000/svg">
<g filter="url(#filter0_d_37_1538)">
<rect x="16" y="16" width="48" height="48" rx="24" fill="white"/>
<path d="M29.4746 50.9907V35.5247H50.5256V50.9907H29.4746Z" stroke="#808080" stroke-width="1.5"/>
<path d="M40.9644 50.9908C40.9644 50.9841 40.9644 50.9774 40.9644 50.9706C40.9644 50.9639 40.9644 50.9571 40.9644 50.9503C40.9644 50.9435 40.9644 50.9367 40.9644 50.9299C40.9644 50.9231 40.9644 50.9163 40.9644 50.9094C40.9644 50.9026 40.9644 50.8957 40.9644 50.8888C40.9644 50.882 40.9644 50.8751 40.9644 50.8681C40.9644 50.8612 40.9644 50.8543 40.9644 50.8473C40.9644 50.8404 40.9644 50.8334 40.9644 50.8265C40.9644 50.8195 40.9644 50.8125 40.9644 50.8055C40.9644 50.7984 40.9644 50.7914 40.9644 50.7844C40.9644 50.7773 40.9644 50.7703 40.9644 50.7632C40.9644 50.7561 40.9644 50.749 40.9644 50.7419C40.9644 50.7348 40.9644 50.7276 40.9644 50.7205C40.9644 50.7133 40.9644 50.7062 40.9644 50.699C40.9644 50.6918 40.9644 50.6846 40.9644 50.6774C40.9644 50.6702 40.9644 50.663 40.9644 50.6557C40.9644 50.6485 40.9644 50.6412 40.9644 50.634C40.9644 50.6267 40.9644 50.6194 40.9644 50.6121C40.9644 50.6048 40.9644 50.5975 40.9644 50.5901C40.9644 50.5828 40.9644 50.5754 40.9644 50.5681C40.9644 50.5607 40.9644 50.5533 40.9644 50.5459C40.9644 50.5385 40.9644 50.5311 40.9644 50.5237C40.9644 50.5162 40.9644 50.5088 40.9644 50.5013C40.9644 50.4939 40.9644 50.4864 40.9644 50.4789C40.9644 50.4714 40.9644 50.4639 40.9644 50.4563C40.9644 50.4488 40.9644 50.4413 40.9644 50.4337C40.9644 50.4262 40.9644 50.4186 40.9644 50.411C40.9644 50.4034 40.9644 50.3958 40.9644 50.3882C40.9644 50.3806 40.9644 50.3729 40.9644 50.3653C40.9644 50.3576 40.9644 50.35 40.9644 50.3423C40.9644 50.3346 40.9644 50.3269 40.9644 50.3192C40.9644 50.3115 40.9644 50.3038 40.9644 50.296C40.9644 50.2883 40.9644 50.2805 40.9644 50.2728C40.9644 50.265 40.9644 50.2572 40.9644 50.2494C40.9644 50.2416 40.9644 50.2338 40.9644 50.226C40.9644 50.2181 40.9644 50.2103 40.9644 50.2024C40.9644 50.1946 40.9644 50.1867 40.9644 50.1788C40.9644 50.1709 40.9644 50.163 40.9644 50.1551C40.9644 50.1472 40.9644 50.1392 40.9644 50.1313C40.9644 50.1233 40.9644 50.1154 40.9644 50.1074C40.9644 50.0994 40.9644 50.0914 40.9644 50.0834C40.9644 50.0754 40.9644 50.0674 40.9644 50.0594C40.9644 50.0513 40.9644 50.0433 40.9644 50.0352C40.9644 50.0271 40.9644 50.0191 40.9644 50.011C40.9644 50.0029 40.9644 49.9948 40.9644 49.9866C40.9644 49.9785 40.9644 49.9704 40.9644 49.9622C40.9644 49.9541 40.9644 49.9459 40.9644 49.9377C40.9644 49.9296 40.9644 49.9214 40.9644 49.9132C40.9644 49.9049 40.9644 49.8967 40.9644 49.8885C40.9644 49.8803 40.9644 49.872 40.9644 49.8637C40.9644 49.8555 40.9644 49.8472 40.9644 49.8389C40.9644 49.8306 40.9644 49.8223 40.9644 49.814C40.9644 49.8057 40.9644 49.7973 40.9644 49.789C40.9644 49.7806 40.9644 49.7723 40.9644 49.7639C40.9644 49.7555 40.9644 49.7472 40.9644 49.7388C40.9644 49.7304 40.9644 49.7219 40.9644 49.7135C40.9644 49.7051 40.9644 49.6966 40.9644 49.6882C40.9644 49.6797 40.9644 49.6713 40.9644 49.6628C40.9644 49.6543 40.9644 49.6458 40.9644 49.6373C40.9644 49.6288 40.9644 49.6202 40.9644 49.6117C40.9644 49.6032 40.9644 49.5946 40.9644 49.5861C40.9644 49.5775 40.9644 49.5689 40.9644 49.5603C40.9644 49.5517 40.9644 49.5431 40.9644 49.5345C40.9644 49.5259 40.9644 49.5173 40.9644 49.5086C40.9644 49.5 40.9644 49.4913 40.9644 49.4827C40.9644 49.474 40.9644 49.4653 40.9644 49.4566C40.9644 49.4479 40.9644 49.4392 40.9644 49.4305C40.9644 49.4218 40.9644 49.413 40.9644 49.4043C40.9644 49.3955 40.9644 49.3868 40.9644 49.378C40.9644 49.3692 40.9644 49.3605 40.9644 49.3517C40.9644 49.3429 40.9644 49.3341 40.9644 49.3252C40.9644 49.3164 40.9644 49.3076 40.9644 49.2987C40.9644 49.2899 40.9644 49.281 40.9644 49.2721C40.9644 49.2633 40.9644 49.2544 40.9644 49.2455C40.9644 49.2366 40.9644 49.2277 40.9644 49.2187C40.9644 49.2098 40.9644 49.2009 40.9644 49.1919C40.9644 49.183 40.9644 49.174 40.9644 49.1651C40.9644 49.1561 40.9644 49.1471 40.9644 49.1381C40.9644 49.1291 40.9644 49.1201 40.9644 49.1111C40.9644 49.1021 40.9644 49.093 40.9644 49.084C40.9644 49.0749 40.9644 49.0659 40.9644 49.0568C40.9644 49.0477 40.9644 49.0386 40.9644 49.0295C40.9644 49.0205 40.9644 49.0113 40.9644 49.0022C40.9644 48.9931 40.9644 48.984 40.9644 48.9748C40.9644 48.9657 40.9644 48.9565 40.9644 48.9474C40.9644 48.9382 40.9644 48.929 40.9644 48.9198C40.9644 48.9106 40.9644 48.9014 40.9644 48.8922C40.9644 48.883 40.9644 48.8738 40.9644 48.8646C40.9644 48.8553 40.9644 48.8461 40.9644 48.8368C40.9644 48.8276 40.9644 48.8183 40.9644 48.809C40.9644 48.7997 40.9644 48.7904 40.9644 48.7811C40.9644 48.7718 40.9644 48.7625 40.9644 48.7532C40.9644 48.7438 40.9644 48.7345 40.9644 48.7251C40.9644 48.7158 40.9644 48.7064 40.9644 48.6971C40.9644 48.6877 40.9644 48.6783 40.9644 48.6689C40.9644 48.6595 40.9644 48.6501 40.9644 48.6407C40.9644 48.6313 40.9644 48.6218 40.9644 48.6124C40.9644 48.6029 40.9644 48.5935 40.9644 48.584C40.9644 48.5746 40.9644 48.5651 40.9644 48.5556C40.9644 48.5461 40.9644 48.5366 40.9644 48.5271C40.9644 48.5176 40.9644 48.5081 40.9644 48.4986C40.9644 48.489 40.9644 48.4795 40.9644 48.47C40.9644 48.4604 40.9644 48.4508 40.9644 48.4413C40.9644 48.4317 40.9644 48.4221 40.9644 48.4125C40.9644 48.4029 40.9644 48.3933 40.9644 48.3837C40.9644 48.3741 40.9644 48.3645 40.9644 48.3548C40.9644 48.3452 40.9644 48.3356 40.9644 48.3259C40.9644 48.3162 40.9644 48.3066 40.9644 48.2969C40.9644 48.2872 40.9644 48.2775 40.9644 48.2678C40.9644 48.2581 40.9644 48.2484 40.9644 48.2387C40.9644 48.229 40.9644 48.2193 40.9644 48.2095C40.9644 48.1998 40.9644 48.19 40.9644 48.1803C40.9644 48.1705 40.9644 48.1607 40.9644 48.151C40.9644 48.1412 40.9644 48.1314 40.9644 48.1216C40.9644 48.1118 40.9644 48.102 40.9644 48.0922C40.9644 48.0823 40.9644 48.0725 40.9644 48.0627C40.9644 48.0528 40.9644 48.043 40.9644 48.0331C40.9644 48.0233 40.9644 48.0134 40.9644 48.0035C40.9644 47.9936 40.9644 47.9837 40.9644 47.9738C40.9644 47.9639 40.9644 47.954 40.9644 47.9441C40.9644 47.9342 40.9644 47.9243 40.9644 47.9143C40.9644 47.9044 40.9644 47.8945 40.9644 47.8845C40.9644 47.8745 40.9644 47.8646 40.9644 47.8546C40.9644 47.8446 40.9644 47.8346 40.9644 47.8246C40.9644 47.8146 40.9644 47.8046 40.9644 47.7946C40.9644 47.7846 40.9644 47.7746 40.9644 47.7646C40.9644 47.7545 40.9644 47.7445 40.9644 47.7344C40.9644 47.7244 40.9644 47.7143 40.9644 47.7043C40.9644 47.6942 40.9644 47.6841 40.9644 47.674C40.9644 47.6639 40.9644 47.6538 40.9644 47.6437C40.9644 47.6336 40.9644 47.6235 40.9644 47.6134C40.9644 47.6033 40.9644 47.5931 40.9644 47.583C40.9644 47.5729 40.9644 47.5627 40.9644 47.5525C40.9644 47.5424 40.9644 47.5322 40.9644 47.522C40.9644 47.5119 40.9644 47.5017 40.9644 47.4915C40.9644 47.4813 40.9644 47.4711 40.9644 47.4609C40.9644 47.4507 40.9644 47.4404 40.9644 47.4302C40.9644 47.42 40.9644 47.4097 40.9644 47.3995C40.9644 47.3892 40.9644 47.379 40.9644 47.3687C40.9644 47.3585 40.9644 47.3482 40.9644 47.3379C40.9644 47.3276 40.9644 47.3173 40.9644 47.307C40.9644 47.2968 40.9644 47.2864 40.9644 47.2761C40.9644 47.2658 40.9644 47.2555 40.9644 47.2452C40.9644 47.2348 40.9644 47.2245 40.9644 47.2141C40.9644 47.2038 40.9644 47.1934 40.9644 47.1831C40.9644 47.1727 40.9644 47.1623 40.9644 47.152C40.9644 47.1416 40.9644 47.1312 40.9644 47.1208C40.9644 47.1104 40.9644 47.1 40.9644 47.0896C40.9644 47.0792 40.9644 47.0688 40.9644 47.0583C40.9644 47.0479 40.9644 47.0375 40.9644 47.027C40.9644 47.0166 40.9644 47.0061 40.9644 46.9957C40.9644 46.9852 40.9644 46.9748 40.9644 46.9643C40.9644 46.9538 40.9644 46.9433 40.9644 46.9328C40.9644 46.9223 40.9644 46.9118 40.9644 46.9013C40.9644 46.8908 40.9644 46.8803 40.9644 46.8698C40.9644 46.8593 40.9644 46.8488 40.9644 46.8382C40.9644 46.8277 40.9644 46.8171 40.9644 46.8066C40.9644 46.796 40.9644 46.7855 40.9644 46.7749C40.9644 46.7644 40.9644 46.7538 40.9644 46.7432C40.9644 46.7326 40.9644 46.722 40.9644 46.7115C40.9644 46.7009 40.9644 46.6903 40.9644 46.6796C40.9644 46.669 40.9644 46.6584 40.9644 46.6478C40.9644 46.6372 40.9644 46.6266 40.9644 46.6159C40.9644 46.6053 40.9644 46.5946 40.9644 46.584C40.9644 46.5733 40.9644 46.5627 40.9644 46.552C40.9644 46.5414 40.9644 46.5307 40.9644 46.52C40.9644 46.5093 40.9644 46.4986 40.9644 46.4879C40.9644 46.4773 40.9644 46.4666 40.9644 46.4559C40.9644 46.4452 40.9644 46.4344 40.9644 46.4237C40.9644 46.413 40.9644 46.4023 40.9644 46.3915C40.9644 46.3808 40.9644 46.3701 40.9644 46.3593C40.9644 46.3486 40.9644 46.3378 40.9644 46.3271C40.9644 46.3163 40.9644 46.3056 40.9644 46.2948C40.9644 46.284 40.9644 46.2732 40.9644 46.2625C40.9644 46.2517 40.9644 46.2409 40.9644 46.2301C40.9644 46.2193 40.9644 46.2085 40.9644 46.1977C40.9644 46.1869 40.9644 46.1761 40.9644 46.1652C40.9644 46.1544 40.9644 46.1436 40.9644 46.1328C40.9644 46.1219 40.9644 46.1111 40.9644 46.1002C40.9644 46.0894 40.9644 46.0785 40.9644 46.0677C40.9644 46.0568 40.9644 46.046 40.9644 46.0351C40.9644 46.0242 40.9644 46.0133 40.9644 46.0025C40.9644 45.9916 40.9644 45.9807 40.9644 45.9698C40.9644 45.9589 40.9644 45.948 40.9644 45.9371C40.9644 45.9262 40.9644 45.9153 40.9644 45.9044C40.9644 45.8935 40.9644 45.8825 40.9644 45.8716C40.9644 45.8607 40.9644 45.8498 40.9644 45.8388C40.9644 45.8279 40.9644 45.8169 40.9644 45.806C40.9644 45.795 40.9644 45.7841 40.9644 45.7731C40.9644 45.7622 40.9644 45.7512 40.9644 45.7402C40.9644 45.7293 40.9644 45.7183 40.9644 45.7073C40.9644 45.6963 40.9644 45.6853 40.9644 45.6743C40.9644 45.6633 40.9644 45.6523 40.9644 45.6413C40.9644 45.6303 40.9644 45.6193 40.9644 45.6083C40.9644 45.5973 40.9644 45.5863 40.9644 45.5753C40.9644 45.5642 40.9644 45.5532 40.9644 45.5422C40.9644 45.5312 40.9644 45.5201 40.9644 45.5091C40.9644 45.498 40.9644 45.487 40.9644 45.4759C40.9644 45.4649 40.9644 45.4538 40.9644 45.4428C40.9644 45.4317 40.9644 45.4206 40.9644 45.4096C40.9644 45.3985 40.9644 45.3874 40.9644 45.3763C40.9644 45.3652 40.9644 45.3542 40.9644 45.3431C40.9644 45.332 40.9644 45.3209 40.9644 45.3098C40.9644 45.2987 40.9644 45.2876 40.9644 45.2765C40.9644 45.2654 40.9644 45.2542 40.9644 45.2431C40.9644 45.232 40.9644 45.2209 40.9644 45.2098C40.9644 45.1986 40.9644 45.1875 40.9644 45.1764C40.9644 45.1652 40.9644 45.1541 40.9644 45.1429C40.9644 45.1318 40.9644 45.1207 40.9644 45.1095C40.9644 45.0983 40.9644 45.0872 40.9644 45.076C40.9644 45.0649 40.9644 45.0537 40.9644 45.0425C40.9644 45.0314 40.9644 45.0202 40.9644 45.009C40.9644 44.9978 40.9644 44.9867 40.9644 44.9755C40.9644 44.9643 40.9644 44.9531 40.9644 44.9419C40.9644 44.9307 40.9644 44.9195 40.9644 44.9083C40.9644 44.8971 40.9644 44.8859 40.9644 44.8747C40.9644 44.8635 40.9644 44.8523 40.9644 44.8411C40.9644 44.8298 40.9644 44.8186 40.9644 44.8074C40.9644 44.7962 40.9644 44.785 40.9644 44.7737C40.9644 44.7625 40.9644 44.7513 40.9644 44.74C40.9644 44.7288 40.9644 44.7175 40.9644 44.7063C40.9644 44.6951 40.9644 44.6838 40.9644 44.6726C40.9644 44.6613 40.9644 44.65 40.9644 44.6388C40.9644 44.6275 40.9644 44.6163 40.9644 44.605C40.9644 44.5937 40.9644 44.5825 40.9644 44.5712C40.9644 44.5599 40.9644 44.5487 40.9644 44.5374C40.9644 44.5261 40.9644 44.5148 40.9644 44.5035C40.9644 44.4923 40.9644 44.481 40.9644 44.4697C40.9644 44.4584 40.9644 44.4471 40.9644 44.4358C40.9644 44.4245 40.9644 44.4132 40.9644 44.4019C40.9644 44.3906 40.9644 44.3793 40.9644 44.368C40.9644 44.3567 40.9644 44.3454 40.9644 44.3341C40.9644 44.3227 40.9644 44.3114 40.9644 44.3001C40.9644 44.2888 40.9644 44.2775 40.9644 44.2661C40.9644 44.2548 40.9644 44.2435 40.9644 44.2322C40.9644 44.2208 40.9644 44.2095 40.9644 44.1982C40.9644 44.1868 40.9644 44.1755 40.9644 44.1642C40.9644 44.1528 40.9644 44.1415 40.9644 44.1301C40.9644 44.1188 40.9644 44.1074 40.9644 44.0961C40.9644 44.0847 40.9644 44.0734 40.9644 44.062C40.9644 44.0507 40.9644 44.0393 40.9644 44.028C40.9644 44.0166 40.9644 44.0052 40.9644 43.9939C40.9644 43.9825 40.9644 43.9712 40.9644 43.9598C40.9644 43.9484 40.9644 43.9371 40.9644 43.9257C40.9644 43.9143 40.9644 43.9029 40.9644 43.8916C40.9644 43.8802 40.9644 43.8688 40.9644 43.8574C40.9644 43.846 40.9644 43.8347 40.9644 43.8233C40.9644 43.8119 40.9644 43.8005 40.9644 43.7891C40.9644 43.7777 40.9644 43.7664 40.9644 43.755C40.9644 43.7436 40.9644 43.7322 40.9644 43.7208C40.9644 43.7094 40.9644 43.698 40.9644 43.6866C40.9644 43.6752 40.9644 43.6638 40.9644 43.6524C40.9644 43.641 40.9644 43.6296 40.9644 43.6182C40.9644 43.6068 40.9644 43.5954 40.9644 43.584C40.9644 43.5726 40.9644 43.5612 40.9644 43.5498C40.9644 43.5384 40.9644 43.5269 40.9644 43.5155C40.9644 43.5041 40.9644 43.4927 40.9644 43.4813C40.9644 43.4699 40.9644 43.4585 40.9644 43.4471C40.9644 43.4356 40.9644 43.4242 40.9644 43.4128C40.9644 43.4014 40.9644 43.39 40.9644 43.3785C40.9644 43.3671 40.9644 43.3557 40.9644 43.3443C40.9644 43.3328 40.9644 43.3214 40.9644 43.31C40.9644 43.2986 40.9644 43.2871 40.9644 43.2757C40.9644 43.2643 40.9644 43.2529 40.9644 43.2414C40.9644 43.23 40.9644 43.2186 40.9644 43.2071C40.9644 43.1957 40.9644 43.1843 40.9644 43.1729C40.9644 43.1614 40.9644 43.15 40.9644 43.1386C40.9644 43.1271 40.9644 43.1157 40.9644 43.1043C40.9644 43.0928 40.9644 43.0814 40.9644 43.07C40.9644 43.0585 40.9644 43.0471 40.9644 43.0356C40.9644 43.0242 40.9644 43.0128 40.9644 43.0013C40.9644 42.9899 40.9644 42.9785 40.9644 42.967C40.9644 42.9556 40.9644 42.9441 40.9644 42.9327C40.9644 42.9213 40.9644 42.9098 40.9644 42.8984C40.9644 42.887 40.9644 42.8755 40.9644 42.8641C40.9644 42.8526 40.9644 42.8412 40.9644 42.8298C40.9644 42.8183 40.9644 42.8069 40.9644 42.7954C40.9644 42.784 40.9644 42.7726 40.9644 42.7611C40.9644 42.7497 40.9644 42.7382 40.9644 42.7268C40.9644 42.7154 40.9644 42.7039 40.9644 42.6925C40.9644 42.681 40.9644 42.6696 40.9644 42.6582C40.9644 42.6467 40.9644 42.6353 40.9644 42.6239C40.9644 42.6124 40.9644 42.601 40.9644 42.5895C40.9644 42.5781 40.9644 42.5667 40.9644 42.5552C40.9644 42.5438 40.9644 42.5324 40.9644 42.5209C40.9644 42.5095 40.9644 42.498 40.9644 42.4866C40.9644 42.4752 40.9644 42.4637 40.9644 42.4523C40.9644 42.4409 40.9644 42.4294 40.9644 42.418C40.9644 42.4066 40.9644 42.3951 40.9644 42.3837C40.9644 42.3723 40.9644 42.3609 40.9644 42.3494C40.9644 42.338 40.9644 42.3266 40.9644 42.3151C40.9644 42.3037 40.9644 42.2923 40.9644 42.2809C40.9644 42.2694 40.9644 42.258 40.9644 42.2466C40.9644 42.2352 40.9644 42.2237 40.9644 42.2123C40.9644 42.2009 40.9644 42.1895 40.9644 42.178C40.9644 42.1666 40.9644 42.1552 40.9644 42.1438C40.9644 42.1324 40.9644 42.121 40.9644 42.1095C40.9644 42.0981 40.9644 42.0867 40.9644 42.0753C40.9644 42.0639 40.9644 42.0525 40.9644 42.0411C40.9644 42.0296 40.9644 42.0182 40.9644 42.0068C40.9644 41.9954 40.9644 41.984 40.9644 41.9726C40.9644 41.9612 40.9644 41.9498 40.9644 41.9384C40.9644 41.927 40.9644 41.9156 40.9644 41.9042C40.9644 41.8928 40.9644 41.8814 40.9644 41.87C40.9644 41.8586 40.9644 41.8472 40.9644 41.8358C40.9644 41.8244 40.9644 41.813 40.9644 41.8016C40.9644 41.7903 40.9644 41.7789 40.9644 41.7675C40.9644 41.7561 40.9644 41.7447 40.9644 41.7333C40.9644 41.722 40.9644 41.7106 40.9644 41.6992C40.9644 41.6878 40.9644 41.6764 40.9644 41.6651C40.9644 41.6537 40.9644 41.6423 40.9644 41.631C40.9644 41.6196 40.9644 41.6082 40.9644 41.5968C40.9644 41.5855 40.9644 41.5741 40.9644 41.5628C40.9644 41.5514 40.9644 41.54 40.9644 41.5287C40.9644 41.5173 40.9644 41.506 40.9644 41.4946C40.9644 41.4833 40.9644 41.4719 40.9644 41.4606C40.9644 41.4492 40.9644 41.4379 40.9644 41.4265C40.9644 41.4152 40.9644 41.4038 40.9644 41.3925C40.9644 41.3812 40.9644 41.3698 40.9644 41.3585C40.9644 41.3472 40.9644 41.3358 40.9644 41.3245C40.9644 41.3132 40.9644 41.3019 40.9644 41.2905C40.9644 41.2792 40.9644 41.2679 40.9644 41.2566C40.9644 41.2453 40.9644 41.2339 40.9644 41.2226C40.9644 41.2113 40.9644 41.2 40.9644 41.1887C40.9644 41.1774 40.9644 41.1661 40.9644 41.1548C40.9644 41.1435 40.9644 41.1322 40.9644 41.1209C40.9644 41.1096 40.9644 41.0983 40.9644 41.087C40.9644 41.0757 40.9644 41.0645 40.9644 41.0532C40.9644 41.0419 40.9644 41.0306 40.9644 41.0193C40.9644 41.0081 40.9644 40.9968 40.9644 40.9855C40.9644 40.9743 40.9644 40.963 40.9644 40.9517C40.9644 40.9405 40.9644 40.9292 40.9644 40.918C40.9644 40.9067 40.9644 40.8954 40.9644 40.8842C40.9644 40.8729 40.9644 40.8617 40.9644 40.8505C40.9644 40.8392 40.9644 40.828 40.9644 40.8167C40.9644 40.8055 40.9644 40.7943 40.9644 40.783C40.9644 40.7718 40.9644 40.7606 40.9644 40.7494C40.9644 40.7382 40.9644 40.7269 40.9644 40.7157C40.9644 40.7045 40.9644 40.6933 40.9644 40.6821C40.9644 40.6709 40.9644 40.6597 40.9644 40.6485C40.9644 40.6373 40.9644 40.6261 40.9644 40.6149C40.9644 40.6037 40.9644 40.5925 40.9644 40.5813C40.9644 40.5702 40.9644 40.559 40.9644 40.5478C40.9644 40.5366 40.9644 40.5255 40.9644 40.5143C40.9644 40.5031 40.9644 40.492 40.9644 40.4808C40.9644 40.4697 40.9644 40.4585 40.9644 40.4474C40.9644 40.4362 40.9644 40.4251 40.9644 40.4139C40.9644 40.4028 40.9644 40.3916 40.9644 40.3805C40.9644 40.3694 40.9644 40.3582 40.9644 40.3471C40.9644 40.336 40.9644 40.3249 40.9644 40.3138C40.9644 40.3026 40.9644 40.2915 40.9644 40.2804C40.9644 40.2693 40.9644 40.2582 40.9644 40.2471C40.9644 40.236 40.9644 40.2249 40.9644 40.2138C40.9644 40.2028 40.9644 40.1917 40.9644 40.1806C40.9644 40.1695 40.9644 40.1584 40.9644 40.1474C40.9644 40.1363 40.9644 40.1252 40.9644 40.1142C40.9644 40.1031 40.9644 40.0921 40.9644 40.081C40.9644 40.07 40.9644 40.0589 40.9644 40.0479C40.9644 40.0368 40.9644 40.0258 40.9644 40.0148C40.9644 40.0038 40.9644 39.9927 40.9644 39.9817C40.9644 39.9707 40.9644 39.9597 40.9644 39.9487C40.9644 39.9377 40.9644 39.9267 40.9644 39.9157C40.9644 39.9047 40.9644 39.8937 40.9644 39.8827C40.9644 39.8717 40.9644 39.8607 40.9644 39.8497C40.9644 39.8387 40.9644 39.8278 40.9644 39.8168C40.9644 39.8058 40.9644 39.7949 40.9644 39.7839C40.9644 39.773 40.9644 39.762 40.9644 39.7511C40.9644 39.7401 40.9644 39.7292 40.9644 39.7182C40.9644 39.7073 40.9644 39.6964 40.9644 39.6855C40.9644 39.6745 40.9644 39.6636 40.9644 39.6527C40.9644 39.6418 40.9644 39.6309 40.9644 39.62C40.9644 39.6091 40.9644 39.5982 40.9644 39.5873C40.9644 39.5764 40.9644 39.5655 40.9644 39.5547C40.9644 39.5438 40.9644 39.5329 40.9644 39.522C40.9644 39.5112 40.9644 39.5003 40.9644 39.4895C40.9644 39.4786 40.9644 39.4678 40.9644 39.4569C40.9644 39.4461 40.9644 39.4352 40.9644 39.4244C40.9644 39.4136 40.9644 39.4028 40.9644 39.3919C40.9644 39.3811 40.9644 39.3703 40.9644 39.3595C40.9644 39.3487 40.9644 39.3379 40.9644 39.3271C40.9644 39.3163 40.9644 39.3055 40.9644 39.2948C40.9644 39.284 40.9644 39.2732 40.9644 39.2624C40.9644 39.2517 40.9644 39.2409 40.9644 39.2302C40.9644 39.2194 40.9644 39.2087 40.9644 39.1979C40.9644 39.1872 40.9644 39.1765 40.9644 39.1657C40.9644 39.155 40.9644 39.1443 40.9644 39.1336C40.9644 39.1229 40.9644 39.1121 40.9644 39.1014C40.9644 39.0907 40.9644 39.0801 40.9644 39.0694C40.9644 39.0587 40.9644 39.048 40.9644 39.0373C40.9644 39.0267 40.9644 39.016 40.9644 39.0053C40.9644 38.9947 40.9644 38.984 40.9644 38.9734C40.9644 38.9627 40.9644 38.9521 40.9644 38.9415C40.9644 38.9308 40.9644 38.9202 40.9644 38.9096C40.9644 38.899 40.9644 38.8884 40.9644 38.8777C40.9644 38.8671 40.9644 38.8565 40.9644 38.846C40.9644 38.8354 40.9644 38.8248 40.9644 38.8142C40.9644 38.8036 40.9644 38.7931 40.9644 38.7825C40.9644 38.772 40.9644 38.7614 40.9644 38.7509C40.9644 38.7403 40.9644 38.7298 40.9644 38.7192C40.9644 38.7087 40.9644 38.6982 40.9644 38.6877C40.9644 38.6772 40.9644 38.6667 40.9644 38.6562C40.9644 38.6457 40.9644 38.6352 40.9644 38.6247C40.9644 38.6142 40.9644 38.6037 40.9644 38.5933C40.9644 38.5828 40.9644 38.5723 40.9644 38.5619C40.9644 38.5514 40.9644 38.541 40.9644 38.5305C40.9644 38.5201 40.9644 38.5097 40.9644 38.4992C40.9644 38.4888 40.9644 38.4784 40.9644 38.468C40.9644 38.4576 40.9644 38.4472 40.9644 38.4368C40.9644 38.4264 40.9644 38.416 40.9644 38.4057C40.9644 38.3953 40.9644 38.3849 40.9644 38.3746C40.9644 38.3642 40.9644 38.3539 40.9644 38.3435C40.9644 38.3332 40.9644 38.3228 40.9644 38.3125C40.9644 38.3022 40.9644 38.2919 40.9644 38.2816C40.9644 38.2713 40.9644 38.261 40.9644 38.2507C40.9644 38.2404 40.9644 38.2301 40.9644 38.2198C40.9644 38.2095 40.9644 38.1993 40.9644 38.189C40.9644 38.1788 40.9644 38.1685 40.9644 38.1583C40.9644 38.148 40.9644 38.1378 40.9644 38.1276C40.9644 38.1173 40.9644 38.1071 40.9644 38.0969C40.9644 38.0867 40.9644 38.0765 40.9644 38.0663C40.9644 38.0561 40.9644 38.046 40.9644 38.0358C40.9644 38.0256 40.9644 38.0155 40.9644 38.0053C40.9644 37.9952 40.9644 37.985 40.9644 37.9749C40.9644 37.9647 40.9644 37.9546 40.9644 37.9445C40.9644 37.9344 40.9644 37.9243 40.9644 37.9142C40.9644 37.9041 40.9644 37.894 40.9644 37.8839C40.9644 37.8738 40.9644 37.8637 40.9644 37.8537C40.9644 37.8436 40.9644 37.8336 40.9644 37.8235C40.9644 37.8135 40.9644 37.8034 40.9644 37.7934C40.9644 37.7834 40.9644 37.7734 40.9644 37.7634C40.9644 37.7534 40.9644 37.7434 40.9644 37.7334C40.9644 37.7234 40.9644 37.7134 40.9644 37.7034C40.9644 37.6935 40.9644 37.6835 40.9644 37.6736C40.9644 37.6636 40.9644 37.6537 40.9644 37.6437C40.9644 37.6338 40.9644 37.6239 40.9644 37.614C40.9644 37.6041 40.9644 37.5942 40.9644 37.5843C40.9644 37.5744 40.9644 37.5645 40.9644 37.5546C40.9644 37.5447 40.9644 37.5349 40.9644 37.525C40.9644 37.5152 40.9644 37.5053 40.9644 37.4955C40.9644 37.4857 40.9644 37.4758 40.9644 37.466C40.9644 37.4562 40.9644 37.4464 40.9644 37.4366C40.9644 37.4268 40.9644 37.417 40.9644 37.4073C40.9644 37.3975 40.9644 37.3877 40.9644 37.378C40.9644 37.3682 40.9644 37.3585 40.9644 37.3487C40.9644 37.339 40.9644 37.3293 40.9644 37.3196C40.9644 37.3099 40.9644 37.3002 40.9644 37.2905C40.9644 37.2808 40.9644 37.2711 40.9644 37.2614C40.9644 37.2518 40.9644 37.2421 40.9644 37.2325C40.9644 37.2228 40.9644 37.2132 40.9644 37.2035C40.9644 37.1939 40.9644 37.1843 40.9644 37.1747C40.9644 37.1651 40.9644 37.1555 40.9644 37.1459C40.9644 37.1363 40.9644 37.1267 40.9644 37.1172C40.9644 37.1076 40.9644 37.098 40.9644 37.0885C40.9644 37.079 40.9644 37.0694 40.9644 37.0599C40.9644 37.0504 40.9644 37.0409 40.9644 37.0314C40.9644 37.0219 40.9644 37.0124 40.9644 37.0029C40.9644 36.9934 40.9644 36.984 40.9644 36.9745C40.9644 36.9651 40.9644 36.9556 40.9644 36.9462C40.9644 36.9367 40.9644 36.9273 40.9644 36.9179C40.9644 36.9085 40.9644 36.8991 40.9644 36.8897C40.9644 36.8803 40.9644 36.8709 40.9644 36.8616C40.9644 36.8522 40.9644 36.8429 40.9644 36.8335C40.9644 36.8242 40.9644 36.8148 40.9644 36.8055C40.9644 36.7962 40.9644 36.7869 40.9644 36.7776C40.9644 36.7683 40.9644 36.759 40.9644 36.7497C40.9644 36.7404 40.9644 36.7312 40.9644 36.7219C40.9644 36.7127 40.9644 36.7034 40.9644 36.6942C40.9644 36.685 40.9644 36.6758 40.9644 36.6666C40.9644 36.6574 40.9644 36.6482 40.9644 36.639C40.9644 36.6298 40.9644 36.6206 40.9644 36.6115C40.9644 36.6023 40.9644 36.5932 40.9644 36.584C40.9644 36.5749 40.9644 36.5658 40.9644 36.5567C40.9644 36.5476 40.9644 36.5385 40.9644 36.5294C40.9644 36.5203 40.9644 36.5112 40.9644 36.5021C40.9644 36.4931 40.9644 36.484 40.9644 36.475C40.9644 36.466 40.9644 36.4569 40.9644 36.4479C40.9644 36.4389 40.9644 36.4299 40.9644 36.4209C40.9644 36.4119 40.9644 36.4029 40.9644 36.394C40.9644 36.385 40.9644 36.3761 40.9644 36.3671C40.9644 36.3582 40.9644 36.3492 40.9644 36.3403C40.9644 36.3314 40.9644 36.3225 40.9644 36.3136C40.9644 36.3047 40.9644 36.2959 40.9644 36.287C40.9644 36.2781 40.9644 36.2693 40.9644 36.2604C40.9644 36.2516 40.9644 36.2428 40.9644 36.234C40.9644 36.2251 40.9644 36.2163 40.9644 36.2075C40.9644 36.1988 40.9644 36.19 40.9644 36.1812C40.9644 36.1725 40.9644 36.1637 40.9644 36.155C40.9644 36.1462 40.9644 36.1375 40.9644 36.1288C40.9644 36.1201 40.9644 36.1114 40.9644 36.1027C40.9644 36.094 40.9644 36.0853 40.9644 36.0767C40.9644 36.068 40.9644 36.0594 40.9644 36.0507C40.9644 36.0421 40.9644 36.0335 40.9644 36.0249C40.9644 36.0163 40.9644 36.0077 40.9644 35.9991C40.9644 35.9905 40.9644 35.9819 40.9644 35.9734C40.9644 35.9648 40.9644 35.9563 40.9644 35.9478C40.9644 35.9392 40.9644 35.9307 40.9644 35.9222C40.9644 35.9137 40.9644 35.9052 40.9644 35.8968C40.9644 35.8883 40.9644 35.8798 40.9644 35.8714C40.9644 35.8629 40.9644 35.8545 40.9644 35.8461C40.9644 35.8377 40.9644 35.8292 40.9644 35.8209C40.9644 35.8125 40.9644 35.8041 40.9644 35.7957C40.9644 35.7874 40.9644 35.779 40.9644 35.7707C40.9644 35.7623 40.9644 35.754 40.9644 35.7457C40.9644 35.7374 40.9644 35.7291 40.9644 35.7208C40.9644 35.7125 40.9644 35.7043 40.9644 35.696C40.9644 35.6877 40.9644 35.6795 40.9644 35.6713C40.9644 35.6631 40.9644 35.6548 40.9644 35.6466C40.9644 35.6384 40.9644 35.6303 40.9644 35.6221C40.9644 35.6139 40.9644 35.6058 40.9644 35.5976C40.9644 35.5895 40.9644 35.5814 40.9644 35.5732C40.9644 35.5651 40.9644 35.557 40.9644 35.549C40.9644 35.5409 40.9644 35.5328 40.9644 35.5247H39.4644C39.4644 35.5328 39.4644 35.5409 39.4644 35.549C39.4644 35.557 39.4644 35.5651 39.4644 35.5732C39.4644 35.5814 39.4644 35.5895 39.4644 35.5976C39.4644 35.6058 39.4644 35.6139 39.4644 35.6221C39.4644 35.6303 39.4644 35.6384 39.4644 35.6466C39.4644 35.6548 39.4644 35.6631 39.4644 35.6713C39.4644 35.6795 39.4644 35.6877 39.4644 35.696C39.4644 35.7043 39.4644 35.7125 39.4644 35.7208C39.4644 35.7291 39.4644 35.7374 39.4644 35.7457C39.4644 35.754 39.4644 35.7623 39.4644 35.7707C39.4644 35.779 39.4644 35.7874 39.4644 35.7957C39.4644 35.8041 39.4644 35.8125 39.4644 35.8209C39.4644 35.8292 39.4644 35.8377 39.4644 35.8461C39.4644 35.8545 39.4644 35.8629 39.4644 35.8714C39.4644 35.8798 39.4644 35.8883 39.4644 35.8968C39.4644 35.9052 39.4644 35.9137 39.4644 35.9222C39.4644 35.9307 39.4644 35.9392 39.4644 35.9478C39.4644 35.9563 39.4644 35.9648 39.4644 35.9734C39.4644 35.9819 39.4644 35.9905 39.4644 35.9991C39.4644 36.0077 39.4644 36.0163 39.4644 36.0249C39.4644 36.0335 39.4644 36.0421 39.4644 36.0507C39.4644 36.0594 39.4644 36.068 39.4644 36.0767C39.4644 36.0853 39.4644 36.094 39.4644 36.1027C39.4644 36.1114 39.4644 36.1201 39.4644 36.1288C39.4644 36.1375 39.4644 36.1462 39.4644 36.155C39.4644 36.1637 39.4644 36.1725 39.4644 36.1812C39.4644 36.19 39.4644 36.1988 39.4644 36.2075C39.4644 36.2163 39.4644 36.2251 39.4644 36.234C39.4644 36.2428 39.4644 36.2516 39.4644 36.2604C39.4644 36.2693 39.4644 36.2781 39.4644 36.287C39.4644 36.2959 39.4644 36.3047 39.4644 36.3136C39.4644 36.3225 39.4644 36.3314 39.4644 36.3403C39.4644 36.3492 39.4644 36.3582 39.4644 36.3671C39.4644 36.3761 39.4644 36.385 39.4644 36.394C39.4644 36.4029 39.4644 36.4119 39.4644 36.4209C39.4644 36.4299 39.4644 36.4389 39.4644 36.4479C39.4644 36.4569 39.4644 36.466 39.4644 36.475C39.4644 36.484 39.4644 36.4931 39.4644 36.5021C39.4644 36.5112 39.4644 36.5203 39.4644 36.5294C39.4644 36.5385 39.4644 36.5476 39.4644 36.5567C39.4644 36.5658 39.4644 36.5749 39.4644 36.584C39.4644 36.5932 39.4644 36.6023 39.4644 36.6115C39.4644 36.6206 39.4644 36.6298 39.4644 36.639C39.4644 36.6482 39.4644 36.6574 39.4644 36.6666C39.4644 36.6758 39.4644 36.685 39.4644 36.6942C39.4644 36.7034 39.4644 36.7127 39.4644 36.7219C39.4644 36.7312 39.4644 36.7404 39.4644 36.7497C39.4644 36.759 39.4644 36.7683 39.4644 36.7776C39.4644 36.7869 39.4644 36.7962 39.4644 36.8055C39.4644 36.8148 39.4644 36.8242 39.4644 36.8335C39.4644 36.8429 39.4644 36.8522 39.4644 36.8616C39.4644 36.8709 39.4644 36.8803 39.4644 36.8897C39.4644 36.8991 39.4644 36.9085 39.4644 36.9179C39.4644 36.9273 39.4644 36.9367 39.4644 36.9462C39.4644 36.9556 39.4644 36.9651 39.4644 36.9745C39.4644 36.984 39.4644 36.9934 39.4644 37.0029C39.4644 37.0124 39.4644 37.0219 39.4644 37.0314C39.4644 37.0409 39.4644 37.0504 39.4644 37.0599C39.4644 37.0694 39.4644 37.079 39.4644 37.0885C39.4644 37.098 39.4644 37.1076 39.4644 37.1172C39.4644 37.1267 39.4644 37.1363 39.4644 37.1459C39.4644 37.1555 39.4644 37.1651 39.4644 37.1747C39.4644 37.1843 39.4644 37.1939 39.4644 37.2035C39.4644 37.2132 39.4644 37.2228 39.4644 37.2325C39.4644 37.2421 39.4644 37.2518 39.4644 37.2614C39.4644 37.2711 39.4644 37.2808 39.4644 37.2905C39.4644 37.3002 39.4644 37.3099 39.4644 37.3196C39.4644 37.3293 39.4644 37.339 39.4644 37.3487C39.4644 37.3585 39.4644 37.3682 39.4644 37.378C39.4644 37.3877 39.4644 37.3975 39.4644 37.4073C39.4644 37.417 39.4644 37.4268 39.4644 37.4366C39.4644 37.4464 39.4644 37.4562 39.4644 37.466C39.4644 37.4758 39.4644 37.4857 39.4644 37.4955C39.4644 37.5053 39.4644 37.5152 39.4644 37.525C39.4644 37.5349 39.4644 37.5447 39.4644 37.5546C39.4644 37.5645 39.4644 37.5744 39.4644 37.5843C39.4644 37.5942 39.4644 37.6041 39.4644 37.614C39.4644 37.6239 39.4644 37.6338 39.4644 37.6437C39.4644 37.6537 39.4644 37.6636 39.4644 37.6736C39.4644 37.6835 39.4644 37.6935 39.4644 37.7034C39.4644 37.7134 39.4644 37.7234 39.4644 37.7334C39.4644 37.7434 39.4644 37.7534 39.4644 37.7634C39.4644 37.7734 39.4644 37.7834 39.4644 37.7934C39.4644 37.8034 39.4644 37.8135 39.4644 37.8235C39.4644 37.8336 39.4644 37.8436 39.4644 37.8537C39.4644 37.8637 39.4644 37.8738 39.4644 37.8839C39.4644 37.894 39.4644 37.9041 39.4644 37.9142C39.4644 37.9243 39.4644 37.9344 39.4644 37.9445C39.4644 37.9546 39.4644 37.9647 39.4644 37.9749C39.4644 37.985 39.4644 37.9952 39.4644 38.0053C39.4644 38.0155 39.4644 38.0256 39.4644 38.0358C39.4644 38.046 39.4644 38.0561 39.4644 38.0663C39.4644 38.0765 39.4644 38.0867 39.4644 38.0969C39.4644 38.1071 39.4644 38.1173 39.4644 38.1276C39.4644 38.1378 39.4644 38.148 39.4644 38.1583C39.4644 38.1685 39.4644 38.1788 39.4644 38.189C39.4644 38.1993 39.4644 38.2095 39.4644 38.2198C39.4644 38.2301 39.4644 38.2404 39.4644 38.2507C39.4644 38.261 39.4644 38.2713 39.4644 38.2816C39.4644 38.2919 39.4644 38.3022 39.4644 38.3125C39.4644 38.3228 39.4644 38.3332 39.4644 38.3435C39.4644 38.3539 39.4644 38.3642 39.4644 38.3746C39.4644 38.3849 39.4644 38.3953 39.4644 38.4057C39.4644 38.416 39.4644 38.4264 39.4644 38.4368C39.4644 38.4472 39.4644 38.4576 39.4644 38.468C39.4644 38.4784 39.4644 38.4888 39.4644 38.4992C39.4644 38.5097 39.4644 38.5201 39.4644 38.5305C39.4644 38.541 39.4644 38.5514 39.4644 38.5619C39.4644 38.5723 39.4644 38.5828 39.4644 38.5933C39.4644 38.6037 39.4644 38.6142 39.4644 38.6247C39.4644 38.6352 39.4644 38.6457 39.4644 38.6562C39.4644 38.6667 39.4644 38.6772 39.4644 38.6877C39.4644 38.6982 39.4644 38.7087 39.4644 38.7192C39.4644 38.7298 39.4644 38.7403 39.4644 38.7509C39.4644 38.7614 39.4644 38.772 39.4644 38.7825C39.4644 38.7931 39.4644 38.8036 39.4644 38.8142C39.4644 38.8248 39.4644 38.8354 39.4644 38.846C39.4644 38.8565 39.4644 38.8671 39.4644 38.8777C39.4644 38.8884 39.4644 38.899 39.4644 38.9096C39.4644 38.9202 39.4644 38.9308 39.4644 38.9415C39.4644 38.9521 39.4644 38.9627 39.4644 38.9734C39.4644 38.984 39.4644 38.9947 39.4644 39.0053C39.4644 39.016 39.4644 39.0267 39.4644 39.0373C39.4644 39.048 39.4644 39.0587 39.4644 39.0694C39.4644 39.0801 39.4644 39.0907 39.4644 39.1014C39.4644 39.1121 39.4644 39.1229 39.4644 39.1336C39.4644 39.1443 39.4644 39.155 39.4644 39.1657C39.4644 39.1765 39.4644 39.1872 39.4644 39.1979C39.4644 39.2087 39.4644 39.2194 39.4644 39.2302C39.4644 39.2409 39.4644 39.2517 39.4644 39.2624C39.4644 39.2732 39.4644 39.284 39.4644 39.2948C39.4644 39.3055 39.4644 39.3163 39.4644 39.3271C39.4644 39.3379 39.4644 39.3487 39.4644 39.3595C39.4644 39.3703 39.4644 39.3811 39.4644 39.3919C39.4644 39.4028 39.4644 39.4136 39.4644 39.4244C39.4644 39.4352 39.4644 39.4461 39.4644 39.4569C39.4644 39.4678 39.4644 39.4786 39.4644 39.4895C39.4644 39.5003 39.4644 39.5112 39.4644 39.522C39.4644 39.5329 39.4644 39.5438 39.4644 39.5547C39.4644 39.5655 39.4644 39.5764 39.4644 39.5873C39.4644 39.5982 39.4644 39.6091 39.4644 39.62C39.4644 39.6309 39.4644 39.6418 39.4644 39.6527C39.4644 39.6636 39.4644 39.6745 39.4644 39.6855C39.4644 39.6964 39.4644 39.7073 39.4644 39.7182C39.4644 39.7292 39.4644 39.7401 39.4644 39.7511C39.4644 39.762 39.4644 39.773 39.4644 39.7839C39.4644 39.7949 39.4644 39.8058 39.4644 39.8168C39.4644 39.8278 39.4644 39.8387 39.4644 39.8497C39.4644 39.8607 39.4644 39.8717 39.4644 39.8827C39.4644 39.8937 39.4644 39.9047 39.4644 39.9157C39.4644 39.9267 39.4644 39.9377 39.4644 39.9487C39.4644 39.9597 39.4644 39.9707 39.4644 39.9817C39.4644 39.9927 39.4644 40.0038 39.4644 40.0148C39.4644 40.0258 39.4644 40.0368 39.4644 40.0479C39.4644 40.0589 39.4644 40.07 39.4644 40.081C39.4644 40.0921 39.4644 40.1031 39.4644 40.1142C39.4644 40.1252 39.4644 40.1363 39.4644 40.1474C39.4644 40.1584 39.4644 40.1695 39.4644 40.1806C39.4644 40.1917 39.4644 40.2028 39.4644 40.2138C39.4644 40.2249 39.4644 40.236 39.4644 40.2471C39.4644 40.2582 39.4644 40.2693 39.4644 40.2804C39.4644 40.2915 39.4644 40.3026 39.4644 40.3138C39.4644 40.3249 39.4644 40.336 39.4644 40.3471C39.4644 40.3582 39.4644 40.3694 39.4644 40.3805C39.4644 40.3916 39.4644 40.4028 39.4644 40.4139C39.4644 40.4251 39.4644 40.4362 39.4644 40.4474C39.4644 40.4585 39.4644 40.4697 39.4644 40.4808C39.4644 40.492 39.4644 40.5031 39.4644 40.5143C39.4644 40.5255 39.4644 40.5366 39.4644 40.5478C39.4644 40.559 39.4644 40.5702 39.4644 40.5813C39.4644 40.5925 39.4644 40.6037 39.4644 40.6149C39.4644 40.6261 39.4644 40.6373 39.4644 40.6485C39.4644 40.6597 39.4644 40.6709 39.4644 40.6821C39.4644 40.6933 39.4644 40.7045 39.4644 40.7157C39.4644 40.7269 39.4644 40.7382 39.4644 40.7494C39.4644 40.7606 39.4644 40.7718 39.4644 40.783C39.4644 40.7943 39.4644 40.8055 39.4644 40.8167C39.4644 40.828 39.4644 40.8392 39.4644 40.8505C39.4644 40.8617 39.4644 40.8729 39.4644 40.8842C39.4644 40.8954 39.4644 40.9067 39.4644 40.918C39.4644 40.9292 39.4644 40.9405 39.4644 40.9517C39.4644 40.963 39.4644 40.9743 39.4644 40.9855C39.4644 40.9968 39.4644 41.0081 39.4644 41.0193C39.4644 41.0306 39.4644 41.0419 39.4644 41.0532C39.4644 41.0645 39.4644 41.0757 39.4644 41.087C39.4644 41.0983 39.4644 41.1096 39.4644 41.1209C39.4644 41.1322 39.4644 41.1435 39.4644 41.1548C39.4644 41.1661 39.4644 41.1774 39.4644 41.1887C39.4644 41.2 39.4644 41.2113 39.4644 41.2226C39.4644 41.2339 39.4644 41.2453 39.4644 41.2566C39.4644 41.2679 39.4644 41.2792 39.4644 41.2905C39.4644 41.3019 39.4644 41.3132 39.4644 41.3245C39.4644 41.3358 39.4644 41.3472 39.4644 41.3585C39.4644 41.3698 39.4644 41.3812 39.4644 41.3925C39.4644 41.4038 39.4644 41.4152 39.4644 41.4265C39.4644 41.4379 39.4644 41.4492 39.4644 41.4606C39.4644 41.4719 39.4644 41.4833 39.4644 41.4946C39.4644 41.506 39.4644 41.5173 39.4644 41.5287C39.4644 41.54 39.4644 41.5514 39.4644 41.5628C39.4644 41.5741 39.4644 41.5855 39.4644 41.5968C39.4644 41.6082 39.4644 41.6196 39.4644 41.631C39.4644 41.6423 39.4644 41.6537 39.4644 41.6651C39.4644 41.6764 39.4644 41.6878 39.4644 41.6992C39.4644 41.7106 39.4644 41.722 39.4644 41.7333C39.4644 41.7447 39.4644 41.7561 39.4644 41.7675C39.4644 41.7789 39.4644 41.7903 39.4644 41.8016C39.4644 41.813 39.4644 41.8244 39.4644 41.8358C39.4644 41.8472 39.4644 41.8586 39.4644 41.87C39.4644 41.8814 39.4644 41.8928 39.4644 41.9042C39.4644 41.9156 39.4644 41.927 39.4644 41.9384C39.4644 41.9498 39.4644 41.9612 39.4644 41.9726C39.4644 41.984 39.4644 41.9954 39.4644 42.0068C39.4644 42.0182 39.4644 42.0296 39.4644 42.0411C39.4644 42.0525 39.4644 42.0639 39.4644 42.0753C39.4644 42.0867 39.4644 42.0981 39.4644 42.1095C39.4644 42.121 39.4644 42.1324 39.4644 42.1438C39.4644 42.1552 39.4644 42.1666 39.4644 42.178C39.4644 42.1895 39.4644 42.2009 39.4644 42.2123C39.4644 42.2237 39.4644 42.2352 39.4644 42.2466C39.4644 42.258 39.4644 42.2694 39.4644 42.2809C39.4644 42.2923 39.4644 42.3037 39.4644 42.3151C39.4644 42.3266 39.4644 42.338 39.4644 42.3494C39.4644 42.3609 39.4644 42.3723 39.4644 42.3837C39.4644 42.3951 39.4644 42.4066 39.4644 42.418C39.4644 42.4294 39.4644 42.4409 39.4644 42.4523C39.4644 42.4637 39.4644 42.4752 39.4644 42.4866C39.4644 42.498 39.4644 42.5095 39.4644 42.5209C39.4644 42.5324 39.4644 42.5438 39.4644 42.5552C39.4644 42.5667 39.4644 42.5781 39.4644 42.5895C39.4644 42.601 39.4644 42.6124 39.4644 42.6239C39.4644 42.6353 39.4644 42.6467 39.4644 42.6582C39.4644 42.6696 39.4644 42.681 39.4644 42.6925C39.4644 42.7039 39.4644 42.7154 39.4644 42.7268C39.4644 42.7382 39.4644 42.7497 39.4644 42.7611C39.4644 42.7726 39.4644 42.784 39.4644 42.7954C39.4644 42.8069 39.4644 42.8183 39.4644 42.8298C39.4644 42.8412 39.4644 42.8526 39.4644 42.8641C39.4644 42.8755 39.4644 42.887 39.4644 42.8984C39.4644 42.9098 39.4644 42.9213 39.4644 42.9327C39.4644 42.9441 39.4644 42.9556 39.4644 42.967C39.4644 42.9785 39.4644 42.9899 39.4644 43.0013C39.4644 43.0128 39.4644 43.0242 39.4644 43.0356C39.4644 43.0471 39.4644 43.0585 39.4644 43.07C39.4644 43.0814 39.4644 43.0928 39.4644 43.1043C39.4644 43.1157 39.4644 43.1271 39.4644 43.1386C39.4644 43.15 39.4644 43.1614 39.4644 43.1729C39.4644 43.1843 39.4644 43.1957 39.4644 43.2071C39.4644 43.2186 39.4644 43.23 39.4644 43.2414C39.4644 43.2529 39.4644 43.2643 39.4644 43.2757C39.4644 43.2871 39.4644 43.2986 39.4644 43.31C39.4644 43.3214 39.4644 43.3328 39.4644 43.3443C39.4644 43.3557 39.4644 43.3671 39.4644 43.3785C39.4644 43.39 39.4644 43.4014 39.4644 43.4128C39.4644 43.4242 39.4644 43.4356 39.4644 43.4471C39.4644 43.4585 39.4644 43.4699 39.4644 43.4813C39.4644 43.4927 39.4644 43.5041 39.4644 43.5155C39.4644 43.5269 39.4644 43.5384 39.4644 43.5498C39.4644 43.5612 39.4644 43.5726 39.4644 43.584C39.4644 43.5954 39.4644 43.6068 39.4644 43.6182C39.4644 43.6296 39.4644 43.641 39.4644 43.6524C39.4644 43.6638 39.4644 43.6752 39.4644 43.6866C39.4644 43.698 39.4644 43.7094 39.4644 43.7208C39.4644 43.7322 39.4644 43.7436 39.4644 43.755C39.4644 43.7664 39.4644 43.7777 39.4644 43.7891C39.4644 43.8005 39.4644 43.8119 39.4644 43.8233C39.4644 43.8347 39.4644 43.846 39.4644 43.8574C39.4644 43.8688 39.4644 43.8802 39.4644 43.8916C39.4644 43.9029 39.4644 43.9143 39.4644 43.9257C39.4644 43.9371 39.4644 43.9484 39.4644 43.9598C39.4644 43.9712 39.4644 43.9825 39.4644 43.9939C39.4644 44.0052 39.4644 44.0166 39.4644 44.028C39.4644 44.0393 39.4644 44.0507 39.4644 44.062C39.4644 44.0734 39.4644 44.0847 39.4644 44.0961C39.4644 44.1074 39.4644 44.1188 39.4644 44.1301C39.4644 44.1415 39.4644 44.1528 39.4644 44.1642C39.4644 44.1755 39.4644 44.1868 39.4644 44.1982C39.4644 44.2095 39.4644 44.2208 39.4644 44.2322C39.4644 44.2435 39.4644 44.2548 39.4644 44.2661C39.4644 44.2775 39.4644 44.2888 39.4644 44.3001C39.4644 44.3114 39.4644 44.3227 39.4644 44.3341C39.4644 44.3454 39.4644 44.3567 39.4644 44.368C39.4644 44.3793 39.4644 44.3906 39.4644 44.4019C39.4644 44.4132 39.4644 44.4245 39.4644 44.4358C39.4644 44.4471 39.4644 44.4584 39.4644 44.4697C39.4644 44.481 39.4644 44.4923 39.4644 44.5035C39.4644 44.5148 39.4644 44.5261 39.4644 44.5374C39.4644 44.5487 39.4644 44.5599 39.4644 44.5712C39.4644 44.5825 39.4644 44.5937 39.4644 44.605C39.4644 44.6163 39.4644 44.6275 39.4644 44.6388C39.4644 44.65 39.4644 44.6613 39.4644 44.6726C39.4644 44.6838 39.4644 44.6951 39.4644 44.7063C39.4644 44.7175 39.4644 44.7288 39.4644 44.74C39.4644 44.7513 39.4644 44.7625 39.4644 44.7737C39.4644 44.785 39.4644 44.7962 39.4644 44.8074C39.4644 44.8186 39.4644 44.8298 39.4644 44.8411C39.4644 44.8523 39.4644 44.8635 39.4644 44.8747C39.4644 44.8859 39.4644 44.8971 39.4644 44.9083C39.4644 44.9195 39.4644 44.9307 39.4644 44.9419C39.4644 44.9531 39.4644 44.9643 39.4644 44.9755C39.4644 44.9867 39.4644 44.9978 39.4644 45.009C39.4644 45.0202 39.4644 45.0314 39.4644 45.0425C39.4644 45.0537 39.4644 45.0649 39.4644 45.076C39.4644 45.0872 39.4644 45.0983 39.4644 45.1095C39.4644 45.1207 39.4644 45.1318 39.4644 45.1429C39.4644 45.1541 39.4644 45.1652 39.4644 45.1764C39.4644 45.1875 39.4644 45.1986 39.4644 45.2098C39.4644 45.2209 39.4644 45.232 39.4644 45.2431C39.4644 45.2542 39.4644 45.2654 39.4644 45.2765C39.4644 45.2876 39.4644 45.2987 39.4644 45.3098C39.4644 45.3209 39.4644 45.332 39.4644 45.3431C39.4644 45.3542 39.4644 45.3652 39.4644 45.3763C39.4644 45.3874 39.4644 45.3985 39.4644 45.4096C39.4644 45.4206 39.4644 45.4317 39.4644 45.4428C39.4644 45.4538 39.4644 45.4649 39.4644 45.4759C39.4644 45.487 39.4644 45.498 39.4644 45.5091C39.4644 45.5201 39.4644 45.5312 39.4644 45.5422C39.4644 45.5532 39.4644 45.5642 39.4644 45.5753C39.4644 45.5863 39.4644 45.5973 39.4644 45.6083C39.4644 45.6193 39.4644 45.6303 39.4644 45.6413C39.4644 45.6523 39.4644 45.6633 39.4644 45.6743C39.4644 45.6853 39.4644 45.6963 39.4644 45.7073C39.4644 45.7183 39.4644 45.7293 39.4644 45.7402C39.4644 45.7512 39.4644 45.7622 39.4644 45.7731C39.4644 45.7841 39.4644 45.795 39.4644 45.806C39.4644 45.8169 39.4644 45.8279 39.4644 45.8388C39.4644 45.8498 39.4644 45.8607 39.4644 45.8716C39.4644 45.8825 39.4644 45.8935 39.4644 45.9044C39.4644 45.9153 39.4644 45.9262 39.4644 45.9371C39.4644 45.948 39.4644 45.9589 39.4644 45.9698C39.4644 45.9807 39.4644 45.9916 39.4644 46.0025C39.4644 46.0133 39.4644 46.0242 39.4644 46.0351C39.4644 46.046 39.4644 46.0568 39.4644 46.0677C39.4644 46.0785 39.4644 46.0894 39.4644 46.1002C39.4644 46.1111 39.4644 46.1219 39.4644 46.1328C39.4644 46.1436 39.4644 46.1544 39.4644 46.1652C39.4644 46.1761 39.4644 46.1869 39.4644 46.1977C39.4644 46.2085 39.4644 46.2193 39.4644 46.2301C39.4644 46.2409 39.4644 46.2517 39.4644 46.2625C39.4644 46.2732 39.4644 46.284 39.4644 46.2948C39.4644 46.3056 39.4644 46.3163 39.4644 46.3271C39.4644 46.3378 39.4644 46.3486 39.4644 46.3593C39.4644 46.3701 39.4644 46.3808 39.4644 46.3915C39.4644 46.4023 39.4644 46.413 39.4644 46.4237C39.4644 46.4344 39.4644 46.4452 39.4644 46.4559C39.4644 46.4666 39.4644 46.4773 39.4644 46.4879C39.4644 46.4986 39.4644 46.5093 39.4644 46.52C39.4644 46.5307 39.4644 46.5414 39.4644 46.552C39.4644 46.5627 39.4644 46.5733 39.4644 46.584C39.4644 46.5946 39.4644 46.6053 39.4644 46.6159C39.4644 46.6266 39.4644 46.6372 39.4644 46.6478C39.4644 46.6584 39.4644 46.669 39.4644 46.6796C39.4644 46.6903 39.4644 46.7009 39.4644 46.7115C39.4644 46.722 39.4644 46.7326 39.4644 46.7432C39.4644 46.7538 39.4644 46.7644 39.4644 46.7749C39.4644 46.7855 39.4644 46.796 39.4644 46.8066C39.4644 46.8171 39.4644 46.8277 39.4644 46.8382C39.4644 46.8488 39.4644 46.8593 39.4644 46.8698C39.4644 46.8803 39.4644 46.8908 39.4644 46.9013C39.4644 46.9118 39.4644 46.9223 39.4644 46.9328C39.4644 46.9433 39.4644 46.9538 39.4644 46.9643C39.4644 46.9748 39.4644 46.9852 39.4644 46.9957C39.4644 47.0061 39.4644 47.0166 39.4644 47.027C39.4644 47.0375 39.4644 47.0479 39.4644 47.0583C39.4644 47.0688 39.4644 47.0792 39.4644 47.0896C39.4644 47.1 39.4644 47.1104 39.4644 47.1208C39.4644 47.1312 39.4644 47.1416 39.4644 47.152C39.4644 47.1623 39.4644 47.1727 39.4644 47.1831C39.4644 47.1934 39.4644 47.2038 39.4644 47.2141C39.4644 47.2245 39.4644 47.2348 39.4644 47.2452C39.4644 47.2555 39.4644 47.2658 39.4644 47.2761C39.4644 47.2864 39.4644 47.2968 39.4644 47.307C39.4644 47.3173 39.4644 47.3276 39.4644 47.3379C39.4644 47.3482 39.4644 47.3585 39.4644 47.3687C39.4644 47.379 39.4644 47.3892 39.4644 47.3995C39.4644 47.4097 39.4644 47.42 39.4644 47.4302C39.4644 47.4404 39.4644 47.4507 39.4644 47.4609C39.4644 47.4711 39.4644 47.4813 39.4644 47.4915C39.4644 47.5017 39.4644 47.5119 39.4644 47.522C39.4644 47.5322 39.4644 47.5424 39.4644 47.5525C39.4644 47.5627 39.4644 47.5729 39.4644 47.583C39.4644 47.5931 39.4644 47.6033 39.4644 47.6134C39.4644 47.6235 39.4644 47.6336 39.4644 47.6437C39.4644 47.6538 39.4644 47.6639 39.4644 47.674C39.4644 47.6841 39.4644 47.6942 39.4644 47.7043C39.4644 47.7143 39.4644 47.7244 39.4644 47.7344C39.4644 47.7445 39.4644 47.7545 39.4644 47.7646C39.4644 47.7746 39.4644 47.7846 39.4644 47.7946C39.4644 47.8046 39.4644 47.8146 39.4644 47.8246C39.4644 47.8346 39.4644 47.8446 39.4644 47.8546C39.4644 47.8646 39.4644 47.8745 39.4644 47.8845C39.4644 47.8945 39.4644 47.9044 39.4644 47.9143C39.4644 47.9243 39.4644 47.9342 39.4644 47.9441C39.4644 47.954 39.4644 47.9639 39.4644 47.9738C39.4644 47.9837 39.4644 47.9936 39.4644 48.0035C39.4644 48.0134 39.4644 48.0233 39.4644 48.0331C39.4644 48.043 39.4644 48.0528 39.4644 48.0627C39.4644 48.0725 39.4644 48.0823 39.4644 48.0922C39.4644 48.102 39.4644 48.1118 39.4644 48.1216C39.4644 48.1314 39.4644 48.1412 39.4644 48.151C39.4644 48.1607 39.4644 48.1705 39.4644 48.1803C39.4644 48.19 39.4644 48.1998 39.4644 48.2095C39.4644 48.2193 39.4644 48.229 39.4644 48.2387C39.4644 48.2484 39.4644 48.2581 39.4644 48.2678C39.4644 48.2775 39.4644 48.2872 39.4644 48.2969C39.4644 48.3066 39.4644 48.3162 39.4644 48.3259C39.4644 48.3356 39.4644 48.3452 39.4644 48.3548C39.4644 48.3645 39.4644 48.3741 39.4644 48.3837C39.4644 48.3933 39.4644 48.4029 39.4644 48.4125C39.4644 48.4221 39.4644 48.4317 39.4644 48.4413C39.4644 48.4508 39.4644 48.4604 39.4644 48.47C39.4644 48.4795 39.4644 48.489 39.4644 48.4986C39.4644 48.5081 39.4644 48.5176 39.4644 48.5271C39.4644 48.5366 39.4644 48.5461 39.4644 48.5556C39.4644 48.5651 39.4644 48.5746 39.4644 48.584C39.4644 48.5935 39.4644 48.6029 39.4644 48.6124C39.4644 48.6218 39.4644 48.6313 39.4644 48.6407C39.4644 48.6501 39.4644 48.6595 39.4644 48.6689C39.4644 48.6783 39.4644 48.6877 39.4644 48.6971C39.4644 48.7064 39.4644 48.7158 39.4644 48.7251C39.4644 48.7345 39.4644 48.7438 39.4644 48.7532C39.4644 48.7625 39.4644 48.7718 39.4644 48.7811C39.4644 48.7904 39.4644 48.7997 39.4644 48.809C39.4644 48.8183 39.4644 48.8276 39.4644 48.8368C39.4644 48.8461 39.4644 48.8553 39.4644 48.8646C39.4644 48.8738 39.4644 48.883 39.4644 48.8922C39.4644 48.9014 39.4644 48.9106 39.4644 48.9198C39.4644 48.929 39.4644 48.9382 39.4644 48.9474C39.4644 48.9565 39.4644 48.9657 39.4644 48.9748C39.4644 48.984 39.4644 48.9931 39.4644 49.0022C39.4644 49.0113 39.4644 49.0205 39.4644 49.0295C39.4644 49.0386 39.4644 49.0477 39.4644 49.0568C39.4644 49.0659 39.4644 49.0749 39.4644 49.084C39.4644 49.093 39.4644 49.1021 39.4644 49.1111C39.4644 49.1201 39.4644 49.1291 39.4644 49.1381C39.4644 49.1471 39.4644 49.1561 39.4644 49.1651C39.4644 49.174 39.4644 49.183 39.4644 49.1919C39.4644 49.2009 39.4644 49.2098 39.4644 49.2187C39.4644 49.2277 39.4644 49.2366 39.4644 49.2455C39.4644 49.2544 39.4644 49.2633 39.4644 49.2721C39.4644 49.281 39.4644 49.2899 39.4644 49.2987C39.4644 49.3076 39.4644 49.3164 39.4644 49.3252C39.4644 49.3341 39.4644 49.3429 39.4644 49.3517C39.4644 49.3605 39.4644 49.3692 39.4644 49.378C39.4644 49.3868 39.4644 49.3955 39.4644 49.4043C39.4644 49.413 39.4644 49.4218 39.4644 49.4305C39.4644 49.4392 39.4644 49.4479 39.4644 49.4566C39.4644 49.4653 39.4644 49.474 39.4644 49.4827C39.4644 49.4913 39.4644 49.5 39.4644 49.5086C39.4644 49.5173 39.4644 49.5259 39.4644 49.5345C39.4644 49.5431 39.4644 49.5517 39.4644 49.5603C39.4644 49.5689 39.4644 49.5775 39.4644 49.5861C39.4644 49.5946 39.4644 49.6032 39.4644 49.6117C39.4644 49.6202 39.4644 49.6288 39.4644 49.6373C39.4644 49.6458 39.4644 49.6543 39.4644 49.6628C39.4644 49.6713 39.4644 49.6797 39.4644 49.6882C39.4644 49.6966 39.4644 49.7051 39.4644 49.7135C39.4644 49.7219 39.4644 49.7304 39.4644 49.7388C39.4644 49.7472 39.4644 49.7555 39.4644 49.7639C39.4644 49.7723 39.4644 49.7806 39.4644 49.789C39.4644 49.7973 39.4644 49.8057 39.4644 49.814C39.4644 49.8223 39.4644 49.8306 39.4644 49.8389C39.4644 49.8472 39.4644 49.8555 39.4644 49.8637C39.4644 49.872 39.4644 49.8803 39.4644 49.8885C39.4644 49.8967 39.4644 49.9049 39.4644 49.9132C39.4644 49.9214 39.4644 49.9296 39.4644 49.9377C39.4644 49.9459 39.4644 49.9541 39.4644 49.9622C39.4644 49.9704 39.4644 49.9785 39.4644 49.9866C39.4644 49.9948 39.4644 50.0029 39.4644 50.011C39.4644 50.0191 39.4644 50.0271 39.4644 50.0352C39.4644 50.0433 39.4644 50.0513 39.4644 50.0594C39.4644 50.0674 39.4644 50.0754 39.4644 50.0834C39.4644 50.0914 39.4644 50.0994 39.4644 50.1074C39.4644 50.1154 39.4644 50.1233 39.4644 50.1313C39.4644 50.1392 39.4644 50.1472 39.4644 50.1551C39.4644 50.163 39.4644 50.1709 39.4644 50.1788C39.4644 50.1867 39.4644 50.1946 39.4644 50.2024C39.4644 50.2103 39.4644 50.2181 39.4644 50.226C39.4644 50.2338 39.4644 50.2416 39.4644 50.2494C39.4644 50.2572 39.4644 50.265 39.4644 50.2728C39.4644 50.2805 39.4644 50.2883 39.4644 50.296C39.4644 50.3038 39.4644 50.3115 39.4644 50.3192C39.4644 50.3269 39.4644 50.3346 39.4644 50.3423C39.4644 50.35 39.4644 50.3576 39.4644 50.3653C39.4644 50.3729 39.4644 50.3806 39.4644 50.3882C39.4644 50.3958 39.4644 50.4034 39.4644 50.411C39.4644 50.4186 39.4644 50.4262 39.4644 50.4337C39.4644 50.4413 39.4644 50.4488 39.4644 50.4563C39.4644 50.4639 39.4644 50.4714 39.4644 50.4789C39.4644 50.4864 39.4644 50.4939 39.4644 50.5013C39.4644 50.5088 39.4644 50.5162 39.4644 50.5237C39.4644 50.5311 39.4644 50.5385 39.4644 50.5459C39.4644 50.5533 39.4644 50.5607 39.4644 50.5681C39.4644 50.5754 39.4644 50.5828 39.4644 50.5901C39.4644 50.5975 39.4644 50.6048 39.4644 50.6121C39.4644 50.6194 39.4644 50.6267 39.4644 50.634C39.4644 50.6412 39.4644 50.6485 39.4644 50.6557C39.4644 50.663 39.4644 50.6702 39.4644 50.6774C39.4644 50.6846 39.4644 50.6918 39.4644 50.699C39.4644 50.7062 39.4644 50.7133 39.4644 50.7205C39.4644 50.7276 39.4644 50.7348 39.4644 50.7419C39.4644 50.749 39.4644 50.7561 39.4644 50.7632C39.4644 50.7703 39.4644 50.7773 39.4644 50.7844C39.4644 50.7914 39.4644 50.7984 39.4644 50.8055C39.4644 50.8125 39.4644 50.8195 39.4644 50.8265C39.4644 50.8334 39.4644 50.8404 39.4644 50.8473C39.4644 50.8543 39.4644 50.8612 39.4644 50.8681C39.4644 50.8751 39.4644 50.882 39.4644 50.8888C39.4644 50.8957 39.4644 50.9026 39.4644 50.9094C39.4644 50.9163 39.4644 50.9231 39.4644 50.9299C39.4644 50.9367 39.4644 50.9435 39.4644 50.9503C39.4644 50.9571 39.4644 50.9639 39.4644 50.9706C39.4644 50.9774 39.4644 50.9841 39.4644 50.9908H40.9644ZM40.9644 35.5247C40.9644 32.6945 39.5506 30.436 37.922 29.2297C37.1132 28.6306 36.1946 28.25 35.3208 28.25C34.4021 28.25 33.5615 28.6802 33.0994 29.6044L34.441 30.2752C34.6234 29.9105 34.9105 29.75 35.3208 29.75C35.7762 29.75 36.3881 29.9602 37.0292 30.435C38.3005 31.3768 39.4644 33.1997 39.4644 35.5247H40.9644ZM33.0994 29.6044C32.3082 31.1866 32.5857 32.9307 33.8843 34.2292C35.1486 35.4935 37.3063 36.2747 40.2144 36.2747V34.7747C37.5375 34.7747 35.8287 34.0523 34.9449 33.1686C34.0955 32.3191 33.9433 31.2706 34.441 30.2752L33.0994 29.6044Z" fill="#808080"/>
<path d="M40.2148 35.5248L39.4663 35.478L39.4195 36.2266L40.1681 36.2734L40.2148 35.5248ZM44.511 29.0806L44.4281 29.8261L44.511 29.0806ZM40.9634 35.5716C41.0313 34.4851 41.3185 32.894 41.9303 31.6444C42.5488 30.3809 43.3573 29.7071 44.4281 29.8261L44.5938 28.3352C42.5714 28.1105 41.3035 29.5131 40.583 30.9849C39.8558 32.4705 39.5416 34.2732 39.4663 35.478L40.9634 35.5716ZM44.4281 29.8261C45.1658 29.908 45.5694 30.2536 45.7613 30.6535C45.9653 31.0789 45.9825 31.6802 45.7024 32.3267C45.1568 33.5858 43.4564 34.9759 40.2616 34.7763L40.1681 36.2734C43.8471 36.5033 46.228 34.8862 47.0787 32.9231C47.4967 31.9586 47.5408 30.8952 47.1138 30.0049C46.6746 29.0892 45.7894 28.4681 44.5938 28.3352L44.4281 29.8261Z" fill="#808080"/>
</g>
<defs>
<filter id="filter0_d_37_1538" x="0" y="0" width="80" height="80" filterUnits="userSpaceOnUse" color-interpolation-filters="sRGB">
<feFlood flood-opacity="0" result="BackgroundImageFix"/>
<feColorMatrix in="SourceAlpha" type="matrix" values="0 0 0 0 0 0 0 0 0 0 0 0 0 0 0 0 0 0 127 0" result="hardAlpha"/>
<feOffset/>
<feGaussianBlur stdDeviation="8"/>
<feColorMatrix type="matrix" values="0 0 0 0 0 0 0 0 0 0 0 0 0 0 0 0 0 0 0.08 0"/>
<feBlend mode="normal" in2="BackgroundImageFix" result="effect1_dropShadow_37_1538"/>
<feBlend mode="normal" in="SourceGraphic" in2="effect1_dropShadow_37_1538" result="shape"/>
</filter>
</defs>
</svg>
