<svg width="21" height="18" viewBox="0 0 21 18" fill="none" xmlns="http://www.w3.org/2000/svg">
<path d="M0.804654 12.8028C0.956277 15.7455 3.30547 17.9836 6.25139 17.9888C7.6147 17.9914 8.97801 17.9894 10.342 17.9894C11.6949 17.9894 13.0484 17.9568 14.3994 17.9999C15.451 18.0331 16.2286 17.5886 16.8722 16.815C17.4214 16.1541 17.8698 15.4241 18.3038 14.687C18.7398 13.9479 19.2865 13.3164 20.0823 12.9912C20.6602 12.7546 20.8639 12.4079 20.7851 11.8056C20.7324 11.4009 20.7337 11.3651 20.342 11.4772C19.1459 11.82 17.957 12.1902 16.7531 12.5024C16.0321 12.6894 15.3898 12.9586 14.9245 13.5693C14.8145 13.7133 14.659 13.8228 14.5211 13.9447C14.2432 14.1904 13.912 14.3318 13.5482 14.3468C12.997 14.3696 12.4452 14.3566 11.8934 14.3585C11.7059 14.3592 11.6168 14.2679 11.6174 14.0789C11.6194 13.6455 11.622 13.2121 11.6148 12.7787C11.6109 12.5506 11.7287 12.4711 11.935 12.4711C12.2272 12.4711 12.5194 12.4633 12.8116 12.4698C13.0178 12.4743 13.1851 12.4144 13.338 12.2684C14.0551 11.5853 14.6974 10.8417 15.2089 9.99117C15.831 8.95685 15.9618 7.88602 15.4523 6.76371C14.6714 5.04505 13.366 3.77544 11.9083 2.64596C11.6877 2.47455 11.6018 2.32335 11.6109 2.06395C11.6239 1.68528 11.6265 1.30466 11.6064 0.926649C11.5758 0.368752 11.1691 -0.0209932 10.6719 0.00246973C10.1793 0.0252809 9.83374 0.417634 9.82268 0.969013C9.81812 1.19647 9.81422 1.42459 9.82203 1.65139C9.83049 1.90036 9.74199 1.98313 9.4895 1.91014C8.91814 1.74394 8.34289 1.59143 7.76632 1.44349C7.65049 1.41351 7.50538 1.30401 7.40776 1.43827C7.32642 1.54972 7.44486 1.66182 7.49692 1.76284C8.16914 3.06764 8.73724 4.41285 9.06847 5.84735C9.3561 7.09089 9.45241 8.32856 8.93506 9.54928C8.55698 10.4422 8.05916 11.2647 7.5301 12.0716C7.47219 12.1595 7.36937 12.2469 7.41883 12.3609C7.47674 12.4965 7.62121 12.4652 7.73574 12.4659C8.30905 12.4704 8.883 12.4743 9.45631 12.4685C9.714 12.4659 9.83179 12.5669 9.82398 12.8348C9.81162 13.2245 9.81487 13.6149 9.82268 14.0053C9.82723 14.2458 9.74069 14.367 9.48429 14.3638C8.7919 14.3559 8.09886 14.38 7.40711 14.354C6.51364 14.3207 5.82125 13.6436 5.7822 12.7618C5.76724 12.4255 5.63579 12.3401 5.32733 12.3427C3.96402 12.3531 2.60071 12.3459 1.2374 12.3479C0.837842 12.3485 0.784481 12.4098 0.804654 12.8028Z" fill="url(#paint0_linear_504_1409)"/>
<defs>
<linearGradient id="paint0_linear_504_1409" x1="2.1524" y1="6.97652" x2="19.7203" y2="6.97652" gradientUnits="userSpaceOnUse">
<stop stop-color="#1CB0AB"/>
<stop offset="1" stop-color="#33A5C9"/>
</linearGradient>
</defs>
</svg>
