<svg width="15" height="15" viewBox="0 0 15 15" fill="none" xmlns="http://www.w3.org/2000/svg">
<path d="M7.66667 14.3333C11.3486 14.3333 14.3333 11.3486 14.3333 7.66667C14.3333 3.98477 11.3486 1 7.66667 1C3.98477 1 1 3.98477 1 7.66667C1 11.3486 3.98477 14.3333 7.66667 14.3333Z" stroke="#C85C41" stroke-width="1.25" stroke-miterlimit="10"/>
<path d="M7.60116 4.76807C7.60116 4.73211 7.63031 4.70297 7.66626 4.70297C7.70221 4.70297 7.73136 4.73211 7.73136 4.76807C7.73136 4.80402 7.70221 4.83317 7.66626 4.83317C7.63031 4.83317 7.60116 4.80402 7.60116 4.76807Z" fill="#C85C41" stroke="#C85C41" stroke-width="1.7967"/>
<path d="M7.66634 10.9999V6.83325H6.83301" stroke="#C85C41" stroke-width="1.25" stroke-miterlimit="10"/>
<path d="M6.50781 10.855H8.82665" stroke="#C85C41" stroke-width="1.25" stroke-miterlimit="10"/>
</svg>
