<svg width="31" height="31" viewBox="0 0 31 31" fill="none" xmlns="http://www.w3.org/2000/svg">
<mask id="path-1-inside-1_37_2529" fill="white">
<path d="M27.5574 1.22368C28.7811 1.22368 29.7763 2.21895 29.7763 3.44263V27.5574C29.7763 28.7811 28.7811 29.7763 27.5574 29.7763H3.44263C2.21895 29.7763 1.22368 28.7811 1.22368 27.5574V3.44263C1.22368 2.21895 2.21895 1.22368 3.44263 1.22368H27.5574ZM27.5574 0H3.44263C1.54184 0 0 1.54184 0 3.44263V27.5574C0 29.4582 1.54184 31 3.44263 31H27.5574C29.4582 31 31 29.4582 31 27.5574V3.44263C31 1.54184 29.4582 0 27.5574 0Z"/>
</mask>
<path d="M27.5574 1.22368C28.7811 1.22368 29.7763 2.21895 29.7763 3.44263V27.5574C29.7763 28.7811 28.7811 29.7763 27.5574 29.7763H3.44263C2.21895 29.7763 1.22368 28.7811 1.22368 27.5574V3.44263C1.22368 2.21895 2.21895 1.22368 3.44263 1.22368H27.5574ZM27.5574 0H3.44263C1.54184 0 0 1.54184 0 3.44263V27.5574C0 29.4582 1.54184 31 3.44263 31H27.5574C29.4582 31 31 29.4582 31 27.5574V3.44263C31 1.54184 29.4582 0 27.5574 0Z" fill="black"/>
<path d="M27.5574 2.72368C27.9526 2.72368 28.2763 3.04738 28.2763 3.44263H31.2763C31.2763 1.39052 29.6095 -0.276316 27.5574 -0.276316V2.72368ZM28.2763 3.44263V27.5574H31.2763V3.44263H28.2763ZM28.2763 27.5574C28.2763 27.9526 27.9526 28.2763 27.5574 28.2763V31.2763C29.6095 31.2763 31.2763 29.6095 31.2763 27.5574H28.2763ZM27.5574 28.2763H3.44263V31.2763H27.5574V28.2763ZM3.44263 28.2763C3.04738 28.2763 2.72368 27.9526 2.72368 27.5574H-0.276316C-0.276316 29.6095 1.39052 31.2763 3.44263 31.2763V28.2763ZM2.72368 27.5574V3.44263H-0.276316V27.5574H2.72368ZM2.72368 3.44263C2.72368 3.04737 3.04737 2.72368 3.44263 2.72368V-0.276316C1.39052 -0.276316 -0.276316 1.39052 -0.276316 3.44263H2.72368ZM3.44263 2.72368H27.5574V-0.276316H3.44263V2.72368ZM27.5574 -1.5H3.44263V1.5H27.5574V-1.5ZM3.44263 -1.5C0.713415 -1.5 -1.5 0.713415 -1.5 3.44263H1.5C1.5 2.37027 2.37027 1.5 3.44263 1.5V-1.5ZM-1.5 3.44263V27.5574H1.5V3.44263H-1.5ZM-1.5 27.5574C-1.5 30.2866 0.713414 32.5 3.44263 32.5V29.5C2.37027 29.5 1.5 28.6297 1.5 27.5574H-1.5ZM3.44263 32.5H27.5574V29.5H3.44263V32.5ZM27.5574 32.5C30.2866 32.5 32.5 30.2866 32.5 27.5574H29.5C29.5 28.6297 28.6297 29.5 27.5574 29.5V32.5ZM32.5 27.5574V3.44263H29.5V27.5574H32.5ZM32.5 3.44263C32.5 0.713414 30.2866 -1.5 27.5574 -1.5V1.5C28.6297 1.5 29.5 2.37027 29.5 3.44263H32.5Z" fill="#333333" mask="url(#path-1-inside-1_37_2529)"/>
<path d="M0.408203 8.97363H29.7766" stroke="#333333" stroke-width="1.5" stroke-miterlimit="10"/>
<path d="M5.71094 15.5409C5.71094 13.7869 7.30173 12.3674 9.26778 12.3674C11.2338 12.3674 12.8246 13.7869 12.8246 15.5409" stroke="#333333" stroke-width="1.5" stroke-miterlimit="10"/>
<path d="M18.168 15.5409C18.168 13.7869 19.7588 12.3674 21.7248 12.3674C23.6909 12.3674 25.2898 13.7869 25.2898 15.5409" stroke="#333333" stroke-width="1.5" stroke-miterlimit="10"/>
<path d="M24.8817 18.7632C24.8817 22.7116 19.987 25.9095 15.4838 25.9095C11.0133 25.9095 6.08594 22.7116 6.08594 18.7632H30.5923" stroke="#333333" stroke-width="1.5" stroke-miterlimit="10"/>
</svg>
