<svg width="40" height="40" viewBox="0 0 40 40" fill="none" xmlns="http://www.w3.org/2000/svg">
<g clip-path="url(#clip0_536_1130)">
<path d="M12.7986 31.0002C12.4319 31.0037 12.1934 30.7792 11.9585 30.5546C8.8148 27.5721 5.66929 24.5932 2.53281 21.6037C1.81554 20.9213 1.82276 20.6599 2.55268 19.9476C3.05856 19.4546 3.606 19.0037 4.12815 18.5248C4.90324 17.816 5.24832 17.795 6.01979 18.5265C7.75245 20.1686 9.46884 21.83 11.1907 23.4844C12.7643 24.995 12.7571 24.9879 14.3578 23.4651C16.0887 21.8213 17.8322 20.1897 19.5739 18.5564C20.3779 17.802 20.7193 17.7897 21.5288 18.5599C23.4945 20.4283 25.4439 22.3143 27.4024 24.1897C28.2389 24.9897 28.2389 24.9809 29.0989 24.1669C31.09 22.2827 33.0846 20.402 35.081 18.5248C35.8615 17.7914 36.1867 17.7914 36.96 18.5195C37.5183 19.0441 38.0603 19.5862 38.6168 20.1143C39.1173 20.5914 39.1353 21.0651 38.6294 21.5458C35.4442 24.5704 32.2589 27.5932 29.0718 30.6143C28.472 31.1827 27.9408 31.0581 27.3699 30.5107C25.3283 28.5529 23.2397 26.6406 21.2162 24.6651C20.6507 24.1143 20.3164 24.1406 19.7726 24.6792C17.825 26.6055 15.8303 28.4879 13.852 30.3844C13.552 30.6721 13.2539 30.9651 12.7986 31.0002Z" fill="#333333"/>
<path d="M32.349 14.5983C32.34 14.6492 32.3508 14.7545 32.3038 14.8176C31.5522 15.8387 30.6145 16.6983 29.6028 17.458C29.2053 17.7562 28.8367 17.2703 28.5621 16.986C27.1818 15.5527 25.5467 14.4966 23.59 13.9966C19.505 12.9527 15.8825 13.8194 12.8038 16.6439C11.4704 17.8667 11.6638 17.9036 10.3105 16.6018C9.90762 16.2141 9.49568 15.8334 9.10001 15.4369C8.42791 14.7615 8.42429 14.4246 9.10904 13.7492C11.7631 11.1281 14.9592 9.5106 18.7263 9.10534C23.8809 8.55271 28.264 10.1738 31.8865 13.751C32.1195 13.9808 32.3508 14.2106 32.349 14.5983Z" fill="#333333"/>
</g>
<defs>
<clipPath id="clip0_536_1130">
<rect width="37" height="22" fill="white" transform="translate(2 9)"/>
</clipPath>
</defs>
</svg>
