<svg width="37" height="22" viewBox="0 0 37 22" fill="none" xmlns="http://www.w3.org/2000/svg">
<g clip-path="url(#clip0_536_1131)">
<path d="M10.7986 22.0002C10.4319 22.0037 10.1934 21.7792 9.95851 21.5546C6.8148 18.5721 3.66929 15.5932 0.532807 12.6037C-0.184465 11.9213 -0.177238 11.6599 0.552681 10.9476C1.05856 10.4546 1.606 10.0037 2.12815 9.52478C2.90324 8.81601 3.24832 8.79496 4.01979 9.52654C5.75245 11.1686 7.46884 12.83 9.19065 14.4844C10.7643 15.995 10.7571 15.9879 12.3578 14.4651C14.0887 12.8213 15.8322 11.1897 17.5739 9.55636C18.3779 8.80197 18.7193 8.78969 19.5288 9.55987C21.4945 11.4283 23.4439 13.3143 25.4024 15.1897C26.2389 15.9897 26.2389 15.9809 27.0989 15.1669C29.09 13.2827 31.0846 11.402 33.081 9.52478C33.8615 8.79145 34.1867 8.79145 34.96 9.51952C35.5183 10.0441 36.0603 10.5862 36.6168 11.1143C37.1173 11.5914 37.1353 12.0651 36.6294 12.5458C33.4442 15.5704 30.2589 18.5932 27.0718 21.6143C26.472 22.1827 25.9408 22.0581 25.3699 21.5107C23.3283 19.5529 21.2397 17.6406 19.2162 15.6651C18.6507 15.1143 18.3164 15.1406 17.7726 15.6792C15.825 17.6055 13.8303 19.4879 11.852 21.3844C11.552 21.6721 11.2539 21.9651 10.7986 22.0002Z" fill="#333333"/>
<path d="M30.349 5.59832C30.34 5.6492 30.3508 5.75446 30.3038 5.81762C29.5522 6.83867 28.6145 7.69832 27.6028 8.45797C27.2053 8.75622 26.8367 8.27025 26.5621 7.98604C25.1818 6.55271 23.5467 5.49657 21.59 4.99657C17.505 3.95271 13.8825 4.81937 10.8038 7.64393C9.47044 8.86674 9.66376 8.90358 8.31052 7.60183C7.90762 7.21411 7.49568 6.83341 7.10001 6.43692C6.42791 5.76148 6.42429 5.42464 7.10904 4.7492C9.76313 2.12814 12.9592 0.510601 16.7263 0.105338C21.8809 -0.447294 26.264 1.17376 29.8865 4.75095C30.1195 4.98078 30.3508 5.2106 30.349 5.59832Z" fill="#333333"/>
</g>
<defs>
<clipPath id="clip0_536_1131">
<rect width="37" height="22" fill="white"/>
</clipPath>
</defs>
</svg>
