<svg width="22" height="22" viewBox="0 0 22 22" fill="none" xmlns="http://www.w3.org/2000/svg">
<path d="M7.96313 14.5543H8.71313H7.96313ZM8.71313 20.9314V14.5543H7.21313V20.9314H8.71313ZM8.71313 14.5543C8.71313 14.0951 8.86538 13.5885 9.17836 13.2108C9.47297 12.8553 9.94263 12.5713 10.6962 12.5713V11.0713C9.50622 11.0713 8.60937 11.5465 8.02333 12.2538C7.45566 12.9389 7.21313 13.7989 7.21313 14.5543H8.71313ZM10.6962 12.5713C11.7456 12.5713 12.2747 12.8921 12.5561 13.2204C12.8568 13.5712 12.9829 14.0568 12.9829 14.5543H14.4829C14.4829 13.8372 14.3053 12.9562 13.695 12.2442C13.0654 11.5097 12.0761 11.0713 10.6962 11.0713V12.5713ZM12.9829 14.5543C12.9829 14.5562 12.9829 14.5581 12.9829 14.5601C12.9829 14.562 12.9829 14.5639 12.9829 14.5658C12.9829 14.5678 12.9829 14.5697 12.9829 14.5717C12.9829 14.5737 12.9829 14.5756 12.9829 14.5776C12.9829 14.5796 12.9829 14.5816 12.9829 14.5836C12.9829 14.5856 12.9829 14.5876 12.9829 14.5896C12.9829 14.5917 12.9829 14.5937 12.9829 14.5957C12.9829 14.5978 12.9829 14.5999 12.9829 14.6019C12.9829 14.604 12.9829 14.6061 12.9829 14.6082C12.9829 14.6102 12.9829 14.6123 12.9829 14.6144C12.9829 14.6166 12.9829 14.6187 12.9829 14.6208C12.9829 14.6229 12.9829 14.6251 12.9829 14.6272C12.9829 14.6294 12.9829 14.6315 12.9829 14.6337C12.9829 14.6359 12.9829 14.6381 12.9829 14.6402C12.9829 14.6424 12.9829 14.6446 12.9829 14.6469C12.9829 14.6491 12.9829 14.6513 12.9829 14.6535C12.9829 14.6558 12.9829 14.658 12.9829 14.6602C12.9829 14.6625 12.9829 14.6648 12.9829 14.667C12.9829 14.6693 12.9829 14.6716 12.9829 14.6739C12.9829 14.6762 12.9829 14.6785 12.9829 14.6808C12.9829 14.6831 12.9829 14.6854 12.9829 14.6878C12.9829 14.6901 12.9829 14.6924 12.9829 14.6948C12.9829 14.6971 12.9829 14.6995 12.9829 14.7019C12.9829 14.7042 12.9829 14.7066 12.9829 14.709C12.9829 14.7114 12.9829 14.7138 12.9829 14.7162C12.9829 14.7186 12.9829 14.7211 12.9829 14.7235C12.9829 14.7259 12.9829 14.7284 12.9829 14.7308C12.9829 14.7333 12.9829 14.7357 12.9829 14.7382C12.9829 14.7407 12.9829 14.7431 12.9829 14.7456C12.9829 14.7481 12.9829 14.7506 12.9829 14.7531C12.9829 14.7556 12.9829 14.7581 12.9829 14.7607C12.9829 14.7632 12.9829 14.7657 12.9829 14.7683C12.9829 14.7708 12.9829 14.7734 12.9829 14.776C12.9829 14.7785 12.9829 14.7811 12.9829 14.7837C12.9829 14.7863 12.9829 14.7889 12.9829 14.7915C12.9829 14.7941 12.9829 14.7967 12.9829 14.7993C12.9829 14.8019 12.9829 14.8046 12.9829 14.8072C12.9829 14.8098 12.9829 14.8125 12.9829 14.8152C12.9829 14.8178 12.9829 14.8205 12.9829 14.8232C12.9829 14.8258 12.9829 14.8285 12.9829 14.8312C12.9829 14.8339 12.9829 14.8366 12.9829 14.8393C12.9829 14.8421 12.9829 14.8448 12.9829 14.8475C12.9829 14.8503 12.9829 14.853 12.9829 14.8558C12.9829 14.8585 12.9829 14.8613 12.9829 14.864C12.9829 14.8668 12.9829 14.8696 12.9829 14.8724C12.9829 14.8752 12.9829 14.878 12.9829 14.8808C12.9829 14.8836 12.9829 14.8864 12.9829 14.8892C12.9829 14.892 12.9829 14.8949 12.9829 14.8977C12.9829 14.9006 12.9829 14.9034 12.9829 14.9063C12.9829 14.9091 12.9829 14.912 12.9829 14.9149C12.9829 14.9178 12.9829 14.9207 12.9829 14.9236C12.9829 14.9264 12.9829 14.9294 12.9829 14.9323C12.9829 14.9352 12.9829 14.9381 12.9829 14.941C12.9829 14.944 12.9829 14.9469 12.9829 14.9499C12.9829 14.9528 12.9829 14.9558 12.9829 14.9587C12.9829 14.9617 12.9829 14.9647 12.9829 14.9677C12.9829 14.9706 12.9829 14.9736 12.9829 14.9766C12.9829 14.9796 12.9829 14.9826 12.9829 14.9857C12.9829 14.9887 12.9829 14.9917 12.9829 14.9947C12.9829 14.9978 12.9829 15.0008 12.9829 15.0039C12.9829 15.0069 12.9829 15.01 12.9829 15.0131C12.9829 15.0161 12.9829 15.0192 12.9829 15.0223C12.9829 15.0254 12.9829 15.0285 12.9829 15.0316C12.9829 15.0347 12.9829 15.0378 12.9829 15.0409C12.9829 15.044 12.9829 15.0472 12.9829 15.0503C12.9829 15.0534 12.9829 15.0566 12.9829 15.0597C12.9829 15.0629 12.9829 15.066 12.9829 15.0692C12.9829 15.0724 12.9829 15.0756 12.9829 15.0787C12.9829 15.0819 12.9829 15.0851 12.9829 15.0883C12.9829 15.0915 12.9829 15.0947 12.9829 15.098C12.9829 15.1012 12.9829 15.1044 12.9829 15.1076C12.9829 15.1109 12.9829 15.1141 12.9829 15.1174C12.9829 15.1206 12.9829 15.1239 12.9829 15.1272C12.9829 15.1304 12.9829 15.1337 12.9829 15.137C12.9829 15.1403 12.9829 15.1436 12.9829 15.1469C12.9829 15.1502 12.9829 15.1535 12.9829 15.1568C12.9829 15.1601 12.9829 15.1634 12.9829 15.1667C12.9829 15.1701 12.9829 15.1734 12.9829 15.1768C12.9829 15.1801 12.9829 15.1835 12.9829 15.1868C12.9829 15.1902 12.9829 15.1936 12.9829 15.1969C12.9829 15.2003 12.9829 15.2037 12.9829 15.2071C12.9829 15.2105 12.9829 15.2139 12.9829 15.2173C12.9829 15.2207 12.9829 15.2241 12.9829 15.2275C12.9829 15.231 12.9829 15.2344 12.9829 15.2378C12.9829 15.2413 12.9829 15.2447 12.9829 15.2482C12.9829 15.2516 12.9829 15.2551 12.9829 15.2586C12.9829 15.262 12.9829 15.2655 12.9829 15.269C12.9829 15.2725 12.9829 15.276 12.9829 15.2795C12.9829 15.283 12.9829 15.2865 12.9829 15.29C12.9829 15.2935 12.9829 15.297 12.9829 15.3006C12.9829 15.3041 12.9829 15.3076 12.9829 15.3112C12.9829 15.3147 12.9829 15.3183 12.9829 15.3218C12.9829 15.3254 12.9829 15.329 12.9829 15.3325C12.9829 15.3361 12.9829 15.3397 12.9829 15.3433C12.9829 15.3469 12.9829 15.3505 12.9829 15.3541C12.9829 15.3577 12.9829 15.3613 12.9829 15.3649C12.9829 15.3685 12.9829 15.3721 12.9829 15.3758C12.9829 15.3794 12.9829 15.383 12.9829 15.3867C12.9829 15.3903 12.9829 15.394 12.9829 15.3976C12.9829 15.4013 12.9829 15.405 12.9829 15.4086C12.9829 15.4123 12.9829 15.416 12.9829 15.4197C12.9829 15.4234 12.9829 15.4271 12.9829 15.4308C12.9829 15.4345 12.9829 15.4382 12.9829 15.4419C12.9829 15.4456 12.9829 15.4493 12.9829 15.4531C12.9829 15.4568 12.9829 15.4605 12.9829 15.4643C12.9829 15.468 12.9829 15.4718 12.9829 15.4755C12.9829 15.4793 12.9829 15.483 12.9829 15.4868C12.9829 15.4906 12.9829 15.4944 12.9829 15.4981C12.9829 15.5019 12.9829 15.5057 12.9829 15.5095C12.9829 15.5133 12.9829 15.5171 12.9829 15.5209C12.9829 15.5247 12.9829 15.5286 12.9829 15.5324C12.9829 15.5362 12.9829 15.54 12.9829 15.5439C12.9829 15.5477 12.9829 15.5515 12.9829 15.5554C12.9829 15.5592 12.9829 15.5631 12.9829 15.567C12.9829 15.5708 12.9829 15.5747 12.9829 15.5786C12.9829 15.5825 12.9829 15.5863 12.9829 15.5902C12.9829 15.5941 12.9829 15.598 12.9829 15.6019C12.9829 15.6058 12.9829 15.6097 12.9829 15.6136C12.9829 15.6176 12.9829 15.6215 12.9829 15.6254C12.9829 15.6293 12.9829 15.6333 12.9829 15.6372C12.9829 15.6411 12.9829 15.6451 12.9829 15.649C12.9829 15.653 12.9829 15.657 12.9829 15.6609C12.9829 15.6649 12.9829 15.6689 12.9829 15.6728C12.9829 15.6768 12.9829 15.6808 12.9829 15.6848C12.9829 15.6888 12.9829 15.6928 12.9829 15.6968C12.9829 15.7008 12.9829 15.7048 12.9829 15.7088C12.9829 15.7128 12.9829 15.7168 12.9829 15.7209C12.9829 15.7249 12.9829 15.7289 12.9829 15.7329C12.9829 15.737 12.9829 15.741 12.9829 15.7451C12.9829 15.7491 12.9829 15.7532 12.9829 15.7572C12.9829 15.7613 12.9829 15.7654 12.9829 15.7695C12.9829 15.7735 12.9829 15.7776 12.9829 15.7817C12.9829 15.7858 12.9829 15.7899 12.9829 15.794C12.9829 15.7981 12.9829 15.8022 12.9829 15.8063C12.9829 15.8104 12.9829 15.8145 12.9829 15.8186C12.9829 15.8227 12.9829 15.8269 12.9829 15.831C12.9829 15.8351 12.9829 15.8393 12.9829 15.8434C12.9829 15.8475 12.9829 15.8517 12.9829 15.8558C12.9829 15.86 12.9829 15.8642 12.9829 15.8683C12.9829 15.8725 12.9829 15.8767 12.9829 15.8808C12.9829 15.885 12.9829 15.8892 12.9829 15.8934C12.9829 15.8976 12.9829 15.9018 12.9829 15.906C12.9829 15.9102 12.9829 15.9144 12.9829 15.9186C12.9829 15.9228 12.9829 15.927 12.9829 15.9312C12.9829 15.9354 12.9829 15.9397 12.9829 15.9439C12.9829 15.9481 12.9829 15.9524 12.9829 15.9566C12.9829 15.9608 12.9829 15.9651 12.9829 15.9693C12.9829 15.9736 12.9829 15.9779 12.9829 15.9821C12.9829 15.9864 12.9829 15.9906 12.9829 15.9949C12.9829 15.9992 12.9829 16.0035 12.9829 16.0078C12.9829 16.012 12.9829 16.0163 12.9829 16.0206C12.9829 16.0249 12.9829 16.0292 12.9829 16.0335C12.9829 16.0378 12.9829 16.0421 12.9829 16.0464C12.9829 16.0508 12.9829 16.0551 12.9829 16.0594C12.9829 16.0637 12.9829 16.0681 12.9829 16.0724C12.9829 16.0767 12.9829 16.0811 12.9829 16.0854C12.9829 16.0898 12.9829 16.0941 12.9829 16.0985C12.9829 16.1028 12.9829 16.1072 12.9829 16.1115C12.9829 16.1159 12.9829 16.1203 12.9829 16.1246C12.9829 16.129 12.9829 16.1334 12.9829 16.1378C12.9829 16.1422 12.9829 16.1465 12.9829 16.1509C12.9829 16.1553 12.9829 16.1597 12.9829 16.1641C12.9829 16.1685 12.9829 16.1729 12.9829 16.1773C12.9829 16.1818 12.9829 16.1862 12.9829 16.1906C12.9829 16.195 12.9829 16.1994 12.9829 16.2039C12.9829 16.2083 12.9829 16.2127 12.9829 16.2172C12.9829 16.2216 12.9829 16.2261 12.9829 16.2305C12.9829 16.235 12.9829 16.2394 12.9829 16.2439C12.9829 16.2483 12.9829 16.2528 12.9829 16.2573C12.9829 16.2617 12.9829 16.2662 12.9829 16.2707C12.9829 16.2751 12.9829 16.2796 12.9829 16.2841C12.9829 16.2886 12.9829 16.2931 12.9829 16.2976C12.9829 16.3021 12.9829 16.3066 12.9829 16.3111C12.9829 16.3156 12.9829 16.3201 12.9829 16.3246C12.9829 16.3291 12.9829 16.3336 12.9829 16.3381C12.9829 16.3426 12.9829 16.3472 12.9829 16.3517C12.9829 16.3562 12.9829 16.3608 12.9829 16.3653C12.9829 16.3698 12.9829 16.3744 12.9829 16.3789C12.9829 16.3835 12.9829 16.388 12.9829 16.3926C12.9829 16.3971 12.9829 16.4017 12.9829 16.4062C12.9829 16.4108 12.9829 16.4153 12.9829 16.4199C12.9829 16.4245 12.9829 16.4291 12.9829 16.4336C12.9829 16.4382 12.9829 16.4428 12.9829 16.4474C12.9829 16.452 12.9829 16.4565 12.9829 16.4611C12.9829 16.4657 12.9829 16.4703 12.9829 16.4749C12.9829 16.4795 12.9829 16.4841 12.9829 16.4887C12.9829 16.4933 12.9829 16.498 12.9829 16.5026C12.9829 16.5072 12.9829 16.5118 12.9829 16.5164C12.9829 16.521 12.9829 16.5257 12.9829 16.5303C12.9829 16.5349 12.9829 16.5396 12.9829 16.5442C12.9829 16.5488 12.9829 16.5535 12.9829 16.5581C12.9829 16.5628 12.9829 16.5674 12.9829 16.5721C12.9829 16.5767 12.9829 16.5814 12.9829 16.586C12.9829 16.5907 12.9829 16.5954 12.9829 16.6C12.9829 16.6047 12.9829 16.6094 12.9829 16.614C12.9829 16.6187 12.9829 16.6234 12.9829 16.6281C12.9829 16.6328 12.9829 16.6374 12.9829 16.6421C12.9829 16.6468 12.9829 16.6515 12.9829 16.6562C12.9829 16.6609 12.9829 16.6656 12.9829 16.6703C12.9829 16.675 12.9829 16.6797 12.9829 16.6844C12.9829 16.6891 12.9829 16.6938 12.9829 16.6985C12.9829 16.7032 12.9829 16.708 12.9829 16.7127C12.9829 16.7174 12.9829 16.7221 12.9829 16.7269C12.9829 16.7316 12.9829 16.7363 12.9829 16.741C12.9829 16.7458 12.9829 16.7505 12.9829 16.7553C12.9829 16.76 12.9829 16.7647 12.9829 16.7695C12.9829 16.7742 12.9829 16.779 12.9829 16.7837C12.9829 16.7885 12.9829 16.7932 12.9829 16.798C12.9829 16.8028 12.9829 16.8075 12.9829 16.8123C12.9829 16.817 12.9829 16.8218 12.9829 16.8266C12.9829 16.8314 12.9829 16.8361 12.9829 16.8409C12.9829 16.8457 12.9829 16.8505 12.9829 16.8552C12.9829 16.86 12.9829 16.8648 12.9829 16.8696C12.9829 16.8744 12.9829 16.8792 12.9829 16.884C12.9829 16.8888 12.9829 16.8936 12.9829 16.8984C12.9829 16.9032 12.9829 16.908 12.9829 16.9128C12.9829 16.9176 12.9829 16.9224 12.9829 16.9272C12.9829 16.932 12.9829 16.9368 12.9829 16.9416C12.9829 16.9464 12.9829 16.9512 12.9829 16.9561C12.9829 16.9609 12.9829 16.9657 12.9829 16.9705C12.9829 16.9754 12.9829 16.9802 12.9829 16.985C12.9829 16.9898 12.9829 16.9947 12.9829 16.9995C12.9829 17.0044 12.9829 17.0092 12.9829 17.014C12.9829 17.0189 12.9829 17.0237 12.9829 17.0286C12.9829 17.0334 12.9829 17.0383 12.9829 17.0431C12.9829 17.048 12.9829 17.0528 12.9829 17.0577C12.9829 17.0625 12.9829 17.0674 12.9829 17.0722C12.9829 17.0771 12.9829 17.082 12.9829 17.0868C12.9829 17.0917 12.9829 17.0965 12.9829 17.1014C12.9829 17.1063 12.9829 17.1112 12.9829 17.116C12.9829 17.1209 12.9829 17.1258 12.9829 17.1307C12.9829 17.1355 12.9829 17.1404 12.9829 17.1453C12.9829 17.1502 12.9829 17.1551 12.9829 17.1599C12.9829 17.1648 12.9829 17.1697 12.9829 17.1746C12.9829 17.1795 12.9829 17.1844 12.9829 17.1893C12.9829 17.1942 12.9829 17.1991 12.9829 17.204C12.9829 17.2089 12.9829 17.2138 12.9829 17.2187C12.9829 17.2236 12.9829 17.2285 12.9829 17.2334C12.9829 17.2383 12.9829 17.2432 12.9829 17.2481C12.9829 17.253 12.9829 17.2579 12.9829 17.2628C12.9829 17.2678 12.9829 17.2727 12.9829 17.2776C12.9829 17.2825 12.9829 17.2874 12.9829 17.2923C12.9829 17.2973 12.9829 17.3022 12.9829 17.3071C12.9829 17.312 12.9829 17.317 12.9829 17.3219C12.9829 17.3268 12.9829 17.3317 12.9829 17.3367C12.9829 17.3416 12.9829 17.3465 12.9829 17.3515C12.9829 17.3564 12.9829 17.3613 12.9829 17.3663C12.9829 17.3712 12.9829 17.3762 12.9829 17.3811C12.9829 17.386 12.9829 17.391 12.9829 17.3959C12.9829 17.4009 12.9829 17.4058 12.9829 17.4108C12.9829 17.4157 12.9829 17.4206 12.9829 17.4256C12.9829 17.4305 12.9829 17.4355 12.9829 17.4404C12.9829 17.4454 12.9829 17.4504 12.9829 17.4553C12.9829 17.4603 12.9829 17.4652 12.9829 17.4702C12.9829 17.4751 12.9829 17.4801 12.9829 17.485C12.9829 17.49 12.9829 17.495 12.9829 17.4999C12.9829 17.5049 12.9829 17.5099 12.9829 17.5148C12.9829 17.5198 12.9829 17.5248 12.9829 17.5297C12.9829 17.5347 12.9829 17.5397 12.9829 17.5446C12.9829 17.5496 12.9829 17.5546 12.9829 17.5595C12.9829 17.5645 12.9829 17.5695 12.9829 17.5745C12.9829 17.5794 12.9829 17.5844 12.9829 17.5894C12.9829 17.5944 12.9829 17.5993 12.9829 17.6043C12.9829 17.6093 12.9829 17.6143 12.9829 17.6192C12.9829 17.6242 12.9829 17.6292 12.9829 17.6342C12.9829 17.6392 12.9829 17.6442 12.9829 17.6491C12.9829 17.6541 12.9829 17.6591 12.9829 17.6641C12.9829 17.6691 12.9829 17.6741 12.9829 17.679C12.9829 17.684 12.9829 17.689 12.9829 17.694C12.9829 17.699 12.9829 17.704 12.9829 17.709C12.9829 17.714 12.9829 17.719 12.9829 17.7239C12.9829 17.7289 12.9829 17.7339 12.9829 17.7389C12.9829 17.7439 12.9829 17.7489 12.9829 17.7539C12.9829 17.7589 12.9829 17.7639 12.9829 17.7689C12.9829 17.7739 12.9829 17.7789 12.9829 17.7839C12.9829 17.7889 12.9829 17.7939 12.9829 17.7989C12.9829 17.8039 12.9829 17.8089 12.9829 17.8138C12.9829 17.8188 12.9829 17.8238 12.9829 17.8288C12.9829 17.8338 12.9829 17.8388 12.9829 17.8438C12.9829 17.8488 12.9829 17.8538 12.9829 17.8588C12.9829 17.8638 12.9829 17.8688 12.9829 17.8738C12.9829 17.8788 12.9829 17.8838 12.9829 17.8888C12.9829 17.8938 12.9829 17.8989 12.9829 17.9039C12.9829 17.9089 12.9829 17.9139 12.9829 17.9189C12.9829 17.9239 12.9829 17.9289 12.9829 17.9339C12.9829 17.9389 12.9829 17.9439 12.9829 17.9489C12.9829 17.9539 12.9829 17.9589 12.9829 17.9639C12.9829 17.9689 12.9829 17.9739 12.9829 17.9789C12.9829 17.9839 12.9829 17.9889 12.9829 17.9939C12.9829 17.9989 12.9829 18.0039 12.9829 18.0089C12.9829 18.0139 12.9829 18.0189 12.9829 18.0239C12.9829 18.0289 12.9829 18.0339 12.9829 18.0389C12.9829 18.0439 12.9829 18.0489 12.9829 18.0539C12.9829 18.0589 12.9829 18.064 12.9829 18.069C12.9829 18.074 12.9829 18.079 12.9829 18.084C12.9829 18.089 12.9829 18.094 12.9829 18.099C12.9829 18.104 12.9829 18.109 12.9829 18.114C12.9829 18.119 12.9829 18.124 12.9829 18.129C12.9829 18.134 12.9829 18.139 12.9829 18.144C12.9829 18.149 12.9829 18.154 12.9829 18.159C12.9829 18.164 12.9829 18.169 12.9829 18.174C12.9829 18.179 12.9829 18.184 12.9829 18.189C12.9829 18.194 12.9829 18.199 12.9829 18.204C12.9829 18.209 12.9829 18.2139 12.9829 18.2189C12.9829 18.2239 12.9829 18.2289 12.9829 18.2339C12.9829 18.2389 12.9829 18.2439 12.9829 18.2489C12.9829 18.2539 12.9829 18.2589 12.9829 18.2639C12.9829 18.2689 12.9829 18.2739 12.9829 18.2789C12.9829 18.2839 12.9829 18.2888 12.9829 18.2938C12.9829 18.2988 12.9829 18.3038 12.9829 18.3088C12.9829 18.3138 12.9829 18.3188 12.9829 18.3238C12.9829 18.3287 12.9829 18.3337 12.9829 18.3387C12.9829 18.3437 12.9829 18.3487 12.9829 18.3537C12.9829 18.3586 12.9829 18.3636 12.9829 18.3686C12.9829 18.3736 12.9829 18.3786 12.9829 18.3835C12.9829 18.3885 12.9829 18.3935 12.9829 18.3985C12.9829 18.4035 12.9829 18.4084 12.9829 18.4134C12.9829 18.4184 12.9829 18.4234 12.9829 18.4283C12.9829 18.4333 12.9829 18.4383 12.9829 18.4432C12.9829 18.4482 12.9829 18.4532 12.9829 18.4582C12.9829 18.4631 12.9829 18.4681 12.9829 18.4731C12.9829 18.478 12.9829 18.483 12.9829 18.488C12.9829 18.4929 12.9829 18.4979 12.9829 18.5028C12.9829 18.5078 12.9829 18.5128 12.9829 18.5177C12.9829 18.5227 12.9829 18.5276 12.9829 18.5326C12.9829 18.5375 12.9829 18.5425 12.9829 18.5475C12.9829 18.5524 12.9829 18.5574 12.9829 18.5623C12.9829 18.5673 12.9829 18.5722 12.9829 18.5772C12.9829 18.5821 12.9829 18.5871 12.9829 18.592C12.9829 18.5969 12.9829 18.6019 12.9829 18.6068C12.9829 18.6118 12.9829 18.6167 12.9829 18.6217C12.9829 18.6266 12.9829 18.6315 12.9829 18.6365C12.9829 18.6414 12.9829 18.6463 12.9829 18.6513C12.9829 18.6562 12.9829 18.6611 12.9829 18.6661C12.9829 18.671 12.9829 18.6759 12.9829 18.6808C12.9829 18.6858 12.9829 18.6907 12.9829 18.6956C12.9829 18.7005 12.9829 18.7055 12.9829 18.7104C12.9829 18.7153 12.9829 18.7202 12.9829 18.7251C12.9829 18.73 12.9829 18.735 12.9829 18.7399C12.9829 18.7448 12.9829 18.7497 12.9829 18.7546C12.9829 18.7595 12.9829 18.7644 12.9829 18.7693C12.9829 18.7742 12.9829 18.7791 12.9829 18.784C12.9829 18.7889 12.9829 18.7938 12.9829 18.7987C12.9829 18.8036 12.9829 18.8085 12.9829 18.8134C12.9829 18.8183 12.9829 18.8232 12.9829 18.8281C12.9829 18.833 12.9829 18.8379 12.9829 18.8427C12.9829 18.8476 12.9829 18.8525 12.9829 18.8574C12.9829 18.8623 12.9829 18.8671 12.9829 18.872C12.9829 18.8769 12.9829 18.8818 12.9829 18.8866C12.9829 18.8915 12.9829 18.8964 12.9829 18.9012C12.9829 18.9061 12.9829 18.911 12.9829 18.9158C12.9829 18.9207 12.9829 18.9256 12.9829 18.9304C12.9829 18.9353 12.9829 18.9401 12.9829 18.945C12.9829 18.9498 12.9829 18.9547 12.9829 18.9595C12.9829 18.9644 12.9829 18.9692 12.9829 18.9741C12.9829 18.9789 12.9829 18.9838 12.9829 18.9886C12.9829 18.9934 12.9829 18.9983 12.9829 19.0031C12.9829 19.0079 12.9829 19.0128 12.9829 19.0176C12.9829 19.0224 12.9829 19.0272 12.9829 19.0321C12.9829 19.0369 12.9829 19.0417 12.9829 19.0465C12.9829 19.0514 12.9829 19.0562 12.9829 19.061C12.9829 19.0658 12.9829 19.0706 12.9829 19.0754C12.9829 19.0802 12.9829 19.085 12.9829 19.0898C12.9829 19.0946 12.9829 19.0994 12.9829 19.1042C12.9829 19.109 12.9829 19.1138 12.9829 19.1186C12.9829 19.1234 12.9829 19.1282 12.9829 19.133C12.9829 19.1378 12.9829 19.1425 12.9829 19.1473C12.9829 19.1521 12.9829 19.1569 12.9829 19.1616C12.9829 19.1664 12.9829 19.1712 12.9829 19.176C12.9829 19.1807 12.9829 19.1855 12.9829 19.1902C12.9829 19.195 12.9829 19.1998 12.9829 19.2045C12.9829 19.2093 12.9829 19.214 12.9829 19.2188C12.9829 19.2235 12.9829 19.2283 12.9829 19.233C12.9829 19.2378 12.9829 19.2425 12.9829 19.2472C12.9829 19.252 12.9829 19.2567 12.9829 19.2614C12.9829 19.2662 12.9829 19.2709 12.9829 19.2756C12.9829 19.2804 12.9829 19.2851 12.9829 19.2898C12.9829 19.2945 12.9829 19.2992 12.9829 19.3039C12.9829 19.3087 12.9829 19.3134 12.9829 19.3181C12.9829 19.3228 12.9829 19.3275 12.9829 19.3322C12.9829 19.3369 12.9829 19.3416 12.9829 19.3463C12.9829 19.3509 12.9829 19.3556 12.9829 19.3603C12.9829 19.365 12.9829 19.3697 12.9829 19.3744C12.9829 19.379 12.9829 19.3837 12.9829 19.3884C12.9829 19.3931 12.9829 19.3977 12.9829 19.4024C12.9829 19.407 12.9829 19.4117 12.9829 19.4164C12.9829 19.421 12.9829 19.4257 12.9829 19.4303C12.9829 19.435 12.9829 19.4396 12.9829 19.4443C12.9829 19.4489 12.9829 19.4535 12.9829 19.4582C12.9829 19.4628 12.9829 19.4674 12.9829 19.4721C12.9829 19.4767 12.9829 19.4813 12.9829 19.4859C12.9829 19.4906 12.9829 19.4952 12.9829 19.4998C12.9829 19.5044 12.9829 19.509 12.9829 19.5136C12.9829 19.5182 12.9829 19.5228 12.9829 19.5274C12.9829 19.532 12.9829 19.5366 12.9829 19.5412C12.9829 19.5458 12.9829 19.5504 12.9829 19.5549C12.9829 19.5595 12.9829 19.5641 12.9829 19.5687C12.9829 19.5733 12.9829 19.5778 12.9829 19.5824C12.9829 19.587 12.9829 19.5915 12.9829 19.5961C12.9829 19.6006 12.9829 19.6052 12.9829 19.6097C12.9829 19.6143 12.9829 19.6188 12.9829 19.6234C12.9829 19.6279 12.9829 19.6324 12.9829 19.637C12.9829 19.6415 12.9829 19.646 12.9829 19.6506C12.9829 19.6551 12.9829 19.6596 12.9829 19.6641C12.9829 19.6686 12.9829 19.6731 12.9829 19.6776C12.9829 19.6822 12.9829 19.6867 12.9829 19.6912C12.9829 19.6957 12.9829 19.7001 12.9829 19.7046C12.9829 19.7091 12.9829 19.7136 12.9829 19.7181C12.9829 19.7226 12.9829 19.727 12.9829 19.7315C12.9829 19.736 12.9829 19.7405 12.9829 19.7449C12.9829 19.7494 12.9829 19.7538 12.9829 19.7583C12.9829 19.7628 12.9829 19.7672 12.9829 19.7716C12.9829 19.7761 12.9829 19.7805 12.9829 19.785C12.9829 19.7894 12.9829 19.7938 12.9829 19.7983C12.9829 19.8027 12.9829 19.8071 12.9829 19.8115C12.9829 19.8159 12.9829 19.8204 12.9829 19.8248C12.9829 19.8292 12.9829 19.8336 12.9829 19.838C12.9829 19.8424 12.9829 19.8468 12.9829 19.8512C12.9829 19.8555 12.9829 19.8599 12.9829 19.8643C12.9829 19.8687 12.9829 19.8731 12.9829 19.8774C12.9829 19.8818 12.9829 19.8862 12.9829 19.8905C12.9829 19.8949 12.9829 19.8992 12.9829 19.9036C12.9829 19.9079 12.9829 19.9123 12.9829 19.9166C12.9829 19.921 12.9829 19.9253 12.9829 19.9296C12.9829 19.934 12.9829 19.9383 12.9829 19.9426C12.9829 19.9469 12.9829 19.9512 12.9829 19.9556C12.9829 19.9599 12.9829 19.9642 12.9829 19.9685C12.9829 19.9728 12.9829 19.9771 12.9829 19.9813C12.9829 19.9856 12.9829 19.9899 12.9829 19.9942C12.9829 19.9985 12.9829 20.0028 12.9829 20.007C12.9829 20.0113 12.9829 20.0156 12.9829 20.0198C12.9829 20.0241 12.9829 20.0283 12.9829 20.0326C12.9829 20.0368 12.9829 20.0411 12.9829 20.0453C12.9829 20.0495 12.9829 20.0538 12.9829 20.058C12.9829 20.0622 12.9829 20.0664 12.9829 20.0707C12.9829 20.0749 12.9829 20.0791 12.9829 20.0833C12.9829 20.0875 12.9829 20.0917 12.9829 20.0959C12.9829 20.1001 12.9829 20.1043 12.9829 20.1085C12.9829 20.1126 12.9829 20.1168 12.9829 20.121C12.9829 20.1252 12.9829 20.1293 12.9829 20.1335C12.9829 20.1377 12.9829 20.1418 12.9829 20.146C12.9829 20.1501 12.9829 20.1542 12.9829 20.1584C12.9829 20.1625 12.9829 20.1667 12.9829 20.1708C12.9829 20.1749 12.9829 20.179 12.9829 20.1831C12.9829 20.1873 12.9829 20.1914 12.9829 20.1955C12.9829 20.1996 12.9829 20.2037 12.9829 20.2078C12.9829 20.2119 12.9829 20.216 12.9829 20.22C12.9829 20.2241 12.9829 20.2282 12.9829 20.2323C12.9829 20.2363 12.9829 20.2404 12.9829 20.2444C12.9829 20.2485 12.9829 20.2526 12.9829 20.2566C12.9829 20.2606 12.9829 20.2647 12.9829 20.2687C12.9829 20.2728 12.9829 20.2768 12.9829 20.2808C12.9829 20.2848 12.9829 20.2888 12.9829 20.2928C12.9829 20.2969 12.9829 20.3009 12.9829 20.3049C12.9829 20.3089 12.9829 20.3128 12.9829 20.3168C12.9829 20.3208 12.9829 20.3248 12.9829 20.3288C12.9829 20.3327 12.9829 20.3367 12.9829 20.3407C12.9829 20.3446 12.9829 20.3486 12.9829 20.3525C12.9829 20.3565 12.9829 20.3604 12.9829 20.3643C12.9829 20.3683 12.9829 20.3722 12.9829 20.3761C12.9829 20.3801 12.9829 20.384 12.9829 20.3879C12.9829 20.3918 12.9829 20.3957 12.9829 20.3996C12.9829 20.4035 12.9829 20.4074 12.9829 20.4113C12.9829 20.4151 12.9829 20.419 12.9829 20.4229C12.9829 20.4268 12.9829 20.4306 12.9829 20.4345C12.9829 20.4383 12.9829 20.4422 12.9829 20.446C12.9829 20.4499 12.9829 20.4537 12.9829 20.4576C12.9829 20.4614 12.9829 20.4652 12.9829 20.469C12.9829 20.4728 12.9829 20.4767 12.9829 20.4805C12.9829 20.4843 12.9829 20.4881 12.9829 20.4919C12.9829 20.4957 12.9829 20.4994 12.9829 20.5032C12.9829 20.507 12.9829 20.5108 12.9829 20.5145C12.9829 20.5183 12.9829 20.5221 12.9829 20.5258C12.9829 20.5296 12.9829 20.5333 12.9829 20.537C12.9829 20.5408 12.9829 20.5445 12.9829 20.5482C12.9829 20.552 12.9829 20.5557 12.9829 20.5594C12.9829 20.5631 12.9829 20.5668 12.9829 20.5705C12.9829 20.5742 12.9829 20.5779 12.9829 20.5816C12.9829 20.5852 12.9829 20.5889 12.9829 20.5926C12.9829 20.5963 12.9829 20.5999 12.9829 20.6036C12.9829 20.6072 12.9829 20.6109 12.9829 20.6145C12.9829 20.6182 12.9829 20.6218 12.9829 20.6254C12.9829 20.629 12.9829 20.6327 12.9829 20.6363C12.9829 20.6399 12.9829 20.6435 12.9829 20.6471C12.9829 20.6507 12.9829 20.6543 12.9829 20.6578C12.9829 20.6614 12.9829 20.665 12.9829 20.6686C12.9829 20.6721 12.9829 20.6757 12.9829 20.6793C12.9829 20.6828 12.9829 20.6864 12.9829 20.6899C12.9829 20.6934 12.9829 20.697 12.9829 20.7005C12.9829 20.704 12.9829 20.7075 12.9829 20.711C12.9829 20.7145 12.9829 20.718 12.9829 20.7215C12.9829 20.725 12.9829 20.7285 12.9829 20.732C12.9829 20.7355 12.9829 20.7389 12.9829 20.7424C12.9829 20.7459 12.9829 20.7493 12.9829 20.7528C12.9829 20.7562 12.9829 20.7597 12.9829 20.7631C12.9829 20.7665 12.9829 20.77 12.9829 20.7734C12.9829 20.7768 12.9829 20.7802 12.9829 20.7836C12.9829 20.787 12.9829 20.7904 12.9829 20.7938C12.9829 20.7972 12.9829 20.8006 12.9829 20.8039C12.9829 20.8073 12.9829 20.8107 12.9829 20.814C12.9829 20.8174 12.9829 20.8207 12.9829 20.8241C12.9829 20.8274 12.9829 20.8307 12.9829 20.8341C12.9829 20.8374 12.9829 20.8407 12.9829 20.844C12.9829 20.8473 12.9829 20.8506 12.9829 20.8539C12.9829 20.8572 12.9829 20.8605 12.9829 20.8638C12.9829 20.8671 12.9829 20.8703 12.9829 20.8736C12.9829 20.8768 12.9829 20.8801 12.9829 20.8833C12.9829 20.8866 12.9829 20.8898 12.9829 20.8931C12.9829 20.8963 12.9829 20.8995 12.9829 20.9027C12.9829 20.9059 12.9829 20.9091 12.9829 20.9123C12.9829 20.9155 12.9829 20.9187 12.9829 20.9219C12.9829 20.9251 12.9829 20.9282 12.9829 20.9314H14.4829C14.4829 20.9282 14.4829 20.9251 14.4829 20.9219C14.4829 20.9187 14.4829 20.9155 14.4829 20.9123C14.4829 20.9091 14.4829 20.9059 14.4829 20.9027C14.4829 20.8995 14.4829 20.8963 14.4829 20.8931C14.4829 20.8898 14.4829 20.8866 14.4829 20.8833C14.4829 20.8801 14.4829 20.8768 14.4829 20.8736C14.4829 20.8703 14.4829 20.8671 14.4829 20.8638C14.4829 20.8605 14.4829 20.8572 14.4829 20.8539C14.4829 20.8506 14.4829 20.8473 14.4829 20.844C14.4829 20.8407 14.4829 20.8374 14.4829 20.8341C14.4829 20.8307 14.4829 20.8274 14.4829 20.8241C14.4829 20.8207 14.4829 20.8174 14.4829 20.814C14.4829 20.8107 14.4829 20.8073 14.4829 20.8039C14.4829 20.8006 14.4829 20.7972 14.4829 20.7938C14.4829 20.7904 14.4829 20.787 14.4829 20.7836C14.4829 20.7802 14.4829 20.7768 14.4829 20.7734C14.4829 20.77 14.4829 20.7665 14.4829 20.7631C14.4829 20.7597 14.4829 20.7562 14.4829 20.7528C14.4829 20.7493 14.4829 20.7459 14.4829 20.7424C14.4829 20.7389 14.4829 20.7355 14.4829 20.732C14.4829 20.7285 14.4829 20.725 14.4829 20.7215C14.4829 20.718 14.4829 20.7145 14.4829 20.711C14.4829 20.7075 14.4829 20.704 14.4829 20.7005C14.4829 20.697 14.4829 20.6934 14.4829 20.6899C14.4829 20.6864 14.4829 20.6828 14.4829 20.6793C14.4829 20.6757 14.4829 20.6721 14.4829 20.6686C14.4829 20.665 14.4829 20.6614 14.4829 20.6578C14.4829 20.6543 14.4829 20.6507 14.4829 20.6471C14.4829 20.6435 14.4829 20.6399 14.4829 20.6363C14.4829 20.6327 14.4829 20.629 14.4829 20.6254C14.4829 20.6218 14.4829 20.6182 14.4829 20.6145C14.4829 20.6109 14.4829 20.6072 14.4829 20.6036C14.4829 20.5999 14.4829 20.5963 14.4829 20.5926C14.4829 20.5889 14.4829 20.5852 14.4829 20.5816C14.4829 20.5779 14.4829 20.5742 14.4829 20.5705C14.4829 20.5668 14.4829 20.5631 14.4829 20.5594C14.4829 20.5557 14.4829 20.552 14.4829 20.5482C14.4829 20.5445 14.4829 20.5408 14.4829 20.537C14.4829 20.5333 14.4829 20.5296 14.4829 20.5258C14.4829 20.5221 14.4829 20.5183 14.4829 20.5145C14.4829 20.5108 14.4829 20.507 14.4829 20.5032C14.4829 20.4994 14.4829 20.4957 14.4829 20.4919C14.4829 20.4881 14.4829 20.4843 14.4829 20.4805C14.4829 20.4767 14.4829 20.4728 14.4829 20.469C14.4829 20.4652 14.4829 20.4614 14.4829 20.4576C14.4829 20.4537 14.4829 20.4499 14.4829 20.446C14.4829 20.4422 14.4829 20.4383 14.4829 20.4345C14.4829 20.4306 14.4829 20.4268 14.4829 20.4229C14.4829 20.419 14.4829 20.4151 14.4829 20.4113C14.4829 20.4074 14.4829 20.4035 14.4829 20.3996C14.4829 20.3957 14.4829 20.3918 14.4829 20.3879C14.4829 20.384 14.4829 20.3801 14.4829 20.3761C14.4829 20.3722 14.4829 20.3683 14.4829 20.3643C14.4829 20.3604 14.4829 20.3565 14.4829 20.3525C14.4829 20.3486 14.4829 20.3446 14.4829 20.3407C14.4829 20.3367 14.4829 20.3327 14.4829 20.3288C14.4829 20.3248 14.4829 20.3208 14.4829 20.3168C14.4829 20.3128 14.4829 20.3089 14.4829 20.3049C14.4829 20.3009 14.4829 20.2969 14.4829 20.2928C14.4829 20.2888 14.4829 20.2848 14.4829 20.2808C14.4829 20.2768 14.4829 20.2728 14.4829 20.2687C14.4829 20.2647 14.4829 20.2606 14.4829 20.2566C14.4829 20.2526 14.4829 20.2485 14.4829 20.2444C14.4829 20.2404 14.4829 20.2363 14.4829 20.2323C14.4829 20.2282 14.4829 20.2241 14.4829 20.22C14.4829 20.216 14.4829 20.2119 14.4829 20.2078C14.4829 20.2037 14.4829 20.1996 14.4829 20.1955C14.4829 20.1914 14.4829 20.1873 14.4829 20.1831C14.4829 20.179 14.4829 20.1749 14.4829 20.1708C14.4829 20.1667 14.4829 20.1625 14.4829 20.1584C14.4829 20.1542 14.4829 20.1501 14.4829 20.146C14.4829 20.1418 14.4829 20.1377 14.4829 20.1335C14.4829 20.1293 14.4829 20.1252 14.4829 20.121C14.4829 20.1168 14.4829 20.1126 14.4829 20.1085C14.4829 20.1043 14.4829 20.1001 14.4829 20.0959C14.4829 20.0917 14.4829 20.0875 14.4829 20.0833C14.4829 20.0791 14.4829 20.0749 14.4829 20.0707C14.4829 20.0664 14.4829 20.0622 14.4829 20.058C14.4829 20.0538 14.4829 20.0495 14.4829 20.0453C14.4829 20.0411 14.4829 20.0368 14.4829 20.0326C14.4829 20.0283 14.4829 20.0241 14.4829 20.0198C14.4829 20.0156 14.4829 20.0113 14.4829 20.007C14.4829 20.0028 14.4829 19.9985 14.4829 19.9942C14.4829 19.9899 14.4829 19.9856 14.4829 19.9813C14.4829 19.9771 14.4829 19.9728 14.4829 19.9685C14.4829 19.9642 14.4829 19.9599 14.4829 19.9556C14.4829 19.9512 14.4829 19.9469 14.4829 19.9426C14.4829 19.9383 14.4829 19.934 14.4829 19.9296C14.4829 19.9253 14.4829 19.921 14.4829 19.9166C14.4829 19.9123 14.4829 19.9079 14.4829 19.9036C14.4829 19.8992 14.4829 19.8949 14.4829 19.8905C14.4829 19.8862 14.4829 19.8818 14.4829 19.8774C14.4829 19.8731 14.4829 19.8687 14.4829 19.8643C14.4829 19.8599 14.4829 19.8555 14.4829 19.8512C14.4829 19.8468 14.4829 19.8424 14.4829 19.838C14.4829 19.8336 14.4829 19.8292 14.4829 19.8248C14.4829 19.8204 14.4829 19.8159 14.4829 19.8115C14.4829 19.8071 14.4829 19.8027 14.4829 19.7983C14.4829 19.7938 14.4829 19.7894 14.4829 19.785C14.4829 19.7805 14.4829 19.7761 14.4829 19.7716C14.4829 19.7672 14.4829 19.7628 14.4829 19.7583C14.4829 19.7538 14.4829 19.7494 14.4829 19.7449C14.4829 19.7405 14.4829 19.736 14.4829 19.7315C14.4829 19.727 14.4829 19.7226 14.4829 19.7181C14.4829 19.7136 14.4829 19.7091 14.4829 19.7046C14.4829 19.7001 14.4829 19.6957 14.4829 19.6912C14.4829 19.6867 14.4829 19.6822 14.4829 19.6776C14.4829 19.6731 14.4829 19.6686 14.4829 19.6641C14.4829 19.6596 14.4829 19.6551 14.4829 19.6506C14.4829 19.646 14.4829 19.6415 14.4829 19.637C14.4829 19.6324 14.4829 19.6279 14.4829 19.6234C14.4829 19.6188 14.4829 19.6143 14.4829 19.6097C14.4829 19.6052 14.4829 19.6006 14.4829 19.5961C14.4829 19.5915 14.4829 19.587 14.4829 19.5824C14.4829 19.5778 14.4829 19.5733 14.4829 19.5687C14.4829 19.5641 14.4829 19.5595 14.4829 19.5549C14.4829 19.5504 14.4829 19.5458 14.4829 19.5412C14.4829 19.5366 14.4829 19.532 14.4829 19.5274C14.4829 19.5228 14.4829 19.5182 14.4829 19.5136C14.4829 19.509 14.4829 19.5044 14.4829 19.4998C14.4829 19.4952 14.4829 19.4906 14.4829 19.4859C14.4829 19.4813 14.4829 19.4767 14.4829 19.4721C14.4829 19.4674 14.4829 19.4628 14.4829 19.4582C14.4829 19.4535 14.4829 19.4489 14.4829 19.4443C14.4829 19.4396 14.4829 19.435 14.4829 19.4303C14.4829 19.4257 14.4829 19.421 14.4829 19.4164C14.4829 19.4117 14.4829 19.407 14.4829 19.4024C14.4829 19.3977 14.4829 19.3931 14.4829 19.3884C14.4829 19.3837 14.4829 19.379 14.4829 19.3744C14.4829 19.3697 14.4829 19.365 14.4829 19.3603C14.4829 19.3556 14.4829 19.3509 14.4829 19.3463C14.4829 19.3416 14.4829 19.3369 14.4829 19.3322C14.4829 19.3275 14.4829 19.3228 14.4829 19.3181C14.4829 19.3134 14.4829 19.3087 14.4829 19.3039C14.4829 19.2992 14.4829 19.2945 14.4829 19.2898C14.4829 19.2851 14.4829 19.2804 14.4829 19.2756C14.4829 19.2709 14.4829 19.2662 14.4829 19.2614C14.4829 19.2567 14.4829 19.252 14.4829 19.2472C14.4829 19.2425 14.4829 19.2378 14.4829 19.233C14.4829 19.2283 14.4829 19.2235 14.4829 19.2188C14.4829 19.214 14.4829 19.2093 14.4829 19.2045C14.4829 19.1998 14.4829 19.195 14.4829 19.1902C14.4829 19.1855 14.4829 19.1807 14.4829 19.176C14.4829 19.1712 14.4829 19.1664 14.4829 19.1616C14.4829 19.1569 14.4829 19.1521 14.4829 19.1473C14.4829 19.1425 14.4829 19.1378 14.4829 19.133C14.4829 19.1282 14.4829 19.1234 14.4829 19.1186C14.4829 19.1138 14.4829 19.109 14.4829 19.1042C14.4829 19.0994 14.4829 19.0946 14.4829 19.0898C14.4829 19.085 14.4829 19.0802 14.4829 19.0754C14.4829 19.0706 14.4829 19.0658 14.4829 19.061C14.4829 19.0562 14.4829 19.0514 14.4829 19.0465C14.4829 19.0417 14.4829 19.0369 14.4829 19.0321C14.4829 19.0272 14.4829 19.0224 14.4829 19.0176C14.4829 19.0128 14.4829 19.0079 14.4829 19.0031C14.4829 18.9983 14.4829 18.9934 14.4829 18.9886C14.4829 18.9838 14.4829 18.9789 14.4829 18.9741C14.4829 18.9692 14.4829 18.9644 14.4829 18.9595C14.4829 18.9547 14.4829 18.9498 14.4829 18.945C14.4829 18.9401 14.4829 18.9353 14.4829 18.9304C14.4829 18.9256 14.4829 18.9207 14.4829 18.9158C14.4829 18.911 14.4829 18.9061 14.4829 18.9012C14.4829 18.8964 14.4829 18.8915 14.4829 18.8866C14.4829 18.8818 14.4829 18.8769 14.4829 18.872C14.4829 18.8671 14.4829 18.8623 14.4829 18.8574C14.4829 18.8525 14.4829 18.8476 14.4829 18.8427C14.4829 18.8379 14.4829 18.833 14.4829 18.8281C14.4829 18.8232 14.4829 18.8183 14.4829 18.8134C14.4829 18.8085 14.4829 18.8036 14.4829 18.7987C14.4829 18.7938 14.4829 18.7889 14.4829 18.784C14.4829 18.7791 14.4829 18.7742 14.4829 18.7693C14.4829 18.7644 14.4829 18.7595 14.4829 18.7546C14.4829 18.7497 14.4829 18.7448 14.4829 18.7399C14.4829 18.735 14.4829 18.73 14.4829 18.7251C14.4829 18.7202 14.4829 18.7153 14.4829 18.7104C14.4829 18.7055 14.4829 18.7005 14.4829 18.6956C14.4829 18.6907 14.4829 18.6858 14.4829 18.6808C14.4829 18.6759 14.4829 18.671 14.4829 18.6661C14.4829 18.6611 14.4829 18.6562 14.4829 18.6513C14.4829 18.6463 14.4829 18.6414 14.4829 18.6365C14.4829 18.6315 14.4829 18.6266 14.4829 18.6217C14.4829 18.6167 14.4829 18.6118 14.4829 18.6068C14.4829 18.6019 14.4829 18.5969 14.4829 18.592C14.4829 18.5871 14.4829 18.5821 14.4829 18.5772C14.4829 18.5722 14.4829 18.5673 14.4829 18.5623C14.4829 18.5574 14.4829 18.5524 14.4829 18.5475C14.4829 18.5425 14.4829 18.5375 14.4829 18.5326C14.4829 18.5276 14.4829 18.5227 14.4829 18.5177C14.4829 18.5128 14.4829 18.5078 14.4829 18.5028C14.4829 18.4979 14.4829 18.4929 14.4829 18.488C14.4829 18.483 14.4829 18.478 14.4829 18.4731C14.4829 18.4681 14.4829 18.4631 14.4829 18.4582C14.4829 18.4532 14.4829 18.4482 14.4829 18.4432C14.4829 18.4383 14.4829 18.4333 14.4829 18.4283C14.4829 18.4234 14.4829 18.4184 14.4829 18.4134C14.4829 18.4084 14.4829 18.4035 14.4829 18.3985C14.4829 18.3935 14.4829 18.3885 14.4829 18.3835C14.4829 18.3786 14.4829 18.3736 14.4829 18.3686C14.4829 18.3636 14.4829 18.3586 14.4829 18.3537C14.4829 18.3487 14.4829 18.3437 14.4829 18.3387C14.4829 18.3337 14.4829 18.3287 14.4829 18.3238C14.4829 18.3188 14.4829 18.3138 14.4829 18.3088C14.4829 18.3038 14.4829 18.2988 14.4829 18.2938C14.4829 18.2888 14.4829 18.2839 14.4829 18.2789C14.4829 18.2739 14.4829 18.2689 14.4829 18.2639C14.4829 18.2589 14.4829 18.2539 14.4829 18.2489C14.4829 18.2439 14.4829 18.2389 14.4829 18.2339C14.4829 18.2289 14.4829 18.2239 14.4829 18.2189C14.4829 18.2139 14.4829 18.209 14.4829 18.204C14.4829 18.199 14.4829 18.194 14.4829 18.189C14.4829 18.184 14.4829 18.179 14.4829 18.174C14.4829 18.169 14.4829 18.164 14.4829 18.159C14.4829 18.154 14.4829 18.149 14.4829 18.144C14.4829 18.139 14.4829 18.134 14.4829 18.129C14.4829 18.124 14.4829 18.119 14.4829 18.114C14.4829 18.109 14.4829 18.104 14.4829 18.099C14.4829 18.094 14.4829 18.089 14.4829 18.084C14.4829 18.079 14.4829 18.074 14.4829 18.069C14.4829 18.064 14.4829 18.0589 14.4829 18.0539C14.4829 18.0489 14.4829 18.0439 14.4829 18.0389C14.4829 18.0339 14.4829 18.0289 14.4829 18.0239C14.4829 18.0189 14.4829 18.0139 14.4829 18.0089C14.4829 18.0039 14.4829 17.9989 14.4829 17.9939C14.4829 17.9889 14.4829 17.9839 14.4829 17.9789C14.4829 17.9739 14.4829 17.9689 14.4829 17.9639C14.4829 17.9589 14.4829 17.9539 14.4829 17.9489C14.4829 17.9439 14.4829 17.9389 14.4829 17.9339C14.4829 17.9289 14.4829 17.9239 14.4829 17.9189C14.4829 17.9139 14.4829 17.9089 14.4829 17.9039C14.4829 17.8989 14.4829 17.8938 14.4829 17.8888C14.4829 17.8838 14.4829 17.8788 14.4829 17.8738C14.4829 17.8688 14.4829 17.8638 14.4829 17.8588C14.4829 17.8538 14.4829 17.8488 14.4829 17.8438C14.4829 17.8388 14.4829 17.8338 14.4829 17.8288C14.4829 17.8238 14.4829 17.8188 14.4829 17.8138C14.4829 17.8089 14.4829 17.8039 14.4829 17.7989C14.4829 17.7939 14.4829 17.7889 14.4829 17.7839C14.4829 17.7789 14.4829 17.7739 14.4829 17.7689C14.4829 17.7639 14.4829 17.7589 14.4829 17.7539C14.4829 17.7489 14.4829 17.7439 14.4829 17.7389C14.4829 17.7339 14.4829 17.7289 14.4829 17.7239C14.4829 17.719 14.4829 17.714 14.4829 17.709C14.4829 17.704 14.4829 17.699 14.4829 17.694C14.4829 17.689 14.4829 17.684 14.4829 17.679C14.4829 17.6741 14.4829 17.6691 14.4829 17.6641C14.4829 17.6591 14.4829 17.6541 14.4829 17.6491C14.4829 17.6442 14.4829 17.6392 14.4829 17.6342C14.4829 17.6292 14.4829 17.6242 14.4829 17.6192C14.4829 17.6143 14.4829 17.6093 14.4829 17.6043C14.4829 17.5993 14.4829 17.5944 14.4829 17.5894C14.4829 17.5844 14.4829 17.5794 14.4829 17.5745C14.4829 17.5695 14.4829 17.5645 14.4829 17.5595C14.4829 17.5546 14.4829 17.5496 14.4829 17.5446C14.4829 17.5397 14.4829 17.5347 14.4829 17.5297C14.4829 17.5248 14.4829 17.5198 14.4829 17.5148C14.4829 17.5099 14.4829 17.5049 14.4829 17.4999C14.4829 17.495 14.4829 17.49 14.4829 17.485C14.4829 17.4801 14.4829 17.4751 14.4829 17.4702C14.4829 17.4652 14.4829 17.4603 14.4829 17.4553C14.4829 17.4504 14.4829 17.4454 14.4829 17.4404C14.4829 17.4355 14.4829 17.4305 14.4829 17.4256C14.4829 17.4206 14.4829 17.4157 14.4829 17.4108C14.4829 17.4058 14.4829 17.4009 14.4829 17.3959C14.4829 17.391 14.4829 17.386 14.4829 17.3811C14.4829 17.3762 14.4829 17.3712 14.4829 17.3663C14.4829 17.3613 14.4829 17.3564 14.4829 17.3515C14.4829 17.3465 14.4829 17.3416 14.4829 17.3367C14.4829 17.3317 14.4829 17.3268 14.4829 17.3219C14.4829 17.317 14.4829 17.312 14.4829 17.3071C14.4829 17.3022 14.4829 17.2973 14.4829 17.2923C14.4829 17.2874 14.4829 17.2825 14.4829 17.2776C14.4829 17.2727 14.4829 17.2678 14.4829 17.2628C14.4829 17.2579 14.4829 17.253 14.4829 17.2481C14.4829 17.2432 14.4829 17.2383 14.4829 17.2334C14.4829 17.2285 14.4829 17.2236 14.4829 17.2187C14.4829 17.2138 14.4829 17.2089 14.4829 17.204C14.4829 17.1991 14.4829 17.1942 14.4829 17.1893C14.4829 17.1844 14.4829 17.1795 14.4829 17.1746C14.4829 17.1697 14.4829 17.1648 14.4829 17.1599C14.4829 17.1551 14.4829 17.1502 14.4829 17.1453C14.4829 17.1404 14.4829 17.1355 14.4829 17.1307C14.4829 17.1258 14.4829 17.1209 14.4829 17.116C14.4829 17.1112 14.4829 17.1063 14.4829 17.1014C14.4829 17.0965 14.4829 17.0917 14.4829 17.0868C14.4829 17.082 14.4829 17.0771 14.4829 17.0722C14.4829 17.0674 14.4829 17.0625 14.4829 17.0577C14.4829 17.0528 14.4829 17.048 14.4829 17.0431C14.4829 17.0383 14.4829 17.0334 14.4829 17.0286C14.4829 17.0237 14.4829 17.0189 14.4829 17.014C14.4829 17.0092 14.4829 17.0044 14.4829 16.9995C14.4829 16.9947 14.4829 16.9898 14.4829 16.985C14.4829 16.9802 14.4829 16.9754 14.4829 16.9705C14.4829 16.9657 14.4829 16.9609 14.4829 16.9561C14.4829 16.9512 14.4829 16.9464 14.4829 16.9416C14.4829 16.9368 14.4829 16.932 14.4829 16.9272C14.4829 16.9224 14.4829 16.9176 14.4829 16.9128C14.4829 16.908 14.4829 16.9032 14.4829 16.8984C14.4829 16.8936 14.4829 16.8888 14.4829 16.884C14.4829 16.8792 14.4829 16.8744 14.4829 16.8696C14.4829 16.8648 14.4829 16.86 14.4829 16.8552C14.4829 16.8505 14.4829 16.8457 14.4829 16.8409C14.4829 16.8361 14.4829 16.8314 14.4829 16.8266C14.4829 16.8218 14.4829 16.817 14.4829 16.8123C14.4829 16.8075 14.4829 16.8028 14.4829 16.798C14.4829 16.7932 14.4829 16.7885 14.4829 16.7837C14.4829 16.779 14.4829 16.7742 14.4829 16.7695C14.4829 16.7647 14.4829 16.76 14.4829 16.7553C14.4829 16.7505 14.4829 16.7458 14.4829 16.741C14.4829 16.7363 14.4829 16.7316 14.4829 16.7269C14.4829 16.7221 14.4829 16.7174 14.4829 16.7127C14.4829 16.708 14.4829 16.7032 14.4829 16.6985C14.4829 16.6938 14.4829 16.6891 14.4829 16.6844C14.4829 16.6797 14.4829 16.675 14.4829 16.6703C14.4829 16.6656 14.4829 16.6609 14.4829 16.6562C14.4829 16.6515 14.4829 16.6468 14.4829 16.6421C14.4829 16.6374 14.4829 16.6328 14.4829 16.6281C14.4829 16.6234 14.4829 16.6187 14.4829 16.614C14.4829 16.6094 14.4829 16.6047 14.4829 16.6C14.4829 16.5954 14.4829 16.5907 14.4829 16.586C14.4829 16.5814 14.4829 16.5767 14.4829 16.5721C14.4829 16.5674 14.4829 16.5628 14.4829 16.5581C14.4829 16.5535 14.4829 16.5488 14.4829 16.5442C14.4829 16.5396 14.4829 16.5349 14.4829 16.5303C14.4829 16.5257 14.4829 16.521 14.4829 16.5164C14.4829 16.5118 14.4829 16.5072 14.4829 16.5026C14.4829 16.498 14.4829 16.4933 14.4829 16.4887C14.4829 16.4841 14.4829 16.4795 14.4829 16.4749C14.4829 16.4703 14.4829 16.4657 14.4829 16.4611C14.4829 16.4565 14.4829 16.452 14.4829 16.4474C14.4829 16.4428 14.4829 16.4382 14.4829 16.4336C14.4829 16.4291 14.4829 16.4245 14.4829 16.4199C14.4829 16.4153 14.4829 16.4108 14.4829 16.4062C14.4829 16.4017 14.4829 16.3971 14.4829 16.3926C14.4829 16.388 14.4829 16.3835 14.4829 16.3789C14.4829 16.3744 14.4829 16.3698 14.4829 16.3653C14.4829 16.3608 14.4829 16.3562 14.4829 16.3517C14.4829 16.3472 14.4829 16.3426 14.4829 16.3381C14.4829 16.3336 14.4829 16.3291 14.4829 16.3246C14.4829 16.3201 14.4829 16.3156 14.4829 16.3111C14.4829 16.3066 14.4829 16.3021 14.4829 16.2976C14.4829 16.2931 14.4829 16.2886 14.4829 16.2841C14.4829 16.2796 14.4829 16.2751 14.4829 16.2707C14.4829 16.2662 14.4829 16.2617 14.4829 16.2573C14.4829 16.2528 14.4829 16.2483 14.4829 16.2439C14.4829 16.2394 14.4829 16.235 14.4829 16.2305C14.4829 16.2261 14.4829 16.2216 14.4829 16.2172C14.4829 16.2127 14.4829 16.2083 14.4829 16.2039C14.4829 16.1994 14.4829 16.195 14.4829 16.1906C14.4829 16.1862 14.4829 16.1818 14.4829 16.1773C14.4829 16.1729 14.4829 16.1685 14.4829 16.1641C14.4829 16.1597 14.4829 16.1553 14.4829 16.1509C14.4829 16.1465 14.4829 16.1422 14.4829 16.1378C14.4829 16.1334 14.4829 16.129 14.4829 16.1246C14.4829 16.1203 14.4829 16.1159 14.4829 16.1115C14.4829 16.1072 14.4829 16.1028 14.4829 16.0985C14.4829 16.0941 14.4829 16.0898 14.4829 16.0854C14.4829 16.0811 14.4829 16.0767 14.4829 16.0724C14.4829 16.0681 14.4829 16.0637 14.4829 16.0594C14.4829 16.0551 14.4829 16.0508 14.4829 16.0464C14.4829 16.0421 14.4829 16.0378 14.4829 16.0335C14.4829 16.0292 14.4829 16.0249 14.4829 16.0206C14.4829 16.0163 14.4829 16.012 14.4829 16.0078C14.4829 16.0035 14.4829 15.9992 14.4829 15.9949C14.4829 15.9906 14.4829 15.9864 14.4829 15.9821C14.4829 15.9779 14.4829 15.9736 14.4829 15.9693C14.4829 15.9651 14.4829 15.9608 14.4829 15.9566C14.4829 15.9524 14.4829 15.9481 14.4829 15.9439C14.4829 15.9397 14.4829 15.9354 14.4829 15.9312C14.4829 15.927 14.4829 15.9228 14.4829 15.9186C14.4829 15.9144 14.4829 15.9102 14.4829 15.906C14.4829 15.9018 14.4829 15.8976 14.4829 15.8934C14.4829 15.8892 14.4829 15.885 14.4829 15.8808C14.4829 15.8767 14.4829 15.8725 14.4829 15.8683C14.4829 15.8642 14.4829 15.86 14.4829 15.8558C14.4829 15.8517 14.4829 15.8475 14.4829 15.8434C14.4829 15.8393 14.4829 15.8351 14.4829 15.831C14.4829 15.8269 14.4829 15.8227 14.4829 15.8186C14.4829 15.8145 14.4829 15.8104 14.4829 15.8063C14.4829 15.8022 14.4829 15.7981 14.4829 15.794C14.4829 15.7899 14.4829 15.7858 14.4829 15.7817C14.4829 15.7776 14.4829 15.7735 14.4829 15.7695C14.4829 15.7654 14.4829 15.7613 14.4829 15.7572C14.4829 15.7532 14.4829 15.7491 14.4829 15.7451C14.4829 15.741 14.4829 15.737 14.4829 15.7329C14.4829 15.7289 14.4829 15.7249 14.4829 15.7209C14.4829 15.7168 14.4829 15.7128 14.4829 15.7088C14.4829 15.7048 14.4829 15.7008 14.4829 15.6968C14.4829 15.6928 14.4829 15.6888 14.4829 15.6848C14.4829 15.6808 14.4829 15.6768 14.4829 15.6728C14.4829 15.6689 14.4829 15.6649 14.4829 15.6609C14.4829 15.657 14.4829 15.653 14.4829 15.649C14.4829 15.6451 14.4829 15.6411 14.4829 15.6372C14.4829 15.6333 14.4829 15.6293 14.4829 15.6254C14.4829 15.6215 14.4829 15.6176 14.4829 15.6136C14.4829 15.6097 14.4829 15.6058 14.4829 15.6019C14.4829 15.598 14.4829 15.5941 14.4829 15.5902C14.4829 15.5863 14.4829 15.5825 14.4829 15.5786C14.4829 15.5747 14.4829 15.5708 14.4829 15.567C14.4829 15.5631 14.4829 15.5592 14.4829 15.5554C14.4829 15.5515 14.4829 15.5477 14.4829 15.5439C14.4829 15.54 14.4829 15.5362 14.4829 15.5324C14.4829 15.5286 14.4829 15.5247 14.4829 15.5209C14.4829 15.5171 14.4829 15.5133 14.4829 15.5095C14.4829 15.5057 14.4829 15.5019 14.4829 15.4981C14.4829 15.4944 14.4829 15.4906 14.4829 15.4868C14.4829 15.483 14.4829 15.4793 14.4829 15.4755C14.4829 15.4718 14.4829 15.468 14.4829 15.4643C14.4829 15.4605 14.4829 15.4568 14.4829 15.4531C14.4829 15.4493 14.4829 15.4456 14.4829 15.4419C14.4829 15.4382 14.4829 15.4345 14.4829 15.4308C14.4829 15.4271 14.4829 15.4234 14.4829 15.4197C14.4829 15.416 14.4829 15.4123 14.4829 15.4086C14.4829 15.405 14.4829 15.4013 14.4829 15.3976C14.4829 15.394 14.4829 15.3903 14.4829 15.3867C14.4829 15.383 14.4829 15.3794 14.4829 15.3758C14.4829 15.3721 14.4829 15.3685 14.4829 15.3649C14.4829 15.3613 14.4829 15.3577 14.4829 15.3541C14.4829 15.3505 14.4829 15.3469 14.4829 15.3433C14.4829 15.3397 14.4829 15.3361 14.4829 15.3325C14.4829 15.329 14.4829 15.3254 14.4829 15.3218C14.4829 15.3183 14.4829 15.3147 14.4829 15.3112C14.4829 15.3076 14.4829 15.3041 14.4829 15.3006C14.4829 15.297 14.4829 15.2935 14.4829 15.29C14.4829 15.2865 14.4829 15.283 14.4829 15.2795C14.4829 15.276 14.4829 15.2725 14.4829 15.269C14.4829 15.2655 14.4829 15.262 14.4829 15.2586C14.4829 15.2551 14.4829 15.2516 14.4829 15.2482C14.4829 15.2447 14.4829 15.2413 14.4829 15.2378C14.4829 15.2344 14.4829 15.231 14.4829 15.2275C14.4829 15.2241 14.4829 15.2207 14.4829 15.2173C14.4829 15.2139 14.4829 15.2105 14.4829 15.2071C14.4829 15.2037 14.4829 15.2003 14.4829 15.1969C14.4829 15.1936 14.4829 15.1902 14.4829 15.1868C14.4829 15.1835 14.4829 15.1801 14.4829 15.1768C14.4829 15.1734 14.4829 15.1701 14.4829 15.1667C14.4829 15.1634 14.4829 15.1601 14.4829 15.1568C14.4829 15.1535 14.4829 15.1502 14.4829 15.1469C14.4829 15.1436 14.4829 15.1403 14.4829 15.137C14.4829 15.1337 14.4829 15.1304 14.4829 15.1272C14.4829 15.1239 14.4829 15.1206 14.4829 15.1174C14.4829 15.1141 14.4829 15.1109 14.4829 15.1076C14.4829 15.1044 14.4829 15.1012 14.4829 15.098C14.4829 15.0947 14.4829 15.0915 14.4829 15.0883C14.4829 15.0851 14.4829 15.0819 14.4829 15.0787C14.4829 15.0756 14.4829 15.0724 14.4829 15.0692C14.4829 15.066 14.4829 15.0629 14.4829 15.0597C14.4829 15.0566 14.4829 15.0534 14.4829 15.0503C14.4829 15.0472 14.4829 15.044 14.4829 15.0409C14.4829 15.0378 14.4829 15.0347 14.4829 15.0316C14.4829 15.0285 14.4829 15.0254 14.4829 15.0223C14.4829 15.0192 14.4829 15.0161 14.4829 15.0131C14.4829 15.01 14.4829 15.0069 14.4829 15.0039C14.4829 15.0008 14.4829 14.9978 14.4829 14.9947C14.4829 14.9917 14.4829 14.9887 14.4829 14.9857C14.4829 14.9826 14.4829 14.9796 14.4829 14.9766C14.4829 14.9736 14.4829 14.9706 14.4829 14.9677C14.4829 14.9647 14.4829 14.9617 14.4829 14.9587C14.4829 14.9558 14.4829 14.9528 14.4829 14.9499C14.4829 14.9469 14.4829 14.944 14.4829 14.941C14.4829 14.9381 14.4829 14.9352 14.4829 14.9323C14.4829 14.9294 14.4829 14.9264 14.4829 14.9236C14.4829 14.9207 14.4829 14.9178 14.4829 14.9149C14.4829 14.912 14.4829 14.9091 14.4829 14.9063C14.4829 14.9034 14.4829 14.9006 14.4829 14.8977C14.4829 14.8949 14.4829 14.892 14.4829 14.8892C14.4829 14.8864 14.4829 14.8836 14.4829 14.8808C14.4829 14.878 14.4829 14.8752 14.4829 14.8724C14.4829 14.8696 14.4829 14.8668 14.4829 14.864C14.4829 14.8613 14.4829 14.8585 14.4829 14.8558C14.4829 14.853 14.4829 14.8503 14.4829 14.8475C14.4829 14.8448 14.4829 14.8421 14.4829 14.8393C14.4829 14.8366 14.4829 14.8339 14.4829 14.8312C14.4829 14.8285 14.4829 14.8258 14.4829 14.8232C14.4829 14.8205 14.4829 14.8178 14.4829 14.8152C14.4829 14.8125 14.4829 14.8098 14.4829 14.8072C14.4829 14.8046 14.4829 14.8019 14.4829 14.7993C14.4829 14.7967 14.4829 14.7941 14.4829 14.7915C14.4829 14.7889 14.4829 14.7863 14.4829 14.7837C14.4829 14.7811 14.4829 14.7785 14.4829 14.776C14.4829 14.7734 14.4829 14.7708 14.4829 14.7683C14.4829 14.7657 14.4829 14.7632 14.4829 14.7607C14.4829 14.7581 14.4829 14.7556 14.4829 14.7531C14.4829 14.7506 14.4829 14.7481 14.4829 14.7456C14.4829 14.7431 14.4829 14.7407 14.4829 14.7382C14.4829 14.7357 14.4829 14.7333 14.4829 14.7308C14.4829 14.7284 14.4829 14.7259 14.4829 14.7235C14.4829 14.7211 14.4829 14.7186 14.4829 14.7162C14.4829 14.7138 14.4829 14.7114 14.4829 14.709C14.4829 14.7066 14.4829 14.7042 14.4829 14.7019C14.4829 14.6995 14.4829 14.6971 14.4829 14.6948C14.4829 14.6924 14.4829 14.6901 14.4829 14.6878C14.4829 14.6854 14.4829 14.6831 14.4829 14.6808C14.4829 14.6785 14.4829 14.6762 14.4829 14.6739C14.4829 14.6716 14.4829 14.6693 14.4829 14.667C14.4829 14.6648 14.4829 14.6625 14.4829 14.6602C14.4829 14.658 14.4829 14.6558 14.4829 14.6535C14.4829 14.6513 14.4829 14.6491 14.4829 14.6469C14.4829 14.6446 14.4829 14.6424 14.4829 14.6402C14.4829 14.6381 14.4829 14.6359 14.4829 14.6337C14.4829 14.6315 14.4829 14.6294 14.4829 14.6272C14.4829 14.6251 14.4829 14.6229 14.4829 14.6208C14.4829 14.6187 14.4829 14.6166 14.4829 14.6144C14.4829 14.6123 14.4829 14.6102 14.4829 14.6082C14.4829 14.6061 14.4829 14.604 14.4829 14.6019C14.4829 14.5999 14.4829 14.5978 14.4829 14.5957C14.4829 14.5937 14.4829 14.5917 14.4829 14.5896C14.4829 14.5876 14.4829 14.5856 14.4829 14.5836C14.4829 14.5816 14.4829 14.5796 14.4829 14.5776C14.4829 14.5756 14.4829 14.5737 14.4829 14.5717C14.4829 14.5697 14.4829 14.5678 14.4829 14.5658C14.4829 14.5639 14.4829 14.562 14.4829 14.5601C14.4829 14.5581 14.4829 14.5562 14.4829 14.5543H12.9829Z" fill="url(#paint0_linear_43_3540)"/>
<path d="M18.288 20.3242H3.10449V8.78467H18.288V20.3242Z" stroke="url(#paint1_linear_43_3540)" stroke-width="1.5"/>
<path d="M20.9309 8.51738H1.06885V5.20703H20.9309V8.51738Z" stroke="url(#paint2_linear_43_3540)" stroke-width="1.5"/>
<path d="M3.10449 5.32073V2.89136L10.5413 1.06934L18.288 2.89136V5.01706" stroke="url(#paint3_linear_43_3540)" stroke-width="1.5"/>
<defs>
<linearGradient id="paint0_linear_43_3540" x1="8.35298" y1="15.3515" x2="13.421" y2="15.3515" gradientUnits="userSpaceOnUse">
<stop stop-color="#1CB0AB"/>
<stop offset="1" stop-color="#33A5C9"/>
</linearGradient>
<linearGradient id="paint1_linear_43_3540" x1="4.13041" y1="13.2562" x2="17.4673" y2="13.2562" gradientUnits="userSpaceOnUse">
<stop stop-color="#1CB0AB"/>
<stop offset="1" stop-color="#33A5C9"/>
</linearGradient>
<linearGradient id="paint2_linear_43_3540" x1="2.41088" y1="6.48979" x2="19.8573" y2="6.48979" gradientUnits="userSpaceOnUse">
<stop stop-color="#1CB0AB"/>
<stop offset="1" stop-color="#33A5C9"/>
</linearGradient>
<linearGradient id="paint3_linear_43_3540" x1="4.13041" y1="2.71675" x2="17.4673" y2="2.71675" gradientUnits="userSpaceOnUse">
<stop stop-color="#1CB0AB"/>
<stop offset="1" stop-color="#33A5C9"/>
</linearGradient>
</defs>
</svg>
