<svg width="24" height="24" viewBox="0 0 24 24" fill="none" xmlns="http://www.w3.org/2000/svg">
<path d="M4.05455 14.7444L12.6333 6.67596C13.0356 6.29758 13.6684 6.31698 14.0468 6.71928L17.5106 10.4022C17.889 10.8045 17.8696 11.4374 17.4673 11.8157L8.8886 19.8842C8.62795 20.1293 8.3063 20.3 7.9572 20.3785L2.54863 21.5949C2.17741 21.6784 1.85268 21.3331 1.95874 20.9677L3.50405 15.6438C3.60379 15.3001 3.7939 14.9895 4.05455 14.7444Z" fill="white"/>
<path d="M19.9744 8.08395L16.5105 4.40106C16.1322 3.99875 16.1516 3.36588 16.5539 2.98751L18.0282 1.60088C18.6328 1.26287 20.2563 1.0274 21.9137 2.78961C23.5711 4.55182 23.2367 6.15789 22.8622 6.74065L21.3879 8.12728C20.9856 8.50566 20.3528 8.48626 19.9744 8.08395Z" fill="white"/>
</svg>
