<svg width="80" height="80" viewBox="0 0 80 80" fill="none" xmlns="http://www.w3.org/2000/svg">
<g filter="url(#filter0_d_102_1326)">
<rect x="16" y="16" width="48" height="48" rx="24" fill="url(#paint0_linear_102_1326)"/>
<path d="M32.0547 42.7443L40.6334 34.6758C41.0357 34.2975 41.6686 34.3169 42.0469 34.7192L45.5108 38.4021C45.8891 38.8044 45.8697 39.4372 45.4674 39.8156L36.8887 47.884C36.6281 48.1292 36.3064 48.2999 35.9573 48.3784L30.5487 49.5947C30.1775 49.6782 29.8528 49.333 29.9589 48.9676L31.5042 43.6436C31.6039 43.3 31.794 42.9894 32.0547 42.7443Z" fill="white"/>
<path d="M47.9743 36.0839L44.5104 32.4011C44.1321 31.9988 44.1515 31.3659 44.5538 30.9875L46.0281 29.6009C46.6327 29.2629 48.2562 29.0274 49.9136 30.7896C51.571 32.5518 51.2365 34.1579 50.8621 34.7407L49.3878 36.1273C48.9855 36.5057 48.3526 36.4863 47.9743 36.0839Z" fill="white"/>
</g>
<defs>
<filter id="filter0_d_102_1326" x="0" y="0" width="80" height="80" filterUnits="userSpaceOnUse" color-interpolation-filters="sRGB">
<feFlood flood-opacity="0" result="BackgroundImageFix"/>
<feColorMatrix in="SourceAlpha" type="matrix" values="0 0 0 0 0 0 0 0 0 0 0 0 0 0 0 0 0 0 127 0" result="hardAlpha"/>
<feOffset/>
<feGaussianBlur stdDeviation="8"/>
<feColorMatrix type="matrix" values="0 0 0 0 0 0 0 0 0 0 0 0 0 0 0 0 0 0 0.08 0"/>
<feBlend mode="normal" in2="BackgroundImageFix" result="effect1_dropShadow_102_1326"/>
<feBlend mode="normal" in="SourceGraphic" in2="effect1_dropShadow_102_1326" result="shape"/>
</filter>
<linearGradient id="paint0_linear_102_1326" x1="19.2432" y1="34.6" x2="61.4054" y2="34.6" gradientUnits="userSpaceOnUse">
<stop stop-color="#1CB0AB"/>
<stop offset="1" stop-color="#33A5C9"/>
</linearGradient>
</defs>
</svg>
